{
.appVersion = "1060";
copyright = "Copyright 2016 Google Inc. All Rights Reserved.";
customParameters = (
{
name = licenseURL;
value = "http://scripts.sil.org/OFL";
},
{
name = vendorID;
value = GOOG;
},
{
name = fsType;
value = (
);
},
{
name = trademark;
value = "Noto is a trademark of Google Inc.";
},
{
name = license;
value = "This Font Software is licensed under the SIL Open Font License, Version 1.1. This Font Software is distributed on an \"AS IS\" BASIS, WITHOUT WARRANTIES OR CONDITIONS OF ANY KIND, either express or implied. See the SIL Open Font License for the specific language, permissions and limitations governing your use of this Font Software.";
},
{
name = versionString;
value = "Version 2.001";
},
{
name = glyphOrder;
value = (
.notdef,
NULL,
CR,
space,
exclam,
quotedbl,
quotesingle,
parenleft,
parenright,
comma,
hyphen,
period,
slash,
colon,
semicolon,
question,
uni200B,
guillemotleft,
uni00AD,
guillemotright,
quoteleft,
quoteright,
quotedblleft,
quotedblright,
uni1780,
uni1781,
uni1782,
uni1783,
uni1784,
uni1785,
uni1786,
uni1787,
uni1788,
uni1789,
uni1789.a,
uni178A,
uni178B,
uni178C,
uni178D,
uni178E,
uni178F,
uni1790,
uni1791,
uni1792,
uni1793,
uni1794,
uni1794.a,
uni1794.a2,
uni1795,
uni1796,
uni1797,
uni1798,
uni1799,
uni179A,
uni179B,
uni179C,
uni179D,
uni179E,
uni179F,
uni17A0,
uni17A1,
uni17A2,
uni17A3,
uni17A4,
uni17A5,
uni17A6,
uni17A7,
uni17A8,
uni17A9,
uni17AA,
uni17AB,
uni17AC,
uni17AD,
uni17AE,
uni17AF,
uni17B0,
uni17B1,
uni17B2,
uni17B3,
uni17B6,
uni17B7,
uni17B7.r,
uni17B717CD,
uni17B717CD.r,
uni17B8,
uni17B8.r,
uni17B9,
uni17B9.r,
uni17BA,
uni17BA.r,
uni17BB,
uni17BB.b,
uni17BC,
uni17BC.b,
uni17BD,
uni17BD.b,
uni17BE,
uni17BF,
uni17BF.right1,
uni17BF.right2,
uni17BF.right3,
uni17C0,
uni17C0.right1,
uni17C0.right1.high,
uni17C0.right2,
uni17C0.right3,
uni17C0.lowb,
uni17C1,
uni17C2,
uni17C3,
uni17C4,
uni17C5,
uni17C5.right,
uni17C6,
uni17C6.r,
uni17C7,
uni17C8,
uni17C9,
uni17C9.r,
uni17CA,
uni17CA.r,
uni17CA.b,
uni17CB,
uni17CC,

glyphs = (
{
glyphname = .notdef;
lastChange = "2017-12-14 20:43:12 +0000";
layers = (
{
layerId = "88BEB7F0-7448-46FF-842C-45A92B9492CE";
paths = (
{
closed = 1;
nodes = (
"538 0 LINE",
"538 714 LINE",
"96 714 LINE",
"96 0 LINE"
);
},
{
closed = 1;
nodes = (
"188 647 LINE",
"446 647 LINE",
"446 67 LINE",
"188 67 LINE"
);
}
);
width = 634;
},
{
layerId = "37E1EBAF-DBB8-42B6-8B14-41DF5B276D12";
paths = (
{
closed = 1;
nodes = (
"484 0 LINE",
"484 714 LINE",
"104 714 LINE",
"104 0 LINE"
);
},
{
closed = 1;
nodes = (
"130 681 LINE",
"458 681 LINE",
"458 33 LINE",
"130 33 LINE"
);
}
);
width = 588;
},
{
layerId = "33F44B55-ADBD-4698-98EB-0F29A0B3A069";
paths = (
{
closed = 1;
nodes = (
"610 0 LINE",
"610 714 LINE",
"85 714 LINE",
"85 0 LINE"
);
},
{
closed = 1;
nodes = (
"265 602 LINE",
"430 602 LINE",
"430 112 LINE",
"265 112 LINE"
);
}
);
width = 695;
},
{
layerId = "2845A654-27C0-4D24-8E0C-7DAF9BC7668A";
paths = (
{
closed = 1;
nodes = (
"610 0 LINE",
"610 714 LINE",
"85 714 LINE",
"85 0 LINE"
);
},
{
closed = 1;
nodes = (
"265 602 LINE",
"430 602 LINE",
"430 112 LINE",
"265 112 LINE"
);
}
);
width = 695;
},
{
layerId = "BB318BD9-DEF5-4D27-998D-30B020A0DD4F";
paths = (
{
closed = 1;
nodes = (
"538 0 LINE",
"538 714 LINE",
"96 714 LINE",
"96 0 LINE"
);
},
{
closed = 1;
nodes = (
"188 647 LINE",
"446 647 LINE",
"446 67 LINE",
"188 67 LINE"
);
}
);
width = 634;
},
{
layerId = "1DC75306-0750-4696-AEC7-032F44743549";
paths = (
{
closed = 1;
nodes = (
"484 0 LINE",
"484 714 LINE",
"104 714 LINE",
"104 0 LINE"
);
},
{
closed = 1;
nodes = (
"130 681 LINE",
"458 681 LINE",
"458 33 LINE",
"130 33 LINE"
);
}
);
width = 588;
}
);
note = .notdef;
},
{
glyphname = exclam;
lastChange = "2017-12-14 20:43:12 +0000";
layers = (
{
layerId = "33F44B55-ADBD-4698-98EB-0F29A0B3A069";
paths = (
{
closed = 1;
nodes = (
"241 248 LINE",
"318 714 LINE",
"101 714 LINE",
"178 248 LINE"
);
},
{
closed = 1;
nodes = (
"262 -9 OFFCURVE",
"307 13 OFFCURVE",
"307 80 CURVE SMOOTH",
"307 148 OFFCURVE",
"262 169 OFFCURVE",
"211 169 CURVE SMOOTH",
"157 169 OFFCURVE",
"115 148 OFFCURVE",
"115 80 CURVE SMOOTH",
"115 13 OFFCURVE",
"157 -9 OFFCURVE",
"211 -9 CURVE SMOOTH"
);
}
);
width = 418;
},
{
layerId = "88BEB7F0-7448-46FF-842C-45A92B9492CE";
paths = (
{
closed = 1;
nodes = (
"189 201 LINE",
"224 714 LINE",
"108 714 LINE",
"143 201 LINE"
);
},
{
closed = 1;
nodes = (
"200 -7 OFFCURVE",
"229 10 OFFCURVE",
"229 61 CURVE SMOOTH",
"229 113 OFFCURVE",
"200 129 OFFCURVE",
"166 129 CURVE SMOOTH",
"131 129 OFFCURVE",
"103 113 OFFCURVE",
"103 61 CURVE SMOOTH",
"103 10 OFFCURVE",
"131 -7 OFFCURVE",
"166 -7 CURVE SMOOTH"
);
}
);
width = 333;
},
{
layerId = "2845A654-27C0-4D24-8E0C-7DAF9BC7668A";
paths = (
{
closed = 1;
nodes = (
"201 235 LINE",
"265 714 LINE",
"84 714 LINE",
"148 235 LINE"
);
},
{
closed = 1;
nodes = (
"219 -8 OFFCURVE",
"256 12 OFFCURVE",
"256 74 CURVE SMOOTH",
"256 136 OFFCURVE",
"219 156 OFFCURVE",
"176 156 CURVE SMOOTH",
"131 156 OFFCURVE",
"96 136 OFFCURVE",
"96 74 CURVE SMOOTH",
"96 12 OFFCURVE",
"131 -8 OFFCURVE",
"176 -8 CURVE SMOOTH"
);
}
);
width = 349;
},
{
layerId = "1DC75306-0750-4696-AEC7-032F44743549";
paths = (
{
closed = 1;
nodes = (
"119 167 LINE",
"122 714 LINE",
"94 714 LINE",
"99 167 LINE"
);
},
{
closed = 1;
nodes = (
"122 -5 OFFCURVE",
"136 5 OFFCURVE",
"136 34 CURVE SMOOTH",
"136 64 OFFCURVE",
"122 74 OFFCURVE",
"108 74 CURVE SMOOTH",
"91 74 OFFCURVE",
"78 64 OFFCURVE",
"78 34 CURVE SMOOTH",
"78 5 OFFCURVE",
"91 -5 OFFCURVE",
"108 -5 CURVE SMOOTH"
);
}
);
width = 216;
},
{
layerId = "37E1EBAF-DBB8-42B6-8B14-41DF5B276D12";
paths = (
{
closed = 1;
nodes = (
"146 167 LINE",
"149 714 LINE",
"121 714 LINE",
"126 167 LINE"
);
},
{
closed = 1;
nodes = (
"150 -5 OFFCURVE",
"163 4 OFFCURVE",
"163 35 CURVE SMOOTH",
"163 65 OFFCURVE",
"150 73 OFFCURVE",
"134 73 CURVE SMOOTH",
"119 73 OFFCURVE",
"105 65 OFFCURVE",
"105 35 CURVE SMOOTH",
"105 4 OFFCURVE",
"119 -5 OFFCURVE",
"134 -5 CURVE SMOOTH"
);
}
);
width = 271;
},
{
layerId = "BB318BD9-DEF5-4D27-998D-30B020A0DD4F";
paths = (
{
closed = 1;
nodes = (
"156 198 LINE",
"188 714 LINE",
"85 714 LINE",
"117 198 LINE"
);
},
{
closed = 1;
nodes = (
"164 -7 OFFCURVE",
"188 8 OFFCURVE",
"188 55 CURVE SMOOTH",
"188 102 OFFCURVE",
"164 117 OFFCURVE",
"137 117 CURVE SMOOTH",
"108 117 OFFCURVE",
"86 102 OFFCURVE",
"86 55 CURVE SMOOTH",
"86 8 OFFCURVE",
"108 -7 OFFCURVE",
"137 -7 CURVE SMOOTH"
);
}
);
width = 274;
}
);
unicode = 0021;
subCategory = Other;
},
{
glyphname = quotedbl;
lastChange = "2017-12-14 20:43:12 +0000";
layers = (
{
layerId = "33F44B55-ADBD-4698-98EB-0F29A0B3A069";
paths = (
{
closed = 1;
nodes = (
"468 410 LINE",
"507 714 LINE",
"314 714 LINE",
"387 410 LINE"
);
},
{
closed = 1;
nodes = (
"211 410 LINE",
"267 714 LINE",
"74 714 LINE",
"130 410 LINE"
);
}
);
width = 582;
},
{
layerId = "88BEB7F0-7448-46FF-842C-45A92B9492CE";
paths = (
{
closed = 1;
nodes = (
"321 479 LINE",
"351 714 LINE",
"245 714 LINE",
"275 479 LINE"
);
},
{
closed = 1;
nodes = (
"133 479 LINE",
"163 714 LINE",
"57 714 LINE",
"87 479 LINE"
);
}
);
width = 408;
},
{
layerId = "2845A654-27C0-4D24-8E0C-7DAF9BC7668A";
paths = (
{
closed = 1;
nodes = (
"391 429 LINE",
"424 714 LINE",
"262 714 LINE",
"324 429 LINE"
);
},
{
closed = 1;
nodes = (
"176 429 LINE",
"223 714 LINE",
"62 714 LINE",
"109 429 LINE"
);
}
);
width = 486;
},
{
layerId = "1DC75306-0750-4696-AEC7-032F44743549";
paths = (
{
closed = 1;
nodes = (
"186 525 LINE",
"198 714 LINE",
"155 714 LINE",
"167 525 LINE"
);
},
{
closed = 1;
nodes = (
"67 525 LINE",
"79 714 LINE",
"36 714 LINE",
"48 525 LINE"
);
}
);
width = 235;
},
{
layerId = "37E1EBAF-DBB8-42B6-8B14-41DF5B276D12";
paths = (
{
closed = 1;
nodes = (
"225 529 LINE",
"235 714 LINE",
"193 714 LINE",
"205 529 LINE"
);
},
{
closed = 1;
nodes = (
"77 529 LINE",
"87 714 LINE",
"45 714 LINE",
"57 529 LINE"
);
}
);
width = 282;
},
{
layerId = "BB318BD9-DEF5-4D27-998D-30B020A0DD4F";
paths = (
{
closed = 1;
nodes = (
"272 483 LINE",
"296 714 LINE",
"202 714 LINE",
"231 483 LINE"
);
},
{
closed = 1;
nodes = (
"115 483 LINE",
"142 714 LINE",
"47 714 LINE",
"75 483 LINE"
);
}
);
width = 344;
}
);
leftKerningGroup = quotesingle;
rightKerningGroup = quotesingle;
unicode = 0022;
subCategory = Other;
},
{
glyphname = quotesingle;
lastChange = "2017-12-14 20:43:12 +0000";
layers = (
{
layerId = "33F44B55-ADBD-4698-98EB-0F29A0B3A069";
paths = (
{
closed = 1;
nodes = (
"211 410 LINE",
"267 714 LINE",
"74 714 LINE",
"130 410 LINE"
);
}
);
width = 342;
},
{
layerId = "88BEB7F0-7448-46FF-842C-45A92B9492CE";
paths = (
{
closed = 1;
nodes = (
"133 479 LINE",
"163 714 LINE",
"57 714 LINE",
"87 479 LINE"
);
}
);
width = 220;
},
{
layerId = "2845A654-27C0-4D24-8E0C-7DAF9BC7668A";
paths = (
{
closed = 1;
nodes = (
"176 429 LINE",
"223 714 LINE",
"62 714 LINE",
"109 429 LINE"
);
}
);
width = 286;
},
{
layerId = "1DC75306-0750-4696-AEC7-032F44743549";
paths = (
{
closed = 1;
nodes = (
"67 525 LINE",
"79 714 LINE",
"36 714 LINE",
"48 525 LINE"
);
}
);
width = 115;
},
{
layerId = "37E1EBAF-DBB8-42B6-8B14-41DF5B276D12";
paths = (
{
closed = 1;
nodes = (
"77 529 LINE",
"87 714 LINE",
"45 714 LINE",
"57 529 LINE"
);
}
);
width = 132;
},
{
layerId = "BB318BD9-DEF5-4D27-998D-30B020A0DD4F";
paths = (
{
closed = 1;
nodes = (
"115 483 LINE",
"142 714 LINE",
"47 714 LINE",
"75 483 LINE"
);
}
);
width = 190;
}
);
leftKerningGroup = quotesingle;
rightKerningGroup = quotesingle;
unicode = 0027;
subCategory = Other;
},
{
glyphname = parenleft;
lastChange = "2017-12-14 20:43:12 +0000";
layers = (
{
layerId = "33F44B55-ADBD-4698-98EB-0F29A0B3A069";
paths = (
{
closed = 1;
nodes = (
"408 -70 LINE",
"293 11 OFFCURVE",
"260 160 OFFCURVE",
"260 319 CURVE SMOOTH",
"260 476 OFFCURVE",
"293 623 OFFCURVE",
"408 705 CURVE",
"408 781 LINE",
"156 680 OFFCURVE",
"57 515 OFFCURVE",
"57 319 CURVE SMOOTH",
"57 121 OFFCURVE",
"156 -46 OFFCURVE",
"408 -147 CURVE"
);
}
);
width = 440;
},
{
layerId = "88BEB7F0-7448-46FF-842C-45A92B9492CE";
paths = (
{
closed = 1;
nodes = (
"314 -82 LINE",
"177 1 OFFCURVE",
"161 158 OFFCURVE",
"161 317 CURVE SMOOTH",
"161 476 OFFCURVE",
"177 632 OFFCURVE",
"314 715 CURVE",
"314 760 LINE",
"130 687 OFFCURVE",
"57 557 OFFCURVE",
"57 317 CURVE SMOOTH",
"57 76 OFFCURVE",
"130 -55 OFFCURVE",
"314 -128 CURVE"
);
}
);
width = 346;
},
{
layerId = "2845A654-27C0-4D24-8E0C-7DAF9BC7668A";
paths = (
{
closed = 1;
nodes = (
"341 -73 LINE",
"245 8 OFFCURVE",
"217 159 OFFCURVE",
"217 318 CURVE SMOOTH",
"217 476 OFFCURVE",
"245 625 OFFCURVE",
"341 708 CURVE",
"341 775 LINE",
"130 682 OFFCURVE",
"47 526 OFFCURVE",
"47 318 CURVE SMOOTH",
"47 109 OFFCURVE",
"130 -48 OFFCURVE",
"341 -142 CURVE"
);
}
);
width = 367;
},
{
layerId = "1DC75306-0750-4696-AEC7-032F44743549";
paths = (
{
closed = 1;
nodes = (
"197 -87 LINE",
"128 -53 OFFCURVE",
"71 96 OFFCURVE",
"71 315 CURVE SMOOTH",
"71 534 OFFCURVE",
"128 683 OFFCURVE",
"197 717 CURVE",
"197 745 LINE",
"107 702 OFFCURVE",
"43 565 OFFCURVE",
"43 315 CURVE SMOOTH",
"43 62 OFFCURVE",
"107 -72 OFFCURVE",
"197 -115 CURVE"
);
}
);
width = 221;
},
{
layerId = "37E1EBAF-DBB8-42B6-8B14-41DF5B276D12";
paths = (
{
closed = 1;
nodes = (
"246 -90 LINE",
"96 -21 OFFCURVE",
"85 156 OFFCURVE",
"85 315 CURVE SMOOTH",
"85 474 OFFCURVE",
"93 659 OFFCURVE",
"246 719 CURVE",
"246 744 LINE",
"112 693 OFFCURVE",
"57 587 OFFCURVE",
"57 315 CURVE SMOOTH",
"57 44 OFFCURVE",
"112 -61 OFFCURVE",
"246 -114 CURVE"
);
}
);
width = 278;
},
{
layerId = "BB318BD9-DEF5-4D27-998D-30B020A0DD4F";
paths = (
{
closed = 1;
nodes = (
"260 -83 LINE",
"154 0 OFFCURVE",
"140 158 OFFCURVE",
"140 317 CURVE SMOOTH",
"140 476 OFFCURVE",
"154 632 OFFCURVE",
"260 716 CURVE",
"260 758 LINE",
"106 688 OFFCURVE",
"45 560 OFFCURVE",
"45 317 CURVE SMOOTH",
"45 73 OFFCURVE",
"106 -55 OFFCURVE",
"260 -127 CURVE"
);
}
);
width = 284;
}
);
rightKerningGroup = parenleft;
unicode = 0028;
subCategory = Parenthesis;
},
{
glyphname = parenright;
lastChange = "2017-12-14 20:43:12 +0000";
layers = (
{
layerId = "33F44B55-ADBD-4698-98EB-0F29A0B3A069";
paths = (
{
closed = 1;
nodes = (
"284 -46 OFFCURVE",
"383 121 OFFCURVE",
"383 319 CURVE SMOOTH",
"383 515 OFFCURVE",
"284 680 OFFCURVE",
"32 781 CURVE",
"32 705 LINE",
"146 623 OFFCURVE",
"180 476 OFFCURVE",
"180 319 CURVE SMOOTH",
"180 160 OFFCURVE",
"146 11 OFFCURVE",
"32 -70 CURVE",
"32 -147 LINE"
);
}
);
width = 440;
},
{
layerId = "88BEB7F0-7448-46FF-842C-45A92B9492CE";
paths = (
{
closed = 1;
nodes = (
"216 -55 OFFCURVE",
"289 76 OFFCURVE",
"289 317 CURVE SMOOTH",
"289 557 OFFCURVE",
"216 687 OFFCURVE",
"32 760 CURVE",
"32 715 LINE",
"169 632 OFFCURVE",
"185 476 OFFCURVE",
"185 317 CURVE SMOOTH",
"185 158 OFFCURVE",
"169 1 OFFCURVE",
"32 -82 CURVE",
"32 -128 LINE"
);
}
);
width = 346;
},
{
layerId = "2845A654-27C0-4D24-8E0C-7DAF9BC7668A";
paths = (
{
closed = 1;
nodes = (
"237 -48 OFFCURVE",
"320 109 OFFCURVE",
"320 318 CURVE SMOOTH",
"320 526 OFFCURVE",
"237 682 OFFCURVE",
"26 775 CURVE",
"26 708 LINE",
"121 625 OFFCURVE",
"150 476 OFFCURVE",
"150 318 CURVE SMOOTH",
"150 159 OFFCURVE",
"121 8 OFFCURVE",
"26 -73 CURVE",
"26 -142 LINE"
);
}
);
width = 367;
},
{
layerId = "1DC75306-0750-4696-AEC7-032F44743549";
paths = (
{
closed = 1;
nodes = (
"113 -72 OFFCURVE",
"177 62 OFFCURVE",
"177 315 CURVE SMOOTH",
"177 565 OFFCURVE",
"113 702 OFFCURVE",
"23 745 CURVE",
"23 717 LINE",
"92 683 OFFCURVE",
"149 534 OFFCURVE",
"149 315 CURVE SMOOTH",
"149 96 OFFCURVE",
"92 -53 OFFCURVE",
"23 -87 CURVE",
"23 -115 LINE"
);
}
);
width = 221;
},
{
layerId = "37E1EBAF-DBB8-42B6-8B14-41DF5B276D12";
paths = (
{
closed = 1;
nodes = (
"191 -61 OFFCURVE",
"246 44 OFFCURVE",
"246 315 CURVE SMOOTH",
"246 587 OFFCURVE",
"191 693 OFFCURVE",
"57 744 CURVE",
"57 719 LINE",
"210 659 OFFCURVE",
"218 474 OFFCURVE",
"218 315 CURVE SMOOTH",
"218 156 OFFCURVE",
"207 -21 OFFCURVE",
"57 -90 CURVE",
"57 -114 LINE"
);
}
);
width = 278;
},
{
layerId = "BB318BD9-DEF5-4D27-998D-30B020A0DD4F";
paths = (
{
closed = 1;
nodes = (
"179 -55 OFFCURVE",
"240 73 OFFCURVE",
"240 317 CURVE SMOOTH",
"240 560 OFFCURVE",
"179 688 OFFCURVE",
"25 758 CURVE",
"25 716 LINE",
"131 632 OFFCURVE",
"146 476 OFFCURVE",
"146 317 CURVE SMOOTH",
"146 158 OFFCURVE",
"131 0 OFFCURVE",
"25 -83 CURVE",
"25 -127 LINE"
);
}
);
width = 284;
}
);
leftKerningGroup = parenright;
unicode = 0029;
subCategory = Parenthesis;
},
{
glyphname = comma;
lastChange = "2017-12-14 20:43:12 +0000";
layers = (
{
layerId = "33F44B55-ADBD-4698-98EB-0F29A0B3A069";
paths = (
{
closed = 1;
nodes = (
"194 -119 OFFCURVE",
"246 -43 OFFCURVE",
"246 42 CURVE SMOOTH",
"246 119 OFFCURVE",
"216 169 OFFCURVE",
"149 169 CURVE SMOOTH",
"105 169 OFFCURVE",
"66 143 OFFCURVE",
"66 93 CURVE SMOOTH",
"66 -1 OFFCURVE",
"139 11 OFFCURVE",
"139 -25 CURVE SMOOTH",
"139 -61 OFFCURVE",
"109 -74 OFFCURVE",
"56 -95 CURVE",
"56 -154 LINE"
);
}
);
width = 326;
},
{
layerId = "88BEB7F0-7448-46FF-842C-45A92B9492CE";
paths = (
{
closed = 1;
nodes = (
"149 -119 OFFCURVE",
"194 -43 OFFCURVE",
"194 42 CURVE SMOOTH",
"194 98 OFFCURVE",
"158 129 OFFCURVE",
"117 129 CURVE SMOOTH",
"80 129 OFFCURVE",
"52 108 OFFCURVE",
"52 70 CURVE SMOOTH",
"52 9 OFFCURVE",
"125 18 OFFCURVE",
"125 -22 CURVE",
"125 -61 OFFCURVE",
"95 -91 OFFCURVE",
"30 -112 CURVE",
"30 -154 LINE"
);
}
);
width = 250;
},
{
layerId = "2845A654-27C0-4D24-8E0C-7DAF9BC7668A";
paths = (
{
closed = 1;
nodes = (
"162 -120 OFFCURVE",
"205 -45 OFFCURVE",
"205 38 CURVE SMOOTH",
"205 110 OFFCURVE",
"180 156 OFFCURVE",
"125 156 CURVE SMOOTH",
"87 156 OFFCURVE",
"55 131 OFFCURVE",
"55 86 CURVE SMOOTH",
"55 2 OFFCURVE",
"116 11 OFFCURVE",
"116 -25 CURVE SMOOTH",
"116 -61 OFFCURVE",
"91 -80 OFFCURVE",
"47 -100 CURVE",
"47 -154 LINE"
);
}
);
width = 273;
},
{
layerId = "1DC75306-0750-4696-AEC7-032F44743549";
paths = (
{
closed = 1;
nodes = (
"91 -124 OFFCURVE",
"118 -58 OFFCURVE",
"118 0 CURVE SMOOTH",
"118 56 OFFCURVE",
"94 73 OFFCURVE",
"72 73 CURVE SMOOTH",
"55 73 OFFCURVE",
"42 62 OFFCURVE",
"42 47 CURVE SMOOTH",
"42 16 OFFCURVE",
"86 11 OFFCURVE",
"86 -26 CURVE SMOOTH",
"86 -61 OFFCURVE",
"67 -110 OFFCURVE",
"20 -128 CURVE",
"20 -154 LINE"
);
}
);
width = 157;
},
{
layerId = "37E1EBAF-DBB8-42B6-8B14-41DF5B276D12";
paths = (
{
closed = 1;
nodes = (
"111 -127 OFFCURVE",
"142 -67 OFFCURVE",
"142 0 CURVE SMOOTH",
"142 52 OFFCURVE",
"118 73 OFFCURVE",
"91 73 CURVE SMOOTH",
"72 73 OFFCURVE",
"64 60 OFFCURVE",
"64 42 CURVE SMOOTH",
"64 17 OFFCURVE",
"111 4 OFFCURVE",
"111 -30 CURVE SMOOTH",
"111 -61 OFFCURVE",
"89 -115 OFFCURVE",
"30 -132 CURVE",
"30 -154 LINE"
);
}
);
width = 194;
},
{
layerId = "BB318BD9-DEF5-4D27-998D-30B020A0DD4F";
paths = (
{
closed = 1;
nodes = (
"122 -122 OFFCURVE",
"156 -52 OFFCURVE",
"156 26 CURVE SMOOTH",
"156 84 OFFCURVE",
"132 117 OFFCURVE",
"96 117 CURVE SMOOTH",
"69 117 OFFCURVE",
"48 97 OFFCURVE",
"48 64 CURVE SMOOTH",
"48 10 OFFCURVE",
"99 11 OFFCURVE",
"99 -26 CURVE SMOOTH",
"99 -61 OFFCURVE",
"77 -97 OFFCURVE",
"32 -116 CURVE",
"32 -154 LINE"
);
}
);
width = 207;
}
);
leftKerningGroup = period;
rightKerningGroup = comma;
unicode = 002C;
subCategory = Other;
},
{
glyphname = hyphen;
lastChange = "2017-12-14 20:44:20 +0000";
layers = (
{
layerId = "33F44B55-ADBD-4698-98EB-0F29A0B3A069";
paths = (
{
closed = 1;
nodes = (
"285 209 LINE",
"285 336 LINE",
"25 336 LINE",
"25 209 LINE"
);
}
);
width = 310;
},
{
layerId = "88BEB7F0-7448-46FF-842C-45A92B9492CE";
paths = (
{
closed = 1;
nodes = (
"285 235 LINE",
"285 310 LINE",
"25 310 LINE",
"25 235 LINE"
);
}
);
width = 310;
},
{
layerId = "37E1EBAF-DBB8-42B6-8B14-41DF5B276D12";
paths = (
{
closed = 1;
nodes = (
"285 259 LINE",
"285 287 LINE",
"25 287 LINE",
"25 259 LINE"
);
}
);
width = 310;
},
{
layerId = "2845A654-27C0-4D24-8E0C-7DAF9BC7668A";
paths = (
{
closed = 1;
nodes = (
"238 216 LINE",
"238 329 LINE",
"21 329 LINE",
"21 216 LINE"
);
}
);
width = 259;
},
{
layerId = "BB318BD9-DEF5-4D27-998D-30B020A0DD4F";
paths = (
{
closed = 1;
nodes = (
"226 236 LINE",
"226 309 LINE",
"20 309 LINE",
"20 236 LINE"
);
}
);
width = 246;
},
{
layerId = "1DC75306-0750-4696-AEC7-032F44743549";
paths = (
{
closed = 1;
nodes = (
"216 259 LINE",
"216 287 LINE",
"20 287 LINE",
"20 259 LINE"
);
}
);
width = 236;
}
);
leftKerningGroup = hyphen;
rightKerningGroup = hyphen;
unicode = 002D;
subCategory = Dash;
},
{
glyphname = period;
lastChange = "2017-12-14 20:43:12 +0000";
layers = (
{
layerId = "33F44B55-ADBD-4698-98EB-0F29A0B3A069";
paths = (
{
closed = 1;
nodes = (
"214 -9 OFFCURVE",
"259 13 OFFCURVE",
"259 80 CURVE SMOOTH",
"259 148 OFFCURVE",
"214 169 OFFCURVE",
"163 169 CURVE SMOOTH",
"109 169 OFFCURVE",
"67 148 OFFCURVE",
"67 80 CURVE SMOOTH",
"67 13 OFFCURVE",
"109 -9 OFFCURVE",
"163 -9 CURVE SMOOTH"
);
}
);
width = 326;
},
{
layerId = "88BEB7F0-7448-46FF-842C-45A92B9492CE";
paths = (
{
closed = 1;
nodes = (
"159 -7 OFFCURVE",
"188 10 OFFCURVE",
"188 61 CURVE SMOOTH",
"188 113 OFFCURVE",
"159 129 OFFCURVE",
"125 129 CURVE SMOOTH",
"90 129 OFFCURVE",
"62 113 OFFCURVE",
"62 61 CURVE SMOOTH",
"62 10 OFFCURVE",
"90 -7 OFFCURVE",
"125 -7 CURVE SMOOTH"
);
}
);
width = 250;
},
{
layerId = "2845A654-27C0-4D24-8E0C-7DAF9BC7668A";
paths = (
{
closed = 1;
nodes = (
"179 -8 OFFCURVE",
"217 12 OFFCURVE",
"217 74 CURVE SMOOTH",
"217 136 OFFCURVE",
"179 156 OFFCURVE",
"136 156 CURVE SMOOTH",
"91 156 OFFCURVE",
"56 136 OFFCURVE",
"56 74 CURVE SMOOTH",
"56 12 OFFCURVE",
"91 -8 OFFCURVE",
"136 -8 CURVE SMOOTH"
);
}
);
width = 273;
},
{
layerId = "1DC75306-0750-4696-AEC7-032F44743549";
paths = (
{
closed = 1;
nodes = (
"94 -6 OFFCURVE",
"107 4 OFFCURVE",
"107 33 CURVE SMOOTH",
"107 63 OFFCURVE",
"94 73 OFFCURVE",
"80 73 CURVE SMOOTH",
"63 73 OFFCURVE",
"50 63 OFFCURVE",
"50 33 CURVE SMOOTH",
"50 4 OFFCURVE",
"63 -6 OFFCURVE",
"80 -6 CURVE SMOOTH"
);
}
);
width = 157;
},
{
layerId = "37E1EBAF-DBB8-42B6-8B14-41DF5B276D12";
paths = (
{
closed = 1;
nodes = (
"113 -5 OFFCURVE",
"126 4 OFFCURVE",
"126 35 CURVE SMOOTH",
"126 65 OFFCURVE",
"113 73 OFFCURVE",
"97 73 CURVE SMOOTH",
"82 73 OFFCURVE",
"68 65 OFFCURVE",
"68 35 CURVE SMOOTH",
"68 4 OFFCURVE",
"82 -5 OFFCURVE",
"97 -5 CURVE SMOOTH"
);
}
);
width = 194;
},
{
layerId = "BB318BD9-DEF5-4D27-998D-30B020A0DD4F";
paths = (
{
closed = 1;
nodes = (
"131 -7 OFFCURVE",
"155 8 OFFCURVE",
"155 55 CURVE SMOOTH",
"155 102 OFFCURVE",
"131 117 OFFCURVE",
"104 117 CURVE SMOOTH",
"75 117 OFFCURVE",
"52 102 OFFCURVE",
"52 55 CURVE SMOOTH",
"52 8 OFFCURVE",
"75 -7 OFFCURVE",
"104 -7 CURVE SMOOTH"
);
}
);
width = 207;
}
);
leftKerningGroup = period;
rightKerningGroup = comma;
unicode = 002E;
subCategory = Other;
},
{
glyphname = slash;
lastChange = "2017-12-14 20:43:12 +0000";
layers = (
{
layerId = "33F44B55-ADBD-4698-98EB-0F29A0B3A069";
paths = (
{
closed = 1;
nodes = (
"82 -121 LINE",
"288 760 LINE",
"209 760 LINE",
"0 -121 LINE"
);
}
);
width = 288;
},
{
layerId = "88BEB7F0-7448-46FF-842C-45A92B9492CE";
paths = (
{
closed = 1;
nodes = (
"59 -121 LINE",
"288 760 LINE",
"230 760 LINE",
"0 -121 LINE"
);
}
);
width = 288;
},
{
layerId = "2845A654-27C0-4D24-8E0C-7DAF9BC7668A";
paths = (
{
closed = 1;
nodes = (
"69 -121 LINE",
"240 760 LINE",
"174 760 LINE",
"0 -121 LINE"
);
}
);
width = 240;
},
{
layerId = "1DC75306-0750-4696-AEC7-032F44743549";
paths = (
{
closed = 1;
nodes = (
"29 -121 LINE",
"219 760 LINE",
"190 760 LINE",
"0 -121 LINE"
);
}
);
width = 219;
},
{
layerId = "37E1EBAF-DBB8-42B6-8B14-41DF5B276D12";
paths = (
{
closed = 1;
nodes = (
"29 -121 LINE",
"288 760 LINE",
"259 760 LINE",
"0 -121 LINE"
);
}
);
width = 288;
},
{
layerId = "BB318BD9-DEF5-4D27-998D-30B020A0DD4F";
paths = (
{
closed = 1;
nodes = (
"50 -120 LINE",
"228 760 LINE",
"180 760 LINE",
"0 -121 LINE"
);
}
);
width = 228;
}
);
unicode = 002F;
subCategory = Other;
},
{
glyphname = colon;
lastChange = "2017-12-14 20:43:12 +0000";
layers = (
{
layerId = "33F44B55-ADBD-4698-98EB-0F29A0B3A069";
paths = (
{
closed = 1;
nodes = (
"209 370 OFFCURVE",
"254 392 OFFCURVE",
"254 459 CURVE SMOOTH",
"254 527 OFFCURVE",
"209 548 OFFCURVE",
"158 548 CURVE SMOOTH",
"104 548 OFFCURVE",
"62 527 OFFCURVE",
"62 459 CURVE SMOOTH",
"62 392 OFFCURVE",
"104 370 OFFCURVE",
"158 370 CURVE SMOOTH"
);
},
{
closed = 1;
nodes = (
"209 -9 OFFCURVE",
"254 13 OFFCURVE",
"254 80 CURVE SMOOTH",
"254 148 OFFCURVE",
"209 169 OFFCURVE",
"158 169 CURVE SMOOTH",
"104 169 OFFCURVE",
"62 148 OFFCURVE",
"62 80 CURVE SMOOTH",
"62 13 OFFCURVE",
"104 -9 OFFCURVE",
"158 -9 CURVE SMOOTH"
);
}
);
width = 317;
},
{
layerId = "88BEB7F0-7448-46FF-842C-45A92B9492CE";
paths = (
{
closed = 1;
nodes = (
"178 405 OFFCURVE",
"207 422 OFFCURVE",
"207 473 CURVE SMOOTH",
"207 525 OFFCURVE",
"178 541 OFFCURVE",
"144 541 CURVE SMOOTH",
"109 541 OFFCURVE",
"81 525 OFFCURVE",
"81 473 CURVE SMOOTH",
"81 422 OFFCURVE",
"109 405 OFFCURVE",
"144 405 CURVE SMOOTH"
);
},
{
closed = 1;
nodes = (
"178 -7 OFFCURVE",
"207 10 OFFCURVE",
"207 61 CURVE SMOOTH",
"207 113 OFFCURVE",
"178 129 OFFCURVE",
"144 129 CURVE SMOOTH",
"109 129 OFFCURVE",
"81 113 OFFCURVE",
"81 61 CURVE SMOOTH",
"81 10 OFFCURVE",
"109 -7 OFFCURVE",
"144 -7 CURVE SMOOTH"
);
}
);
width = 286;
},
{
layerId = "2845A654-27C0-4D24-8E0C-7DAF9BC7668A";
paths = (
{
closed = 1;
nodes = (
"174 380 OFFCURVE",
"212 400 OFFCURVE",
"212 462 CURVE SMOOTH",
"212 524 OFFCURVE",
"174 544 OFFCURVE",
"132 544 CURVE SMOOTH",
"87 544 OFFCURVE",
"52 524 OFFCURVE",
"52 462 CURVE SMOOTH",
"52 400 OFFCURVE",
"87 380 OFFCURVE",
"132 380 CURVE SMOOTH"
);
},
{
closed = 1;
nodes = (
"174 -8 OFFCURVE",
"212 12 OFFCURVE",
"212 74 CURVE SMOOTH",
"212 136 OFFCURVE",
"174 156 OFFCURVE",
"132 156 CURVE SMOOTH",
"87 156 OFFCURVE",
"52 136 OFFCURVE",
"52 74 CURVE SMOOTH",
"52 12 OFFCURVE",
"87 -8 OFFCURVE",
"132 -8 CURVE SMOOTH"
);
}
);
width = 265;
},
{
layerId = "1DC75306-0750-4696-AEC7-032F44743549";
paths = (
{
closed = 1;
nodes = (
"108 430 OFFCURVE",
"122 439 OFFCURVE",
"122 469 CURVE SMOOTH",
"122 499 OFFCURVE",
"108 508 OFFCURVE",
"94 508 CURVE SMOOTH",
"77 508 OFFCURVE",
"64 499 OFFCURVE",
"64 469 CURVE SMOOTH",
"64 439 OFFCURVE",
"77 430 OFFCURVE",
"94 430 CURVE SMOOTH"
);
},
{
closed = 1;
nodes = (
"108 -5 OFFCURVE",
"122 4 OFFCURVE",
"122 34 CURVE SMOOTH",
"122 64 OFFCURVE",
"108 73 OFFCURVE",
"94 73 CURVE SMOOTH",
"77 73 OFFCURVE",
"64 64 OFFCURVE",
"64 34 CURVE SMOOTH",
"64 4 OFFCURVE",
"77 -5 OFFCURVE",
"94 -5 CURVE SMOOTH"
);
}
);
width = 186;
},
{
layerId = "37E1EBAF-DBB8-42B6-8B14-41DF5B276D12";
paths = (
{
closed = 1;
nodes = (
"126 433 OFFCURVE",
"139 442 OFFCURVE",
"139 473 CURVE SMOOTH",
"139 503 OFFCURVE",
"126 511 OFFCURVE",
"110 511 CURVE SMOOTH",
"95 511 OFFCURVE",
"81 503 OFFCURVE",
"81 473 CURVE SMOOTH",
"81 442 OFFCURVE",
"95 433 OFFCURVE",
"110 433 CURVE SMOOTH"
);
},
{
closed = 1;
nodes = (
"126 -5 OFFCURVE",
"139 4 OFFCURVE",
"139 35 CURVE SMOOTH",
"139 65 OFFCURVE",
"126 73 OFFCURVE",
"110 73 CURVE SMOOTH",
"95 73 OFFCURVE",
"81 65 OFFCURVE",
"81 35 CURVE SMOOTH",
"81 4 OFFCURVE",
"95 -5 OFFCURVE",
"110 -5 CURVE SMOOTH"
);
}
);
width = 224;
},
{
layerId = "BB318BD9-DEF5-4D27-998D-30B020A0DD4F";
paths = (
{
closed = 1;
nodes = (
"137 409 OFFCURVE",
"161 423 OFFCURVE",
"161 470 CURVE SMOOTH",
"161 517 OFFCURVE",
"137 531 OFFCURVE",
"110 531 CURVE SMOOTH",
"81 531 OFFCURVE",
"59 517 OFFCURVE",
"59 470 CURVE SMOOTH",
"59 423 OFFCURVE",
"81 409 OFFCURVE",
"110 409 CURVE SMOOTH"
);
},
{
closed = 1;
nodes = (
"137 -7 OFFCURVE",
"161 8 OFFCURVE",
"161 55 CURVE SMOOTH",
"161 102 OFFCURVE",
"137 117 OFFCURVE",
"110 117 CURVE SMOOTH",
"81 117 OFFCURVE",
"59 102 OFFCURVE",
"59 55 CURVE SMOOTH",
"59 8 OFFCURVE",
"81 -7 OFFCURVE",
"110 -7 CURVE SMOOTH"
);
}
);
width = 220;
}
);
leftKerningGroup = colon;
rightKerningGroup = colon;
unicode = 003A;
subCategory = Other;
},
{
glyphname = semicolon;
lastChange = "2017-12-14 20:43:12 +0000";
layers = (
{
layerId = "33F44B55-ADBD-4698-98EB-0F29A0B3A069";
paths = (
{
closed = 1;
nodes = (
"196 -119 OFFCURVE",
"248 -43 OFFCURVE",
"248 42 CURVE SMOOTH",
"248 119 OFFCURVE",
"218 169 OFFCURVE",
"151 169 CURVE SMOOTH",
"107 169 OFFCURVE",
"68 143 OFFCURVE",
"68 93 CURVE SMOOTH",
"68 -1 OFFCURVE",
"141 11 OFFCURVE",
"141 -25 CURVE",
"141 -63 OFFCURVE",
"111 -74 OFFCURVE",
"58 -95 CURVE",
"58 -154 LINE"
);
},
{
closed = 1;
nodes = (
"209 370 OFFCURVE",
"254 392 OFFCURVE",
"254 459 CURVE SMOOTH",
"254 527 OFFCURVE",
"209 548 OFFCURVE",
"158 548 CURVE SMOOTH",
"104 548 OFFCURVE",
"62 527 OFFCURVE",
"62 459 CURVE SMOOTH",
"62 392 OFFCURVE",
"104 370 OFFCURVE",
"158 370 CURVE SMOOTH"
);
}
);
width = 317;
},
{
layerId = "88BEB7F0-7448-46FF-842C-45A92B9492CE";
paths = (
{
closed = 1;
nodes = (
"167 -119 OFFCURVE",
"212 -43 OFFCURVE",
"212 42 CURVE SMOOTH",
"212 98 OFFCURVE",
"176 129 OFFCURVE",
"135 129 CURVE SMOOTH",
"98 129 OFFCURVE",
"70 108 OFFCURVE",
"70 70 CURVE SMOOTH",
"70 9 OFFCURVE",
"143 18 OFFCURVE",
"143 -22 CURVE",
"143 -61 OFFCURVE",
"113 -91 OFFCURVE",
"48 -112 CURVE",
"48 -154 LINE"
);
},
{
closed = 1;
nodes = (
"178 405 OFFCURVE",
"207 422 OFFCURVE",
"207 473 CURVE SMOOTH",
"207 525 OFFCURVE",
"178 541 OFFCURVE",
"144 541 CURVE SMOOTH",
"109 541 OFFCURVE",
"81 525 OFFCURVE",
"81 473 CURVE SMOOTH",
"81 422 OFFCURVE",
"109 405 OFFCURVE",
"144 405 CURVE SMOOTH"
);
}
);
width = 286;
},
{
layerId = "2845A654-27C0-4D24-8E0C-7DAF9BC7668A";
paths = (
{
closed = 1;
nodes = (
"164 -120 OFFCURVE",
"207 -45 OFFCURVE",
"207 38 CURVE SMOOTH",
"207 110 OFFCURVE",
"182 156 OFFCURVE",
"126 156 CURVE SMOOTH",
"89 156 OFFCURVE",
"57 131 OFFCURVE",
"57 86 CURVE SMOOTH",
"57 2 OFFCURVE",
"118 11 OFFCURVE",
"118 -25 CURVE SMOOTH",
"118 -63 OFFCURVE",
"93 -80 OFFCURVE",
"48 -100 CURVE",
"48 -154 LINE"
);
},
{
closed = 1;
nodes = (
"175 380 OFFCURVE",
"212 400 OFFCURVE",
"212 462 CURVE SMOOTH",
"212 524 OFFCURVE",
"175 544 OFFCURVE",
"132 544 CURVE SMOOTH",
"87 544 OFFCURVE",
"52 524 OFFCURVE",
"52 462 CURVE SMOOTH",
"52 400 OFFCURVE",
"87 380 OFFCURVE",
"132 380 CURVE SMOOTH"
);
}
);
width = 265;
},
{
layerId = "1DC75306-0750-4696-AEC7-032F44743549";
paths = (
{
closed = 1;
nodes = (
"105 -124 OFFCURVE",
"132 -58 OFFCURVE",
"132 0 CURVE SMOOTH",
"132 56 OFFCURVE",
"108 73 OFFCURVE",
"86 73 CURVE SMOOTH",
"69 73 OFFCURVE",
"56 62 OFFCURVE",
"56 47 CURVE SMOOTH",
"56 16 OFFCURVE",
"100 11 OFFCURVE",
"100 -26 CURVE SMOOTH",
"100 -61 OFFCURVE",
"81 -110 OFFCURVE",
"34 -128 CURVE",
"34 -154 LINE"
);
},
{
closed = 1;
nodes = (
"109 430 OFFCURVE",
"122 439 OFFCURVE",
"122 469 CURVE SMOOTH",
"122 499 OFFCURVE",
"109 508 OFFCURVE",
"94 508 CURVE SMOOTH",
"77 508 OFFCURVE",
"64 499 OFFCURVE",
"64 469 CURVE SMOOTH",
"64 439 OFFCURVE",
"77 430 OFFCURVE",
"94 430 CURVE SMOOTH"
);
}
);
width = 186;
},
{
layerId = "37E1EBAF-DBB8-42B6-8B14-41DF5B276D12";
paths = (
{
closed = 1;
nodes = (
"123 -127 OFFCURVE",
"154 -67 OFFCURVE",
"154 0 CURVE SMOOTH",
"154 52 OFFCURVE",
"130 73 OFFCURVE",
"103 73 CURVE SMOOTH",
"84 73 OFFCURVE",
"76 60 OFFCURVE",
"76 42 CURVE SMOOTH",
"76 17 OFFCURVE",
"123 4 OFFCURVE",
"123 -30 CURVE SMOOTH",
"123 -61 OFFCURVE",
"101 -115 OFFCURVE",
"42 -132 CURVE",
"42 -154 LINE"
);
},
{
closed = 1;
nodes = (
"126 433 OFFCURVE",
"139 442 OFFCURVE",
"139 473 CURVE SMOOTH",
"139 503 OFFCURVE",
"126 511 OFFCURVE",
"110 511 CURVE SMOOTH",
"95 511 OFFCURVE",
"81 503 OFFCURVE",
"81 473 CURVE SMOOTH",
"81 442 OFFCURVE",
"95 433 OFFCURVE",
"110 433 CURVE SMOOTH"
);
}
);
width = 224;
},
{
layerId = "BB318BD9-DEF5-4D27-998D-30B020A0DD4F";
paths = (
{
closed = 1;
nodes = (
"130 -122 OFFCURVE",
"164 -52 OFFCURVE",
"164 26 CURVE SMOOTH",
"164 84 OFFCURVE",
"140 117 OFFCURVE",
"103 117 CURVE SMOOTH",
"77 117 OFFCURVE",
"56 97 OFFCURVE",
"56 64 CURVE SMOOTH",
"56 10 OFFCURVE",
"108 11 OFFCURVE",
"108 -26 CURVE SMOOTH",
"108 -62 OFFCURVE",
"86 -97 OFFCURVE",
"39 -116 CURVE",
"39 -154 LINE"
);
},
{
closed = 1;
nodes = (
"138 409 OFFCURVE",
"161 423 OFFCURVE",
"161 470 CURVE SMOOTH",
"161 517 OFFCURVE",
"138 531 OFFCURVE",
"110 531 CURVE SMOOTH",
"81 531 OFFCURVE",
"59 517 OFFCURVE",
"59 470 CURVE SMOOTH",
"59 423 OFFCURVE",
"81 409 OFFCURVE",
"110 409 CURVE SMOOTH"
);
}
);
width = 220;
}
);
leftKerningGroup = colon;
rightKerningGroup = colon;
unicode = 003B;
subCategory = Other;
},
{
glyphname = question;
lastChange = "2017-12-14 20:43:12 +0000";
layers = (
{
layerId = "33F44B55-ADBD-4698-98EB-0F29A0B3A069";
paths = (
{
closed = 1;
nodes = (
"292 238 LINE",
"327 323 LINE",
"466 381 OFFCURVE",
"529 433 OFFCURVE",
"529 538 CURVE SMOOTH",
"529 655 OFFCURVE",
"427 724 OFFCURVE",
"265 724 CURVE SMOOTH",
"105 724 OFFCURVE",
"33 660 OFFCURVE",
"33 600 CURVE SMOOTH",
"33 534 OFFCURVE",
"93 516 OFFCURVE",
"200 516 CURVE",
"200 607 OFFCURVE",
"223 656 OFFCURVE",
"266 656 CURVE SMOOTH",
"305 656 OFFCURVE",
"328 613 OFFCURVE",
"328 553 CURVE SMOOTH",
"328 475 OFFCURVE",
"309 395 OFFCURVE",
"196 350 CURVE",
"231 238 LINE"
);
},
{
closed = 1;
nodes = (
"310 -9 OFFCURVE",
"355 13 OFFCURVE",
"355 80 CURVE SMOOTH",
"355 148 OFFCURVE",
"310 169 OFFCURVE",
"259 169 CURVE SMOOTH",
"205 169 OFFCURVE",
"163 148 OFFCURVE",
"163 80 CURVE SMOOTH",
"163 13 OFFCURVE",
"205 -9 OFFCURVE",
"259 -9 CURVE SMOOTH"
);
}
);
width = 587;
},
{
layerId = "88BEB7F0-7448-46FF-842C-45A92B9492CE";
paths = (
{
closed = 1;
nodes = (
"255 201 LINE",
"255 314 LINE",
"379 365 OFFCURVE",
"449 433 OFFCURVE",
"449 543 CURVE SMOOTH",
"449 657 OFFCURVE",
"356 724 OFFCURVE",
"230 724 CURVE SMOOTH",
"101 724 OFFCURVE",
"43 676 OFFCURVE",
"43 612 CURVE SMOOTH",
"43 569 OFFCURVE",
"78 547 OFFCURVE",
"126 547 CURVE",
"126 616 OFFCURVE",
"155 675 OFFCURVE",
"238 675 CURVE SMOOTH",
"315 675 OFFCURVE",
"347 629 OFFCURVE",
"347 560 CURVE SMOOTH",
"347 480 OFFCURVE",
"310 400 OFFCURVE",
"194 353 CURVE",
"194 201 LINE"
);
},
{
closed = 1;
nodes = (
"257 -7 OFFCURVE",
"286 10 OFFCURVE",
"286 61 CURVE SMOOTH",
"286 113 OFFCURVE",
"257 129 OFFCURVE",
"223 129 CURVE SMOOTH",
"188 129 OFFCURVE",
"160 113 OFFCURVE",
"160 61 CURVE SMOOTH",
"160 10 OFFCURVE",
"188 -7 OFFCURVE",
"223 -7 CURVE SMOOTH"
);
}
);
width = 500;
},
{
layerId = "2845A654-27C0-4D24-8E0C-7DAF9BC7668A";
paths = (
{
closed = 1;
nodes = (
"244 231 LINE",
"273 323 LINE",
"389 379 OFFCURVE",
"442 434 OFFCURVE",
"442 540 CURVE SMOOTH",
"442 656 OFFCURVE",
"356 724 OFFCURVE",
"221 724 CURVE SMOOTH",
"87 724 OFFCURVE",
"28 664 OFFCURVE",
"28 603 CURVE SMOOTH",
"28 543 OFFCURVE",
"78 525 OFFCURVE",
"167 525 CURVE",
"167 612 OFFCURVE",
"187 661 OFFCURVE",
"222 661 CURVE SMOOTH",
"254 661 OFFCURVE",
"273 615 OFFCURVE",
"273 552 CURVE SMOOTH",
"273 471 OFFCURVE",
"258 395 OFFCURVE",
"164 349 CURVE",
"193 231 LINE"
);
},
{
closed = 1;
nodes = (
"259 -8 OFFCURVE",
"296 12 OFFCURVE",
"296 74 CURVE SMOOTH",
"296 136 OFFCURVE",
"259 156 OFFCURVE",
"216 156 CURVE SMOOTH",
"171 156 OFFCURVE",
"136 136 OFFCURVE",
"136 74 CURVE SMOOTH",
"136 12 OFFCURVE",
"171 -8 OFFCURVE",
"216 -8 CURVE SMOOTH"
);
}
);
width = 490;
},
{
layerId = "1DC75306-0750-4696-AEC7-032F44743549";
paths = (
{
closed = 1;
nodes = (
"170 192 LINE",
"173 323 LINE",
"261 369 OFFCURVE",
"306 438 OFFCURVE",
"306 552 CURVE SMOOTH",
"306 664 OFFCURVE",
"250 724 OFFCURVE",
"167 724 CURVE SMOOTH",
"74 724 OFFCURVE",
"38 663 OFFCURVE",
"38 614 CURVE SMOOTH",
"38 585 OFFCURVE",
"49 574 OFFCURVE",
"59 574 CURVE",
"59 644 OFFCURVE",
"86 699 OFFCURVE",
"167 699 CURVE SMOOTH",
"240 699 OFFCURVE",
"278 642 OFFCURVE",
"278 550 CURVE SMOOTH",
"278 453 OFFCURVE",
"239 385 OFFCURVE",
"148 337 CURVE",
"150 192 LINE"
);
},
{
closed = 1;
nodes = (
"178 -5 OFFCURVE",
"192 4 OFFCURVE",
"192 34 CURVE SMOOTH",
"192 64 OFFCURVE",
"178 73 OFFCURVE",
"161 73 CURVE SMOOTH",
"146 73 OFFCURVE",
"133 64 OFFCURVE",
"133 34 CURVE SMOOTH",
"133 4 OFFCURVE",
"146 -5 OFFCURVE",
"161 -5 CURVE SMOOTH"
);
}
);
width = 352;
},
{
layerId = "37E1EBAF-DBB8-42B6-8B14-41DF5B276D12";
paths = (
{
closed = 1;
nodes = (
"228 201 LINE",
"232 324 LINE",
"344 377 OFFCURVE",
"391 441 OFFCURVE",
"391 551 CURVE SMOOTH",
"391 651 OFFCURVE",
"327 724 OFFCURVE",
"212 724 CURVE SMOOTH",
"85 724 OFFCURVE",
"48 656 OFFCURVE",
"48 618 CURVE SMOOTH",
"48 594 OFFCURVE",
"55 579 OFFCURVE",
"69 579 CURVE",
"69 639 OFFCURVE",
"95 699 OFFCURVE",
"214 699 CURVE SMOOTH",
"314 699 OFFCURVE",
"366 634 OFFCURVE",
"366 551 CURVE SMOOTH",
"366 448 OFFCURVE",
"316 389 OFFCURVE",
"204 337 CURVE",
"208 201 LINE"
);
},
{
closed = 1;
nodes = (
"233 -5 OFFCURVE",
"246 4 OFFCURVE",
"246 35 CURVE SMOOTH",
"246 65 OFFCURVE",
"233 73 OFFCURVE",
"217 73 CURVE SMOOTH",
"202 73 OFFCURVE",
"188 65 OFFCURVE",
"188 35 CURVE SMOOTH",
"188 4 OFFCURVE",
"202 -5 OFFCURVE",
"217 -5 CURVE SMOOTH"
);
}
);
width = 460;
},
{
layerId = "BB318BD9-DEF5-4D27-998D-30B020A0DD4F";
paths = (
{
closed = 1;
nodes = (
"203 209 LINE",
"217 323 LINE",
"317 373 OFFCURVE",
"365 436 OFFCURVE",
"365 547 CURVE SMOOTH",
"365 660 OFFCURVE",
"298 724 OFFCURVE",
"192 724 CURVE SMOOTH",
"90 724 OFFCURVE",
"34 674 OFFCURVE",
"34 612 CURVE SMOOTH",
"34 569 OFFCURVE",
"64 553 OFFCURVE",
"109 553 CURVE",
"109 627 OFFCURVE",
"130 676 OFFCURVE",
"191 676 CURVE SMOOTH",
"247 676 OFFCURVE",
"275 620 OFFCURVE",
"275 548 CURVE SMOOTH",
"275 461 OFFCURVE",
"246 394 OFFCURVE",
"155 346 CURVE",
"168 209 LINE"
);
},
{
closed = 1;
nodes = (
"214 -7 OFFCURVE",
"238 8 OFFCURVE",
"238 55 CURVE SMOOTH",
"238 102 OFFCURVE",
"214 117 OFFCURVE",
"185 117 CURVE SMOOTH",
"157 117 OFFCURVE",
"135 102 OFFCURVE",
"135 55 CURVE SMOOTH",
"135 8 OFFCURVE",
"157 -7 OFFCURVE",
"185 -7 CURVE SMOOTH"
);
}
);
width = 412;
}
);
leftKerningGroup = T;
unicode = 003F;
subCategory = Other;
},
{
glyphname = guillemotleft;
lastChange = "2017-12-14 20:43:12 +0000";
layers = (
{
layerId = "33F44B55-ADBD-4698-98EB-0F29A0B3A069";
paths = (
{
closed = 1;
nodes = (
"519 63 LINE",
"418 270 LINE",
"519 477 LINE",
"434 477 LINE",
"281 303 LINE",
"281 237 LINE",
"434 63 LINE"
);
},
{
closed = 1;
nodes = (
"303 63 LINE",
"202 270 LINE",
"303 477 LINE",
"218 477 LINE",
"65 303 LINE",
"65 237 LINE",
"218 63 LINE"
);
}
);
width = 583;
},
{
layerId = "88BEB7F0-7448-46FF-842C-45A92B9492CE";
paths = (
{
closed = 1;
nodes = (
"449 80 LINE",
"348 270 LINE",
"449 460 LINE",
"399 460 LINE",
"246 286 LINE",
"246 254 LINE",
"399 80 LINE"
);
},
{
closed = 1;
nodes = (
"268 80 LINE",
"167 270 LINE",
"268 460 LINE",
"218 460 LINE",
"65 286 LINE",
"65 254 LINE",
"218 80 LINE"
);
}
);
width = 514;
},
{
layerId = "2845A654-27C0-4D24-8E0C-7DAF9BC7668A";
paths = (
{
closed = 1;
nodes = (
"433 68 LINE",
"349 270 LINE",
"433 472 LINE",
"363 472 LINE",
"235 298 LINE",
"235 242 LINE",
"363 68 LINE"
);
},
{
closed = 1;
nodes = (
"252 68 LINE",
"168 270 LINE",
"252 472 LINE",
"181 472 LINE",
"53 298 LINE",
"53 242 LINE",
"181 68 LINE"
);
}
);
width = 486;
},
{
layerId = "1DC75306-0750-4696-AEC7-032F44743549";
paths = (
{
closed = 1;
nodes = (
"306 91 LINE",
"222 270 LINE",
"306 449 LINE",
"293 449 LINE",
"177 275 LINE",
"177 265 LINE",
"293 91 LINE"
);
},
{
closed = 1;
nodes = (
"192 91 LINE",
"107 270 LINE",
"192 449 LINE",
"178 449 LINE",
"63 275 LINE",
"63 265 LINE",
"178 91 LINE"
);
}
);
width = 359;
},
{
layerId = "37E1EBAF-DBB8-42B6-8B14-41DF5B276D12";
paths = (
{
closed = 1;
nodes = (
"388 92 LINE",
"265 270 LINE",
"388 448 LINE",
"364 448 LINE",
"231 274 LINE",
"231 266 LINE",
"364 92 LINE"
);
},
{
closed = 1;
nodes = (
"232 92 LINE",
"109 270 LINE",
"232 448 LINE",
"208 448 LINE",
"75 274 LINE",
"75 266 LINE",
"208 92 LINE"
);
}
);
width = 464;
},
{
layerId = "BB318BD9-DEF5-4D27-998D-30B020A0DD4F";
paths = (
{
closed = 1;
nodes = (
"345 81 LINE",
"261 270 LINE",
"345 459 LINE",
"307 459 LINE",
"185 285 LINE",
"185 255 LINE",
"307 81 LINE"
);
},
{
closed = 1;
nodes = (
"229 81 LINE",
"145 270 LINE",
"229 459 LINE",
"191 459 LINE",
"70 285 LINE",
"70 255 LINE",
"191 81 LINE"
);
}
);
width = 414;
}
);
leftKerningGroup = guilsinglleft;
rightKerningGroup = guilsinglleft;
unicode = 00AB;
subCategory = Quote;
},
{
glyphname = uni00AD;
lastChange = "2017-12-14 20:44:20 +0000";
layers = (
{
layerId = "33F44B55-ADBD-4698-98EB-0F29A0B3A069";
paths = (
{
closed = 1;
nodes = (
"285 209 LINE",
"285 336 LINE",
"25 336 LINE",
"25 209 LINE"
);
}
);
width = 310;
},
{
layerId = "88BEB7F0-7448-46FF-842C-45A92B9492CE";
paths = (
{
closed = 1;
nodes = (
"285 235 LINE",
"285 310 LINE",
"25 310 LINE",
"25 235 LINE"
);
}
);
width = 310;
},
{
layerId = "37E1EBAF-DBB8-42B6-8B14-41DF5B276D12";
paths = (
{
closed = 1;
nodes = (
"285 259 LINE",
"285 287 LINE",
"25 287 LINE",
"25 259 LINE"
);
}
);
width = 310;
},
{
layerId = "2845A654-27C0-4D24-8E0C-7DAF9BC7668A";
paths = (
{
closed = 1;
nodes = (
"238 216 LINE",
"238 329 LINE",
"21 329 LINE",
"21 216 LINE"
);
}
);
width = 310;
},
{
layerId = "BB318BD9-DEF5-4D27-998D-30B020A0DD4F";
paths = (
{
closed = 1;
nodes = (
"226 236 LINE",
"226 309 LINE",
"20 309 LINE",
"20 236 LINE"
);
}
);
width = 310;
},
{
layerId = "1DC75306-0750-4696-AEC7-032F44743549";
paths = (
{
closed = 1;
nodes = (
"216 259 LINE",
"216 287 LINE",
"20 287 LINE",
"20 259 LINE"
);
}
);
width = 310;
}
);
unicode = 00AD;
subCategory = Dash;
},
{
glyphname = guillemotright;
lastChange = "2017-12-14 20:43:12 +0000";
layers = (
{
layerId = "33F44B55-ADBD-4698-98EB-0F29A0B3A069";
paths = (
{
closed = 1;
nodes = (
"366 63 LINE",
"519 237 LINE",
"519 303 LINE",
"366 477 LINE",
"281 477 LINE",
"382 270 LINE",
"281 63 LINE"
);
},
{
closed = 1;
nodes = (
"150 63 LINE",
"303 237 LINE",
"303 303 LINE",
"150 477 LINE",
"65 477 LINE",
"166 270 LINE",
"65 63 LINE"
);
}
);
width = 583;
},
{
layerId = "88BEB7F0-7448-46FF-842C-45A92B9492CE";
paths = (
{
closed = 1;
nodes = (
"296 80 LINE",
"449 254 LINE",
"449 286 LINE",
"296 460 LINE",
"246 460 LINE",
"347 270 LINE",
"246 80 LINE"
);
},
{
closed = 1;
nodes = (
"115 80 LINE",
"268 254 LINE",
"268 286 LINE",
"115 460 LINE",
"65 460 LINE",
"166 270 LINE",
"65 80 LINE"
);
}
);
width = 514;
},
{
layerId = "2845A654-27C0-4D24-8E0C-7DAF9BC7668A";
paths = (
{
closed = 1;
nodes = (
"306 68 LINE",
"433 242 LINE",
"433 298 LINE",
"306 472 LINE",
"235 472 LINE",
"319 270 LINE",
"235 68 LINE"
);
},
{
closed = 1;
nodes = (
"125 68 LINE",
"252 242 LINE",
"252 298 LINE",
"125 472 LINE",
"54 472 LINE",
"138 270 LINE",
"54 68 LINE"
);
}
);
width = 486;
},
{
layerId = "1DC75306-0750-4696-AEC7-032F44743549";
paths = (
{
closed = 1;
nodes = (
"188 91 LINE",
"304 265 LINE",
"304 275 LINE",
"188 449 LINE",
"175 449 LINE",
"259 270 LINE",
"175 91 LINE"
);
},
{
closed = 1;
nodes = (
"67 91 LINE",
"182 265 LINE",
"182 275 LINE",
"67 449 LINE",
"53 449 LINE",
"138 270 LINE",
"53 91 LINE"
);
}
);
width = 359;
},
{
layerId = "37E1EBAF-DBB8-42B6-8B14-41DF5B276D12";
paths = (
{
closed = 1;
nodes = (
"255 92 LINE",
"388 266 LINE",
"388 274 LINE",
"255 448 LINE",
"231 448 LINE",
"354 270 LINE",
"231 92 LINE"
);
},
{
closed = 1;
nodes = (
"99 92 LINE",
"232 266 LINE",
"232 274 LINE",
"99 448 LINE",
"75 448 LINE",
"198 270 LINE",
"75 92 LINE"
);
}
);
width = 464;
},
{
layerId = "BB318BD9-DEF5-4D27-998D-30B020A0DD4F";
paths = (
{
closed = 1;
nodes = (
"240 81 LINE",
"361 255 LINE",
"361 285 LINE",
"240 459 LINE",
"201 459 LINE",
"285 270 LINE",
"201 81 LINE"
);
},
{
closed = 1;
nodes = (
"92 81 LINE",
"213 255 LINE",
"213 285 LINE",
"92 459 LINE",
"53 459 LINE",
"138 270 LINE",
"53 81 LINE"
);
}
);
width = 414;
}
);
leftKerningGroup = guilsinglright;
rightKerningGroup = guilsinglright;
unicode = 00BB;
subCategory = Quote;
},
{
glyphname = quoteleft;
lastChange = "2017-12-14 20:43:12 +0000";
layers = (
{
layerId = "33F44B55-ADBD-4698-98EB-0F29A0B3A069";
paths = (
{
closed = 1;
nodes = (
"203 390 OFFCURVE",
"236 417 OFFCURVE",
"236 467 CURVE SMOOTH",
"236 561 OFFCURVE",
"163 548 OFFCURVE",
"163 585 CURVE",
"163 624 OFFCURVE",
"193 633 OFFCURVE",
"246 654 CURVE",
"246 713 LINE",
"108 678 OFFCURVE",
"56 602 OFFCURVE",
"56 517 CURVE SMOOTH",
"56 440 OFFCURVE",
"92 390 OFFCURVE",
"159 390 CURVE SMOOTH"
);
}
);
width = 302;
},
{
layerId = "88BEB7F0-7448-46FF-842C-45A92B9492CE";
paths = (
{
closed = 1;
nodes = (
"170 432 OFFCURVE",
"198 453 OFFCURVE",
"198 491 CURVE SMOOTH",
"198 552 OFFCURVE",
"125 543 OFFCURVE",
"125 583 CURVE",
"125 622 OFFCURVE",
"155 652 OFFCURVE",
"220 673 CURVE",
"220 715 LINE",
"101 680 OFFCURVE",
"56 604 OFFCURVE",
"56 519 CURVE SMOOTH",
"56 463 OFFCURVE",
"92 432 OFFCURVE",
"133 432 CURVE SMOOTH"
);
}
);
width = 250;
},
{
layerId = "2845A654-27C0-4D24-8E0C-7DAF9BC7668A";
paths = (
{
closed = 1;
nodes = (
"169 401 OFFCURVE",
"197 427 OFFCURVE",
"197 474 CURVE SMOOTH",
"197 559 OFFCURVE",
"136 547 OFFCURVE",
"136 584 CURVE",
"136 623 OFFCURVE",
"161 638 OFFCURVE",
"205 659 CURVE",
"205 714 LINE",
"90 679 OFFCURVE",
"46 603 OFFCURVE",
"46 518 CURVE SMOOTH",
"46 446 OFFCURVE",
"76 401 OFFCURVE",
"132 401 CURVE SMOOTH"
);
}
);
width = 252;
},
{
layerId = "1DC75306-0750-4696-AEC7-032F44743549";
paths = (
{
closed = 1;
nodes = (
"117 462 OFFCURVE",
"127 476 OFFCURVE",
"127 489 CURVE SMOOTH",
"127 526 OFFCURVE",
"82 524 OFFCURVE",
"82 583 CURVE SMOOTH",
"82 618 OFFCURVE",
"96 659 OFFCURVE",
"156 688 CURVE",
"156 717 LINE",
"73 675 OFFCURVE",
"50 627 OFFCURVE",
"50 550 CURVE SMOOTH",
"50 500 OFFCURVE",
"67 462 OFFCURVE",
"97 462 CURVE SMOOTH"
);
}
);
width = 168;
},
{
layerId = "37E1EBAF-DBB8-42B6-8B14-41DF5B276D12";
paths = (
{
closed = 1;
nodes = (
"123 480 OFFCURVE",
"133 495 OFFCURVE",
"133 509 CURVE SMOOTH",
"133 540 OFFCURVE",
"85 547 OFFCURVE",
"85 584 CURVE SMOOTH",
"85 612 OFFCURVE",
"113 677 OFFCURVE",
"172 694 CURVE",
"172 714 LINE",
"90 689 OFFCURVE",
"55 620 OFFCURVE",
"55 553 CURVE SMOOTH",
"55 501 OFFCURVE",
"77 480 OFFCURVE",
"104 480 CURVE SMOOTH"
);
}
);
width = 212;
},
{
layerId = "BB318BD9-DEF5-4D27-998D-30B020A0DD4F";
paths = (
{
closed = 1;
nodes = (
"138 435 OFFCURVE",
"161 455 OFFCURVE",
"161 493 CURVE SMOOTH",
"161 552 OFFCURVE",
"103 543 OFFCURVE",
"103 583 CURVE",
"103 622 OFFCURVE",
"127 653 OFFCURVE",
"177 674 CURVE",
"177 715 LINE",
"81 680 OFFCURVE",
"44 604 OFFCURVE",
"44 519 CURVE SMOOTH",
"44 464 OFFCURVE",
"72 435 OFFCURVE",
"108 435 CURVE SMOOTH"
);
}
);
width = 205;
}
);
leftKerningGroup = quoteleft;
rightKerningGroup = quoteleft;
unicode = 2018;
subCategory = Quote;
},
{
glyphname = quoteright;
lastChange = "2017-12-14 20:43:12 +0000";
layers = (
{
layerId = "33F44B55-ADBD-4698-98EB-0F29A0B3A069";
paths = (
{
closed = 1;
nodes = (
"194 426 OFFCURVE",
"246 502 OFFCURVE",
"246 587 CURVE SMOOTH",
"246 664 OFFCURVE",
"210 714 OFFCURVE",
"143 714 CURVE SMOOTH",
"99 714 OFFCURVE",
"66 688 OFFCURVE",
"66 638 CURVE SMOOTH",
"66 544 OFFCURVE",
"139 556 OFFCURVE",
"139 520 CURVE",
"139 481 OFFCURVE",
"109 471 OFFCURVE",
"56 450 CURVE",
"56 391 LINE"
);
}
);
width = 302;
},
{
layerId = "88BEB7F0-7448-46FF-842C-45A92B9492CE";
paths = (
{
closed = 1;
nodes = (
"149 466 OFFCURVE",
"194 542 OFFCURVE",
"194 627 CURVE SMOOTH",
"194 683 OFFCURVE",
"158 714 OFFCURVE",
"117 714 CURVE SMOOTH",
"80 714 OFFCURVE",
"52 693 OFFCURVE",
"52 655 CURVE SMOOTH",
"52 594 OFFCURVE",
"125 603 OFFCURVE",
"125 563 CURVE",
"125 524 OFFCURVE",
"95 494 OFFCURVE",
"30 473 CURVE",
"30 431 LINE"
);
}
);
width = 250;
},
{
layerId = "2845A654-27C0-4D24-8E0C-7DAF9BC7668A";
paths = (
{
closed = 1;
nodes = (
"162 437 OFFCURVE",
"205 513 OFFCURVE",
"205 598 CURVE SMOOTH",
"205 669 OFFCURVE",
"175 714 OFFCURVE",
"119 714 CURVE SMOOTH",
"83 714 OFFCURVE",
"55 689 OFFCURVE",
"55 643 CURVE SMOOTH",
"55 557 OFFCURVE",
"116 569 OFFCURVE",
"116 532 CURVE",
"116 493 OFFCURVE",
"91 477 OFFCURVE",
"47 456 CURVE",
"47 402 LINE"
);
}
);
width = 252;
},
{
layerId = "1DC75306-0750-4696-AEC7-032F44743549";
paths = (
{
closed = 1;
nodes = (
"95 501 OFFCURVE",
"118 549 OFFCURVE",
"118 626 CURVE SMOOTH",
"118 676 OFFCURVE",
"101 714 OFFCURVE",
"71 714 CURVE SMOOTH",
"51 714 OFFCURVE",
"41 700 OFFCURVE",
"41 687 CURVE SMOOTH",
"41 650 OFFCURVE",
"86 652 OFFCURVE",
"86 593 CURVE SMOOTH",
"86 558 OFFCURVE",
"72 517 OFFCURVE",
"12 488 CURVE",
"12 462 LINE"
);
}
);
width = 168;
},
{
layerId = "37E1EBAF-DBB8-42B6-8B14-41DF5B276D12";
paths = (
{
closed = 1;
nodes = (
"121 505 OFFCURVE",
"156 574 OFFCURVE",
"156 641 CURVE SMOOTH",
"156 693 OFFCURVE",
"134 714 OFFCURVE",
"107 714 CURVE SMOOTH",
"88 714 OFFCURVE",
"78 699 OFFCURVE",
"78 685 CURVE SMOOTH",
"78 654 OFFCURVE",
"126 647 OFFCURVE",
"126 610 CURVE SMOOTH",
"126 582 OFFCURVE",
"98 517 OFFCURVE",
"39 500 CURVE",
"39 480 LINE"
);
}
);
width = 212;
},
{
layerId = "BB318BD9-DEF5-4D27-998D-30B020A0DD4F";
paths = (
{
closed = 1;
nodes = (
"123 469 OFFCURVE",
"160 545 OFFCURVE",
"160 630 CURVE SMOOTH",
"160 684 OFFCURVE",
"132 714 OFFCURVE",
"96 714 CURVE SMOOTH",
"66 714 OFFCURVE",
"43 693 OFFCURVE",
"43 656 CURVE SMOOTH",
"43 596 OFFCURVE",
"101 606 OFFCURVE",
"101 566 CURVE",
"101 527 OFFCURVE",
"76 495 OFFCURVE",
"27 474 CURVE",
"27 434 LINE"
);
}
);
width = 205;
}
);
leftKerningGroup = quoteright;
rightKerningGroup = quoteright;
unicode = 2019;
subCategory = Quote;
},
{
glyphname = quotedblleft;
lastChange = "2017-12-14 20:43:12 +0000";
layers = (
{
layerId = "33F44B55-ADBD-4698-98EB-0F29A0B3A069";
paths = (
{
closed = 1;
nodes = (
"419 390 OFFCURVE",
"452 417 OFFCURVE",
"452 467 CURVE SMOOTH",
"452 561 OFFCURVE",
"379 548 OFFCURVE",
"379 585 CURVE",
"379 624 OFFCURVE",
"409 633 OFFCURVE",
"462 654 CURVE",
"462 713 LINE",
"324 678 OFFCURVE",
"272 602 OFFCURVE",
"272 517 CURVE SMOOTH",
"272 440 OFFCURVE",
"308 390 OFFCURVE",
"375 390 CURVE SMOOTH"
);
},
{
closed = 1;
nodes = (
"203 390 OFFCURVE",
"236 417 OFFCURVE",
"236 467 CURVE SMOOTH",
"236 561 OFFCURVE",
"163 548 OFFCURVE",
"163 585 CURVE",
"163 624 OFFCURVE",
"193 633 OFFCURVE",
"246 654 CURVE",
"246 713 LINE",
"108 678 OFFCURVE",
"56 602 OFFCURVE",
"56 517 CURVE SMOOTH",
"56 440 OFFCURVE",
"92 390 OFFCURVE",
"159 390 CURVE SMOOTH"
);
}
);
width = 518;
},
{
layerId = "88BEB7F0-7448-46FF-842C-45A92B9492CE";
paths = (
{
closed = 1;
nodes = (
"370 432 OFFCURVE",
"398 453 OFFCURVE",
"398 491 CURVE SMOOTH",
"398 552 OFFCURVE",
"325 543 OFFCURVE",
"325 583 CURVE",
"325 622 OFFCURVE",
"355 652 OFFCURVE",
"420 673 CURVE",
"420 715 LINE",
"301 680 OFFCURVE",
"256 604 OFFCURVE",
"256 519 CURVE SMOOTH",
"256 463 OFFCURVE",
"292 432 OFFCURVE",
"333 432 CURVE SMOOTH"
);
},
{
closed = 1;
nodes = (
"170 432 OFFCURVE",
"198 453 OFFCURVE",
"198 491 CURVE SMOOTH",
"198 552 OFFCURVE",
"125 543 OFFCURVE",
"125 583 CURVE",
"125 622 OFFCURVE",
"155 652 OFFCURVE",
"220 673 CURVE",
"220 715 LINE",
"101 680 OFFCURVE",
"56 604 OFFCURVE",
"56 519 CURVE SMOOTH",
"56 463 OFFCURVE",
"92 432 OFFCURVE",
"133 432 CURVE SMOOTH"
);
}
);
width = 450;
},
{
layerId = "2845A654-27C0-4D24-8E0C-7DAF9BC7668A";
paths = (
{
closed = 1;
nodes = (
"351 401 OFFCURVE",
"378 427 OFFCURVE",
"378 474 CURVE SMOOTH",
"378 559 OFFCURVE",
"317 547 OFFCURVE",
"317 584 CURVE",
"317 623 OFFCURVE",
"342 638 OFFCURVE",
"387 659 CURVE",
"387 714 LINE",
"271 679 OFFCURVE",
"228 603 OFFCURVE",
"228 518 CURVE SMOOTH",
"228 446 OFFCURVE",
"258 401 OFFCURVE",
"314 401 CURVE SMOOTH"
);
},
{
closed = 1;
nodes = (
"169 401 OFFCURVE",
"197 427 OFFCURVE",
"197 474 CURVE SMOOTH",
"197 559 OFFCURVE",
"136 547 OFFCURVE",
"136 584 CURVE",
"136 623 OFFCURVE",
"161 638 OFFCURVE",
"205 659 CURVE",
"205 714 LINE",
"90 679 OFFCURVE",
"46 603 OFFCURVE",
"46 518 CURVE SMOOTH",
"46 446 OFFCURVE",
"76 401 OFFCURVE",
"132 401 CURVE SMOOTH"
);
}
);
width = 432;
},
{
layerId = "1DC75306-0750-4696-AEC7-032F44743549";
paths = (
{
closed = 1;
nodes = (
"233 462 OFFCURVE",
"243 476 OFFCURVE",
"243 489 CURVE SMOOTH",
"243 526 OFFCURVE",
"198 524 OFFCURVE",
"198 583 CURVE SMOOTH",
"198 618 OFFCURVE",
"212 659 OFFCURVE",
"272 688 CURVE",
"272 717 LINE",
"189 675 OFFCURVE",
"166 627 OFFCURVE",
"166 550 CURVE SMOOTH",
"166 500 OFFCURVE",
"183 462 OFFCURVE",
"213 462 CURVE SMOOTH"
);
},
{
closed = 1;
nodes = (
"138 462 OFFCURVE",
"148 476 OFFCURVE",
"148 489 CURVE SMOOTH",
"148 526 OFFCURVE",
"103 524 OFFCURVE",
"103 583 CURVE SMOOTH",
"103 618 OFFCURVE",
"117 659 OFFCURVE",
"177 688 CURVE",
"177 717 LINE",
"94 675 OFFCURVE",
"71 627 OFFCURVE",
"71 550 CURVE SMOOTH",
"71 500 OFFCURVE",
"88 462 OFFCURVE",
"118 462 CURVE SMOOTH"
);
}
);
width = 312;
},
{
layerId = "37E1EBAF-DBB8-42B6-8B14-41DF5B276D12";
paths = (
{
closed = 1;
nodes = (
"277 480 OFFCURVE",
"287 495 OFFCURVE",
"287 509 CURVE SMOOTH",
"287 540 OFFCURVE",
"239 547 OFFCURVE",
"239 584 CURVE SMOOTH",
"239 612 OFFCURVE",
"267 677 OFFCURVE",
"326 694 CURVE",
"326 714 LINE",
"244 689 OFFCURVE",
"209 620 OFFCURVE",
"209 553 CURVE SMOOTH",
"209 501 OFFCURVE",
"231 480 OFFCURVE",
"258 480 CURVE SMOOTH"
);
},
{
closed = 1;
nodes = (
"122 480 OFFCURVE",
"132 495 OFFCURVE",
"132 509 CURVE SMOOTH",
"132 540 OFFCURVE",
"84 547 OFFCURVE",
"84 584 CURVE SMOOTH",
"84 612 OFFCURVE",
"112 677 OFFCURVE",
"171 694 CURVE",
"171 714 LINE",
"89 689 OFFCURVE",
"54 620 OFFCURVE",
"54 553 CURVE SMOOTH",
"54 501 OFFCURVE",
"76 480 OFFCURVE",
"103 480 CURVE SMOOTH"
);
}
);
width = 367;
},
{
layerId = "BB318BD9-DEF5-4D27-998D-30B020A0DD4F";
paths = (
{
closed = 1;
nodes = (
"283 435 OFFCURVE",
"306 455 OFFCURVE",
"306 493 CURVE SMOOTH",
"306 552 OFFCURVE",
"248 543 OFFCURVE",
"248 583 CURVE",
"248 622 OFFCURVE",
"272 653 OFFCURVE",
"322 674 CURVE",
"322 715 LINE",
"225 680 OFFCURVE",
"189 604 OFFCURVE",
"189 519 CURVE SMOOTH",
"189 464 OFFCURVE",
"217 435 OFFCURVE",
"253 435 CURVE SMOOTH"
);
},
{
closed = 1;
nodes = (
"154 435 OFFCURVE",
"177 455 OFFCURVE",
"177 493 CURVE SMOOTH",
"177 552 OFFCURVE",
"119 543 OFFCURVE",
"119 583 CURVE",
"119 622 OFFCURVE",
"143 653 OFFCURVE",
"193 674 CURVE",
"193 715 LINE",
"97 680 OFFCURVE",
"60 604 OFFCURVE",
"60 519 CURVE SMOOTH",
"60 464 OFFCURVE",
"88 435 OFFCURVE",
"125 435 CURVE SMOOTH"
);
}
);
width = 364;
}
);
leftKerningGroup = quoteleft;
rightKerningGroup = quoteleft;
unicode = 201C;
subCategory = Quote;
},
{
glyphname = quotedblright;
lastChange = "2017-12-14 20:43:12 +0000";
layers = (
{
layerId = "33F44B55-ADBD-4698-98EB-0F29A0B3A069";
paths = (
{
closed = 1;
nodes = (
"410 426 OFFCURVE",
"462 502 OFFCURVE",
"462 587 CURVE SMOOTH",
"462 664 OFFCURVE",
"426 714 OFFCURVE",
"359 714 CURVE SMOOTH",
"315 714 OFFCURVE",
"282 688 OFFCURVE",
"282 638 CURVE SMOOTH",
"282 544 OFFCURVE",
"355 556 OFFCURVE",
"355 520 CURVE",
"355 481 OFFCURVE",
"325 471 OFFCURVE",
"272 450 CURVE",
"272 391 LINE"
);
},
{
closed = 1;
nodes = (
"194 426 OFFCURVE",
"246 502 OFFCURVE",
"246 587 CURVE SMOOTH",
"246 664 OFFCURVE",
"210 714 OFFCURVE",
"143 714 CURVE SMOOTH",
"99 714 OFFCURVE",
"66 688 OFFCURVE",
"66 638 CURVE SMOOTH",
"66 544 OFFCURVE",
"139 556 OFFCURVE",
"139 520 CURVE",
"139 481 OFFCURVE",
"109 471 OFFCURVE",
"56 450 CURVE",
"56 391 LINE"
);
}
);
width = 518;
},
{
layerId = "88BEB7F0-7448-46FF-842C-45A92B9492CE";
paths = (
{
closed = 1;
nodes = (
"349 466 OFFCURVE",
"394 542 OFFCURVE",
"394 627 CURVE SMOOTH",
"394 683 OFFCURVE",
"358 714 OFFCURVE",
"317 714 CURVE SMOOTH",
"280 714 OFFCURVE",
"252 693 OFFCURVE",
"252 655 CURVE SMOOTH",
"252 594 OFFCURVE",
"325 603 OFFCURVE",
"325 563 CURVE",
"325 524 OFFCURVE",
"295 494 OFFCURVE",
"230 473 CURVE",
"230 431 LINE"
);
},
{
closed = 1;
nodes = (
"149 466 OFFCURVE",
"194 542 OFFCURVE",
"194 627 CURVE SMOOTH",
"194 683 OFFCURVE",
"158 714 OFFCURVE",
"117 714 CURVE SMOOTH",
"80 714 OFFCURVE",
"52 693 OFFCURVE",
"52 655 CURVE SMOOTH",
"52 594 OFFCURVE",
"125 603 OFFCURVE",
"125 563 CURVE",
"125 524 OFFCURVE",
"95 494 OFFCURVE",
"30 473 CURVE",
"30 431 LINE"
);
}
);
width = 450;
},
{
layerId = "2845A654-27C0-4D24-8E0C-7DAF9BC7668A";
paths = (
{
closed = 1;
nodes = (
"343 437 OFFCURVE",
"387 513 OFFCURVE",
"387 598 CURVE SMOOTH",
"387 669 OFFCURVE",
"356 714 OFFCURVE",
"301 714 CURVE SMOOTH",
"264 714 OFFCURVE",
"236 689 OFFCURVE",
"236 643 CURVE SMOOTH",
"236 557 OFFCURVE",
"297 569 OFFCURVE",
"297 532 CURVE",
"297 493 OFFCURVE",
"272 477 OFFCURVE",
"228 456 CURVE",
"228 402 LINE"
);
},
{
closed = 1;
nodes = (
"162 437 OFFCURVE",
"205 513 OFFCURVE",
"205 598 CURVE SMOOTH",
"205 669 OFFCURVE",
"175 714 OFFCURVE",
"119 714 CURVE SMOOTH",
"82 714 OFFCURVE",
"55 689 OFFCURVE",
"55 643 CURVE SMOOTH",
"55 557 OFFCURVE",
"116 569 OFFCURVE",
"116 532 CURVE",
"116 493 OFFCURVE",
"91 477 OFFCURVE",
"46 456 CURVE",
"46 402 LINE"
);
}
);
width = 432;
},
{
layerId = "1DC75306-0750-4696-AEC7-032F44743549";
paths = (
{
closed = 1;
nodes = (
"218 501 OFFCURVE",
"241 549 OFFCURVE",
"241 626 CURVE SMOOTH",
"241 676 OFFCURVE",
"224 714 OFFCURVE",
"194 714 CURVE SMOOTH",
"174 714 OFFCURVE",
"164 700 OFFCURVE",
"164 687 CURVE SMOOTH",
"164 650 OFFCURVE",
"209 652 OFFCURVE",
"209 593 CURVE SMOOTH",
"209 558 OFFCURVE",
"195 517 OFFCURVE",
"135 488 CURVE",
"135 462 LINE"
);
},
{
closed = 1;
nodes = (
"124 501 OFFCURVE",
"147 549 OFFCURVE",
"147 626 CURVE SMOOTH",
"147 676 OFFCURVE",
"130 714 OFFCURVE",
"100 714 CURVE SMOOTH",
"80 714 OFFCURVE",
"70 700 OFFCURVE",
"70 687 CURVE SMOOTH",
"70 650 OFFCURVE",
"115 652 OFFCURVE",
"115 593 CURVE SMOOTH",
"115 558 OFFCURVE",
"101 517 OFFCURVE",
"41 488 CURVE",
"41 462 LINE"
);
}
);
width = 312;
},
{
layerId = "37E1EBAF-DBB8-42B6-8B14-41DF5B276D12";
paths = (
{
closed = 1;
nodes = (
"273 505 OFFCURVE",
"308 574 OFFCURVE",
"308 641 CURVE SMOOTH",
"308 693 OFFCURVE",
"286 714 OFFCURVE",
"259 714 CURVE SMOOTH",
"240 714 OFFCURVE",
"230 699 OFFCURVE",
"230 685 CURVE SMOOTH",
"230 654 OFFCURVE",
"278 647 OFFCURVE",
"278 610 CURVE SMOOTH",
"278 582 OFFCURVE",
"250 517 OFFCURVE",
"191 500 CURVE",
"191 480 LINE"
);
},
{
closed = 1;
nodes = (
"118 505 OFFCURVE",
"153 574 OFFCURVE",
"153 641 CURVE SMOOTH",
"153 693 OFFCURVE",
"131 714 OFFCURVE",
"104 714 CURVE SMOOTH",
"85 714 OFFCURVE",
"75 699 OFFCURVE",
"75 685 CURVE SMOOTH",
"75 654 OFFCURVE",
"123 647 OFFCURVE",
"123 610 CURVE SMOOTH",
"123 582 OFFCURVE",
"95 517 OFFCURVE",
"36 500 CURVE",
"36 480 LINE"
);
}
);
width = 367;
},
{
layerId = "BB318BD9-DEF5-4D27-998D-30B020A0DD4F";
paths = (
{
closed = 1;
nodes = (
"268 469 OFFCURVE",
"304 545 OFFCURVE",
"304 630 CURVE SMOOTH",
"304 684 OFFCURVE",
"276 714 OFFCURVE",
"240 714 CURVE SMOOTH",
"211 714 OFFCURVE",
"188 693 OFFCURVE",
"188 656 CURVE SMOOTH",
"188 596 OFFCURVE",
"245 606 OFFCURVE",
"245 566 CURVE",
"245 527 OFFCURVE",
"222 495 OFFCURVE",
"171 474 CURVE",
"171 434 LINE"
);
},
{
closed = 1;
nodes = (
"140 469 OFFCURVE",
"177 545 OFFCURVE",
"177 630 CURVE SMOOTH",
"177 684 OFFCURVE",
"148 714 OFFCURVE",
"112 714 CURVE SMOOTH",
"82 714 OFFCURVE",
"59 693 OFFCURVE",
"59 656 CURVE SMOOTH",
"59 596 OFFCURVE",
"117 606 OFFCURVE",
"117 566 CURVE",
"117 527 OFFCURVE",
"93 495 OFFCURVE",
"43 474 CURVE",
"43 434 LINE"
);
}
);
width = 364;
}
);
leftKerningGroup = quoteright;
rightKerningGroup = quoteright;
unicode = 201D;
subCategory = Quote;
},
{
glyphname = uni1780;
lastChange = "2017-12-14 20:43:12 +0000";
layers = (
{
anchors = (
{
name = abvm;
position = "{320, 760}";
},
{
name = abvm_high;
position = "{320, 728}";
},
{
name = blwm;
position = "{309, 0}";
}
);
layerId = "37E1EBAF-DBB8-42B6-8B14-41DF5B276D12";
paths = (
{
closed = 1;
nodes = (
"498 398 OFFCURVE",
"413 459 OFFCURVE",
"309 459 CURVE SMOOTH",
"205 459 OFFCURVE",
"119 400 OFFCURVE",
"119 316 CURVE SMOOTH",
"119 0 LINE",
"145 0 LINE",
"145 321 LINE SMOOTH",
"145 381 OFFCURVE",
"217 433 OFFCURVE",
"309 433 CURVE SMOOTH",
"401 433 OFFCURVE",
"472 380 OFFCURVE",
"472 321 CURVE SMOOTH",
"472 0 LINE",
"498 0 LINE",
"498 316 LINE SMOOTH"
);
},
{
closed = 1;
nodes = (
"96 546 OFFCURVE",
"87 558 OFFCURVE",
"87 569 CURVE SMOOTH",
"87 581 OFFCURVE",
"98 594 OFFCURVE",
"127 619 CURVE SMOOTH",
"157 645 OFFCURVE",
"176 657 OFFCURVE",
"185 657 CURVE SMOOTH",
"195 657 OFFCURVE",
"212 638 OFFCURVE",
"233 615 CURVE SMOOTH",
"271 573 OFFCURVE",
"286 565 OFFCURVE",
"302 565 CURVE SMOOTH",
"325 565 OFFCURVE",
"347 582 OFFCURVE",
"363 595 CURVE SMOOTH",
"404 628 OFFCURVE",
"424 657 OFFCURVE",
"433 657 CURVE SMOOTH",
"448 657 OFFCURVE",
"517 544 OFFCURVE",
"549 544 CURVE SMOOTH",
"558 544 OFFCURVE",
"565 554 OFFCURVE",
"565 571 CURVE",
"546 571 OFFCURVE",
"533 583 OFFCURVE",
"515 605 CURVE SMOOTH",
"477 651 LINE SMOOTH",
"459 672 OFFCURVE",
"445 683 OFFCURVE",
"434 683 CURVE SMOOTH",
"417 683 OFFCURVE",
"390 652 OFFCURVE",
"357 624 CURVE SMOOTH",
"328 600 OFFCURVE",
"310 591 OFFCURVE",
"303 591 CURVE SMOOTH",
"294 591 OFFCURVE",
"277 608 OFFCURVE",
"249 636 CURVE SMOOTH",
"213 672 OFFCURVE",
"203 683 OFFCURVE",
"185 683 CURVE SMOOTH",
"167 683 OFFCURVE",
"148 671 OFFCURVE",
"112 639 CURVE SMOOTH",
"66 599 OFFCURVE",
"60 580 OFFCURVE",
"60 568 CURVE SMOOTH",
"60 556 OFFCURVE",
"68 538 OFFCURVE",
"120 481 CURVE",
"140 497 LINE"
);
}
);
width = 629;
},
{
anchors = (
{
name = abvm;
position = "{308, 760}";
},
{
name = abvm_high;
position = "{308, 728}";
},
{
name = blwm;
position = "{308, 0}";
}
);
layerId = "2845A654-27C0-4D24-8E0C-7DAF9BC7668A";
paths = (
{
closed = 1;
nodes = (
"530 398 OFFCURVE",
"427 459 OFFCURVE",
"308 459 CURVE SMOOTH",
"192 459 OFFCURVE",
"85 400 OFFCURVE",
"85 336 CURVE SMOOTH",
"85 0 LINE",
"235 0 LINE",
"235 281 LINE SMOOTH",
"235 336 OFFCURVE",
"257 357 OFFCURVE",
"308 357 CURVE SMOOTH",
"356 357 OFFCURVE",
"380 339 OFFCURVE",
"380 281 CURVE SMOOTH",
"380 0 LINE",
"530 0 LINE",
"530 336 LINE SMOOTH"
);
},
{
closed = 1;
nodes = (
"154 515 OFFCURVE",
"139 530 OFFCURVE",
"139 538 CURVE SMOOTH",
"139 543 OFFCURVE",
"143 548 OFFCURVE",
"146 551 CURVE SMOOTH",
"149 554 OFFCURVE",
"154 558 OFFCURVE",
"160 558 CURVE SMOOTH",
"164 558 OFFCURVE",
"167 555 OFFCURVE",
"187 537 CURVE SMOOTH",
"218 509 OFFCURVE",
"241 493 OFFCURVE",
"275 493 CURVE SMOOTH",
"304 493 OFFCURVE",
"327 504 OFFCURVE",
"351 522 CURVE SMOOTH",
"371 537 OFFCURVE",
"387 547 OFFCURVE",
"389 547 CURVE SMOOTH",
"407 547 OFFCURVE",
"435 491 OFFCURVE",
"487 491 CURVE SMOOTH",
"515 491 OFFCURVE",
"563 507 OFFCURVE",
"570 586 CURVE",
"535 581 OFFCURVE",
"512 595 OFFCURVE",
"493 616 CURVE SMOOTH",
"467 646 LINE SMOOTH",
"440 678 OFFCURVE",
"426 685 OFFCURVE",
"416 685 CURVE SMOOTH",
"404 685 OFFCURVE",
"381 664 OFFCURVE",
"349 632 CURVE SMOOTH",
"319 602 OFFCURVE",
"309 592 OFFCURVE",
"299 592 CURVE SMOOTH",
"292 592 OFFCURVE",
"283 601 OFFCURVE",
"246 640 CURVE SMOOTH",
"214 674 OFFCURVE",
"198 686 OFFCURVE",
"185 686 CURVE SMOOTH",
"171 686 OFFCURVE",
"144 672 OFFCURVE",
"102 632 CURVE SMOOTH",
"44 577 OFFCURVE",
"40 545 OFFCURVE",
"40 524 CURVE SMOOTH",
"40 481 OFFCURVE",
"58 454 OFFCURVE",
"92 424 CURVE",
"184 484 LINE"
);
}
);
width = 630;
},
{
anchors = (
{
name = abvm;
position = "{320, 760}";
},
{
name = abvm_high;
position = "{320, 728}";
},
{
name = blwm;
position = "{320, 0}";
}
);
layerId = "88BEB7F0-7448-46FF-842C-45A92B9492CE";
paths = (
{
closed = 1;
nodes = (
"542 390 OFFCURVE",
"444 459 OFFCURVE",
"320 459 CURVE SMOOTH",
"199 459 OFFCURVE",
"98 392 OFFCURVE",
"98 316 CURVE SMOOTH",
"98 0 LINE",
"190 0 LINE",
"190 316 LINE SMOOTH",
"190 355 OFFCURVE",
"246 392 OFFCURVE",
"321 392 CURVE SMOOTH",
"392 392 OFFCURVE",
"450 356 OFFCURVE",
"450 316 CURVE SMOOTH",
"450 0 LINE",
"542 0 LINE",
"542 316 LINE SMOOTH"
);
},
{
closed = 1;
nodes = (
"141 498 OFFCURVE",
"126 515 OFFCURVE",
"126 536 CURVE SMOOTH",
"126 552 OFFCURVE",
"134 564 OFFCURVE",
"143 573 CURVE SMOOTH",
"152 583 OFFCURVE",
"162 589 OFFCURVE",
"173 589 CURVE SMOOTH",
"187 589 OFFCURVE",
"200 580 OFFCURVE",
"230 557 CURVE SMOOTH",
"261 533 OFFCURVE",
"279 519 OFFCURVE",
"299 519 CURVE SMOOTH",
"320 519 OFFCURVE",
"343 531 OFFCURVE",
"368 552 CURVE SMOOTH",
"388 569 OFFCURVE",
"404 588 OFFCURVE",
"422 588 CURVE SMOOTH",
"456 588 OFFCURVE",
"477 519 OFFCURVE",
"529 519 CURVE SMOOTH",
"551 519 OFFCURVE",
"578 531 OFFCURVE",
"591 585 CURVE",
"559 583 OFFCURVE",
"539 590 OFFCURVE",
"521 608 CURVE SMOOTH",
"481 648 LINE SMOOTH",
"454 675 OFFCURVE",
"440 683 OFFCURVE",
"431 683 CURVE SMOOTH",
"417 683 OFFCURVE",
"396 664 OFFCURVE",
"366 636 CURVE SMOOTH",
"340 611 OFFCURVE",
"323 596 OFFCURVE",
"310 596 CURVE SMOOTH",
"297 596 OFFCURVE",
"279 611 OFFCURVE",
"258 631 CURVE SMOOTH",
"221 666 OFFCURVE",
"201 685 OFFCURVE",
"186 685 CURVE SMOOTH",
"170 685 OFFCURVE",
"146 666 OFFCURVE",
"119 643 CURVE SMOOTH",
"60 592 OFFCURVE",
"43 565 OFFCURVE",
"43 533 CURVE SMOOTH",
"43 493 OFFCURVE",
"70 461 OFFCURVE",
"102 430 CURVE",
"175 473 LINE"
);
}
);
width = 633;
},
{
anchors = (
{
name = abvm;
position = "{350, 760}";
},
{
name = abvm_high;
position = "{350, 728}";
},
{
name = blwm;
position = "{350, 0}";
}
);
layerId = "33F44B55-ADBD-4698-98EB-0F29A0B3A069";
paths = (
{
closed = 1;
nodes = (
"617 399 OFFCURVE",
"493 459 OFFCURVE",
"349 459 CURVE SMOOTH",
"210 459 OFFCURVE",
"83 400 OFFCURVE",
"83 336 CURVE SMOOTH",
"83 0 LINE",
"263 0 LINE",
"263 281 LINE SMOOTH",
"263 337 OFFCURVE",
"291 357 OFFCURVE",
"351 357 CURVE SMOOTH",
"407 357 OFFCURVE",
"437 338 OFFCURVE",
"437 281 CURVE SMOOTH",
"437 0 LINE",
"617 0 LINE",
"617 336 LINE SMOOTH"
);
},
{
closed = 1;
nodes = (
"170 513 OFFCURVE",
"152 528 OFFCURVE",
"152 538 CURVE SMOOTH",
"152 543 OFFCURVE",
"156 548 OFFCURVE",
"160 552 CURVE SMOOTH",
"164 556 OFFCURVE",
"168 558 OFFCURVE",
"173 558 CURVE SMOOTH",
"177 558 OFFCURVE",
"182 554 OFFCURVE",
"195 543 CURVE SMOOTH",
"231 510 OFFCURVE",
"265 493 OFFCURVE",
"307 493 CURVE SMOOTH",
"341 493 OFFCURVE",
"373 505 OFFCURVE",
"406 524 CURVE SMOOTH",
"427 536 OFFCURVE",
"439 547 OFFCURVE",
"448 547 CURVE SMOOTH",
"470 547 OFFCURVE",
"499 491 OFFCURVE",
"557 491 CURVE SMOOTH",
"596 491 OFFCURVE",
"649 517 OFFCURVE",
"666 586 CURVE",
"632 582 OFFCURVE",
"608 585 OFFCURVE",
"574 616 CURVE SMOOTH",
"542 646 LINE SMOOTH",
"509 677 OFFCURVE",
"493 685 OFFCURVE",
"481 685 CURVE SMOOTH",
"466 685 OFFCURVE",
"439 663 OFFCURVE",
"401 632 CURVE SMOOTH",
"365 602 OFFCURVE",
"353 592 OFFCURVE",
"341 592 CURVE SMOOTH",
"331 592 OFFCURVE",
"321 601 OFFCURVE",
"277 640 CURVE SMOOTH",
"239 674 OFFCURVE",
"220 686 OFFCURVE",
"204 686 CURVE SMOOTH",
"187 686 OFFCURVE",
"155 672 OFFCURVE",
"103 631 CURVE SMOOTH",
"35 577 OFFCURVE",
"30 542 OFFCURVE",
"30 521 CURVE SMOOTH",
"30 478 OFFCURVE",
"56 449 OFFCURVE",
"96 419 CURVE",
"203 484 LINE"
);
}
);
width = 696;
},
{
anchors = (
{
name = abvm;
position = "{271, 760}";
},
{
name = abvm_high;
position = "{271, 728}";
},
{
name = blwm;
position = "{271, 0}";
}
);
layerId = "1DC75306-0750-4696-AEC7-032F44743549";
paths = (
{
closed = 1;
nodes = (
"430 388 OFFCURVE",
"358 459 OFFCURVE",
"271 459 CURVE SMOOTH",
"182 459 OFFCURVE",
"111 390 OFFCURVE",
"111 316 CURVE SMOOTH",
"111 0 LINE",
"137 0 LINE",
"137 321 LINE SMOOTH",
"137 377 OFFCURVE",
"195 433 OFFCURVE",
"271 433 CURVE SMOOTH",
"340 433 OFFCURVE",
"404 376 OFFCURVE",
"404 321 CURVE SMOOTH",
"404 0 LINE",
"430 0 LINE",
"430 316 LINE SMOOTH"
);
},
{
closed = 1;
nodes = (
"83 539 OFFCURVE",
"77 554 OFFCURVE",
"77 562 CURVE SMOOTH",
"77 578 OFFCURVE",
"95 602 OFFCURVE",
"112 621 CURVE SMOOTH",
"130 641 OFFCURVE",
"149 660 OFFCURVE",
"162 660 CURVE SMOOTH",
"172 660 OFFCURVE",
"186 641 OFFCURVE",
"207 613 CURVE SMOOTH",
"229 584 OFFCURVE",
"245 566 OFFCURVE",
"265 566 CURVE SMOOTH",
"279 566 OFFCURVE",
"296 574 OFFCURVE",
"326 608 CURVE SMOOTH",
"351 636 OFFCURVE",
"365 660 OFFCURVE",
"373 660 CURVE SMOOTH",
"388 660 OFFCURVE",
"455 545 OFFCURVE",
"480 545 CURVE SMOOTH",
"488 545 OFFCURVE",
"498 552 OFFCURVE",
"498 569 CURVE",
"483 569 OFFCURVE",
"472 580 OFFCURVE",
"460 595 CURVE SMOOTH",
"415 653 LINE SMOOTH",
"398 674 OFFCURVE",
"388 686 OFFCURVE",
"376 686 CURVE SMOOTH",
"361 686 OFFCURVE",
"353 678 OFFCURVE",
"311 630 CURVE SMOOTH",
"287 602 OFFCURVE",
"272 592 OFFCURVE",
"265 592 CURVE SMOOTH",
"255 592 OFFCURVE",
"243 608 OFFCURVE",
"220 639 CURVE SMOOTH",
"192 676 OFFCURVE",
"179 686 OFFCURVE",
"163 686 CURVE SMOOTH",
"155 686 OFFCURVE",
"134 685 OFFCURVE",
"90 635 CURVE SMOOTH",
"50 589 OFFCURVE",
"50 573 OFFCURVE",
"50 562 CURVE SMOOTH",
"50 549 OFFCURVE",
"57 532 OFFCURVE",
"101 473 CURVE",
"120 491 LINE"
);
}
);
width = 552;
},
{
anchors = (
{
name = abvm;
position = "{274, 760}";
},
{
name = abvm_high;
position = "{274, 728}";
},
{
name = blwm;
position = "{274, 0}";
}
);
layerId = "BB318BD9-DEF5-4D27-998D-30B020A0DD4F";
paths = (
{
closed = 1;
nodes = (
"459 390 OFFCURVE",
"379 459 OFFCURVE",
"274 459 CURVE SMOOTH",
"172 459 OFFCURVE",
"89 392 OFFCURVE",
"89 316 CURVE SMOOTH",
"89 0 LINE",
"166 0 LINE",
"166 316 LINE SMOOTH",
"166 354 OFFCURVE",
"211 392 OFFCURVE",
"274 392 CURVE SMOOTH",
"334 392 OFFCURVE",
"382 356 OFFCURVE",
"382 316 CURVE SMOOTH",
"382 0 LINE",
"459 0 LINE",
"459 316 LINE SMOOTH"
);
},
{
closed = 1;
nodes = (
"123 497 OFFCURVE",
"112 510 OFFCURVE",
"112 536 CURVE SMOOTH",
"112 553 OFFCURVE",
"116 564 OFFCURVE",
"123 574 CURVE SMOOTH",
"131 585 OFFCURVE",
"141 590 OFFCURVE",
"151 590 CURVE SMOOTH",
"162 590 OFFCURVE",
"172 583 OFFCURVE",
"197 558 CURVE SMOOTH",
"222 533 OFFCURVE",
"237 520 OFFCURVE",
"255 520 CURVE SMOOTH",
"272 520 OFFCURVE",
"291 532 OFFCURVE",
"312 553 CURVE SMOOTH",
"329 570 OFFCURVE",
"347 588 OFFCURVE",
"357 588 CURVE SMOOTH",
"386 588 OFFCURVE",
"404 520 OFFCURVE",
"448 520 CURVE SMOOTH",
"466 520 OFFCURVE",
"496 532 OFFCURVE",
"498 586 CURVE",
"474 583 OFFCURVE",
"452 591 OFFCURVE",
"440 606 CURVE SMOOTH",
"407 649 LINE SMOOTH",
"386 677 OFFCURVE",
"372 685 OFFCURVE",
"364 685 CURVE SMOOTH",
"354 685 OFFCURVE",
"336 665 OFFCURVE",
"311 637 CURVE SMOOTH",
"289 612 OFFCURVE",
"275 598 OFFCURVE",
"264 598 CURVE SMOOTH",
"253 598 OFFCURVE",
"238 612 OFFCURVE",
"221 632 CURVE SMOOTH",
"191 668 OFFCURVE",
"173 686 OFFCURVE",
"162 686 CURVE SMOOTH",
"147 686 OFFCURVE",
"122 660 OFFCURVE",
"85 618 CURVE SMOOTH",
"54 582 OFFCURVE",
"44 555 OFFCURVE",
"44 525 CURVE SMOOTH",
"44 478 OFFCURVE",
"67 453 OFFCURVE",
"107 426 CURVE",
"159 471 LINE"
);
}
);
width = 542;
}
);
unicode = 1780;
},
{
glyphname = uni1781;
lastChange = "2017-12-14 20:43:12 +0000";
layers = (
{
anchors = (
{
name = abvm;
position = "{343, 760}";
},
{
name = blwm;
position = "{342, 0}";
}
);
layerId = "88BEB7F0-7448-46FF-842C-45A92B9492CE";
paths = (
{
closed = 1;
nodes = (
"202 514 LINE",
"202 536 LINE SMOOTH",
"202 576 OFFCURVE",
"261 615 OFFCURVE",
"341 615 CURVE SMOOTH",
"420 615 OFFCURVE",
"482 579 OFFCURVE",
"482 536 CURVE SMOOTH",
"482 463 LINE SMOOTH",
"482 428 OFFCURVE",
"436 386 OFFCURVE",
"342 338 CURVE SMOOTH",
"110 219 LINE",
"110 146 LINE SMOOTH",
"110 70 OFFCURVE",
"212 0 OFFCURVE",
"342 0 CURVE SMOOTH",
"469 0 OFFCURVE",
"574 68 OFFCURVE",
"574 146 CURVE SMOOTH",
"574 292 LINE",
"482 243 LINE",
"482 146 LINE SMOOTH",
"482 106 OFFCURVE",
"422 67 OFFCURVE",
"342 67 CURVE SMOOTH",
"264 67 OFFCURVE",
"202 104 OFFCURVE",
"202 146 CURVE SMOOTH",
"202 187 LINE",
"388 283 LINE SMOOTH",
"512 347 OFFCURVE",
"574 407 OFFCURVE",
"574 463 CURVE SMOOTH",
"574 536 LINE SMOOTH",
"574 612 OFFCURVE",
"472 682 OFFCURVE",
"341 682 CURVE SMOOTH",
"214 682 OFFCURVE",
"110 614 OFFCURVE",
"110 536 CURVE SMOOTH",
"110 514 LINE"
);
},
{
closed = 1;
nodes = (
"110 526 LINE",
"110 407 LINE SMOOTH",
"110 374 OFFCURVE",
"138 355 OFFCURVE",
"188 355 CURVE SMOOTH",
"247 355 OFFCURVE",
"284 382 OFFCURVE",
"284 436 CURVE SMOOTH",
"284 487 OFFCURVE",
"250 509 OFFCURVE",
"202 509 CURVE",
"202 526 LINE"
);
},
{
closed = 1;
nodes = (
"222 470 OFFCURVE",
"235 459 OFFCURVE",
"235 435 CURVE SMOOTH",
"235 411 OFFCURVE",
"222 396 OFFCURVE",
"202 396 CURVE",
"202 470 LINE"
);
}
);
width = 664;
},
{
anchors = (
{
name = abvm;
position = "{319, 760}";
},
{
name = blwm;
position = "{320, 0}";
}
);
layerId = "37E1EBAF-DBB8-42B6-8B14-41DF5B276D12";
paths = (
{
closed = 1;
nodes = (
"146 512 LINE",
"146 549 LINE SMOOTH",
"146 602 OFFCURVE",
"217 656 OFFCURVE",
"320 656 CURVE SMOOTH",
"420 656 OFFCURVE",
"494 604 OFFCURVE",
"494 549 CURVE SMOOTH",
"494 463 LINE SMOOTH",
"494 437 OFFCURVE",
"436 397 OFFCURVE",
"320 338 CURVE SMOOTH",
"120 235 LINE",
"120 125 LINE SMOOTH",
"120 63 OFFCURVE",
"208 0 OFFCURVE",
"320 0 CURVE SMOOTH",
"432 0 OFFCURVE",
"520 61 OFFCURVE",
"520 125 CURVE SMOOTH",
"520 287 LINE",
"494 272 LINE",
"494 129 LINE SMOOTH",
"494 76 OFFCURVE",
"420 26 OFFCURVE",
"320 26 CURVE SMOOTH",
"220 26 OFFCURVE",
"146 75 OFFCURVE",
"146 129 CURVE SMOOTH",
"146 219 LINE",
"366 333 LINE SMOOTH",
"468 386 OFFCURVE",
"520 421 OFFCURVE",
"520 476 CURVE SMOOTH",
"520 556 LINE SMOOTH",
"520 620 OFFCURVE",
"432 682 OFFCURVE",
"320 682 CURVE SMOOTH",
"210 682 OFFCURVE",
"120 620 OFFCURVE",
"120 556 CURVE SMOOTH",
"120 512 LINE"
);
},
{
closed = 1;
nodes = (
"120 536 LINE",
"120 397 LINE SMOOTH",
"120 377 OFFCURVE",
"134 372 OFFCURVE",
"147 372 CURVE SMOOTH",
"178 372 OFFCURVE",
"217 401 OFFCURVE",
"217 452 CURVE SMOOTH",
"217 502 OFFCURVE",
"179 528 OFFCURVE",
"146 528 CURVE",
"146 536 LINE"
);
},
{
closed = 1;
nodes = (
"166 502 OFFCURVE",
"191 487 OFFCURVE",
"191 453 CURVE SMOOTH",
"191 428 OFFCURVE",
"177 400 OFFCURVE",
"146 398 CURVE",
"146 502 LINE"
);
}
);
width = 650;
},
{
anchors = (
{
name = abvm;
position = "{356, 760}";
},
{
name = blwm;
position = "{357, 0}";
}
);
layerId = "33F44B55-ADBD-4698-98EB-0F29A0B3A069";
paths = (
{
closed = 1;
nodes = (
"262 531 LINE",
"262 534 LINE SMOOTH",
"262 562 OFFCURVE",
"296 580 OFFCURVE",
"357 580 CURVE SMOOTH",
"423 580 OFFCURVE",
"452 557 OFFCURVE",
"452 500 CURVE SMOOTH",
"452 463 LINE SMOOTH",
"452 415 OFFCURVE",
"422 381 OFFCURVE",
"357 348 CURVE SMOOTH",
"82 207 LINE",
"82 146 LINE SMOOTH",
"82 61 OFFCURVE",
"189 0 OFFCURVE",
"357 0 CURVE SMOOTH",
"523 0 OFFCURVE",
"632 60 OFFCURVE",
"632 146 CURVE SMOOTH",
"632 322 LINE",
"452 227 LINE",
"452 182 LINE SMOOTH",
"452 128 OFFCURVE",
"425 102 OFFCURVE",
"357 102 CURVE SMOOTH",
"292 102 OFFCURVE",
"262 125 OFFCURVE",
"262 182 CURVE SMOOTH",
"262 190 LINE",
"403 263 LINE SMOOTH",
"556 342 OFFCURVE",
"632 420 OFFCURVE",
"632 463 CURVE SMOOTH",
"632 536 LINE SMOOTH",
"632 621 OFFCURVE",
"526 682 OFFCURVE",
"356 682 CURVE SMOOTH",
"191 682 OFFCURVE",
"82 623 OFFCURVE",
"82 536 CURVE SMOOTH",
"82 531 LINE"
);
},
{
closed = 1;
nodes = (
"82 533 LINE",
"82 427 LINE SMOOTH",
"82 384 OFFCURVE",
"126 355 OFFCURVE",
"223 355 CURVE SMOOTH",
"312 355 OFFCURVE",
"367 381 OFFCURVE",
"367 451 CURVE SMOOTH",
"367 489 OFFCURVE",
"350 529 OFFCURVE",
"262 529 CURVE",
"262 533 LINE"
);
},
{
closed = 1;
nodes = (
"278 471 OFFCURVE",
"288 466 OFFCURVE",
"288 446 CURVE SMOOTH",
"288 429 OFFCURVE",
"280 421 OFFCURVE",
"262 421 CURVE",
"262 471 LINE"
);
}
);
width = 712;
},
{
anchors = (
{
name = abvm;
position = "{312, 760}";
},
{
name = blwm;
position = "{312, 0}";
}
);
layerId = "2845A654-27C0-4D24-8E0C-7DAF9BC7668A";
paths = (
{
closed = 1;
nodes = (
"234 531 LINE",
"234 534 LINE SMOOTH",
"234 562 OFFCURVE",
"262 580 OFFCURVE",
"313 580 CURVE SMOOTH",
"368 580 OFFCURVE",
"392 557 OFFCURVE",
"392 500 CURVE SMOOTH",
"392 463 LINE SMOOTH",
"392 415 OFFCURVE",
"367 381 OFFCURVE",
"313 348 CURVE SMOOTH",
"84 207 LINE",
"84 146 LINE SMOOTH",
"84 61 OFFCURVE",
"173 0 OFFCURVE",
"313 0 CURVE SMOOTH",
"452 0 OFFCURVE",
"542 60 OFFCURVE",
"542 146 CURVE SMOOTH",
"542 322 LINE",
"392 227 LINE",
"392 182 LINE SMOOTH",
"392 128 OFFCURVE",
"370 102 OFFCURVE",
"313 102 CURVE SMOOTH",
"259 102 OFFCURVE",
"234 125 OFFCURVE",
"234 182 CURVE SMOOTH",
"234 190 LINE",
"352 263 LINE SMOOTH",
"479 342 OFFCURVE",
"542 420 OFFCURVE",
"542 463 CURVE SMOOTH",
"542 536 LINE SMOOTH",
"542 621 OFFCURVE",
"454 682 OFFCURVE",
"312 682 CURVE SMOOTH",
"175 682 OFFCURVE",
"84 623 OFFCURVE",
"84 536 CURVE SMOOTH",
"84 531 LINE"
);
},
{
closed = 1;
nodes = (
"84 533 LINE",
"84 427 LINE SMOOTH",
"84 384 OFFCURVE",
"121 355 OFFCURVE",
"202 355 CURVE SMOOTH",
"276 355 OFFCURVE",
"322 381 OFFCURVE",
"322 451 CURVE SMOOTH",
"322 489 OFFCURVE",
"307 529 OFFCURVE",
"234 529 CURVE",
"234 533 LINE"
);
},
{
closed = 1;
nodes = (
"247 471 OFFCURVE",
"256 466 OFFCURVE",
"256 446 CURVE SMOOTH",
"256 429 OFFCURVE",
"249 421 OFFCURVE",
"234 421 CURVE",
"234 471 LINE"
);
}
);
width = 642;
},
{
anchors = (
{
name = abvm;
position = "{274, 760}";
},
{
name = blwm;
position = "{273, 0}";
}
);
layerId = "BB318BD9-DEF5-4D27-998D-30B020A0DD4F";
paths = (
{
closed = 1;
nodes = (
"157 514 LINE",
"157 536 LINE SMOOTH",
"157 576 OFFCURVE",
"206 615 OFFCURVE",
"273 615 CURVE SMOOTH",
"338 615 OFFCURVE",
"390 579 OFFCURVE",
"390 536 CURVE SMOOTH",
"390 463 LINE SMOOTH",
"390 428 OFFCURVE",
"352 386 OFFCURVE",
"273 338 CURVE SMOOTH",
"80 219 LINE",
"80 146 LINE SMOOTH",
"80 70 OFFCURVE",
"165 0 OFFCURVE",
"273 0 CURVE SMOOTH",
"379 0 OFFCURVE",
"467 68 OFFCURVE",
"467 146 CURVE SMOOTH",
"467 292 LINE",
"390 243 LINE",
"390 146 LINE SMOOTH",
"390 106 OFFCURVE",
"340 67 OFFCURVE",
"273 67 CURVE SMOOTH",
"208 67 OFFCURVE",
"157 104 OFFCURVE",
"157 146 CURVE SMOOTH",
"157 187 LINE",
"312 283 LINE SMOOTH",
"415 347 OFFCURVE",
"467 407 OFFCURVE",
"467 463 CURVE SMOOTH",
"467 536 LINE SMOOTH",
"467 612 OFFCURVE",
"382 682 OFFCURVE",
"273 682 CURVE SMOOTH",
"167 682 OFFCURVE",
"80 614 OFFCURVE",
"80 536 CURVE SMOOTH",
"80 514 LINE"
);
},
{
closed = 1;
nodes = (
"80 526 LINE",
"80 412 LINE SMOOTH",
"80 379 OFFCURVE",
"105 360 OFFCURVE",
"146 360 CURVE SMOOTH",
"196 360 OFFCURVE",
"222 388 OFFCURVE",
"222 438 CURVE SMOOTH",
"222 488 OFFCURVE",
"197 509 OFFCURVE",
"157 509 CURVE",
"157 526 LINE"
);
},
{
closed = 1;
nodes = (
"173 470 OFFCURVE",
"181 459 OFFCURVE",
"181 437 CURVE SMOOTH",
"181 416 OFFCURVE",
"173 401 OFFCURVE",
"157 401 CURVE",
"157 470 LINE"
);
}
);
width = 553;
},
{
anchors = (
{
name = abvm;
position = "{277, 760}";
},
{
name = blwm;
position = "{278, 0}";
}
);
layerId = "1DC75306-0750-4696-AEC7-032F44743549";
paths = (
{
closed = 1;
nodes = (
"136 512 LINE",
"136 549 LINE SMOOTH",
"136 602 OFFCURVE",
"207 656 OFFCURVE",
"280 656 CURVE SMOOTH",
"350 656 OFFCURVE",
"424 604 OFFCURVE",
"424 549 CURVE SMOOTH",
"424 463 LINE SMOOTH",
"424 437 OFFCURVE",
"368 392 OFFCURVE",
"280 338 CURVE SMOOTH",
"110 235 LINE",
"110 125 LINE SMOOTH",
"110 63 OFFCURVE",
"198 0 OFFCURVE",
"280 0 CURVE SMOOTH",
"362 0 OFFCURVE",
"450 61 OFFCURVE",
"450 125 CURVE SMOOTH",
"450 287 LINE",
"424 272 LINE",
"424 129 LINE SMOOTH",
"424 76 OFFCURVE",
"350 26 OFFCURVE",
"280 26 CURVE SMOOTH",
"210 26 OFFCURVE",
"136 75 OFFCURVE",
"136 129 CURVE SMOOTH",
"136 219 LINE",
"326 333 LINE SMOOTH",
"401 378 OFFCURVE",
"450 421 OFFCURVE",
"450 476 CURVE SMOOTH",
"450 556 LINE SMOOTH",
"450 620 OFFCURVE",
"362 682 OFFCURVE",
"280 682 CURVE SMOOTH",
"200 682 OFFCURVE",
"110 620 OFFCURVE",
"110 556 CURVE SMOOTH",
"110 512 LINE"
);
},
{
closed = 1;
nodes = (
"110 536 LINE",
"110 397 LINE SMOOTH",
"110 377 OFFCURVE",
"124 372 OFFCURVE",
"136 372 CURVE SMOOTH",
"163 372 OFFCURVE",
"202 401 OFFCURVE",
"202 452 CURVE SMOOTH",
"202 502 OFFCURVE",
"164 528 OFFCURVE",
"136 528 CURVE",
"136 536 LINE"
);
},
{
closed = 1;
nodes = (
"151 502 OFFCURVE",
"176 487 OFFCURVE",
"176 453 CURVE SMOOTH",
"176 428 OFFCURVE",
"162 400 OFFCURVE",
"136 398 CURVE",
"136 502 LINE"
);
}
);
width = 560;
}
);
note = uni1781;
unicode = 1781;
},
{
glyphname = uni1782;
lastChange = "2017-12-14 20:43:12 +0000";
layers = (
{
anchors = (
{
name = abvm;
position = "{320, 760}";
},
{
name = abvm_high;
position = "{320, 728}";
},
{
name = blwm;
position = "{320, 0}";
}
);
layerId = "88BEB7F0-7448-46FF-842C-45A92B9492CE";
paths = (
{
closed = 1;
nodes = (
"186 355 OFFCURVE",
"242 392 OFFCURVE",
"317 392 CURVE SMOOTH",
"388 392 OFFCURVE",
"446 356 OFFCURVE",
"446 316 CURVE SMOOTH",
"446 0 LINE",
"538 0 LINE",
"538 316 LINE SMOOTH",
"538 390 OFFCURVE",
"440 459 OFFCURVE",
"316 459 CURVE SMOOTH",
"195 459 OFFCURVE",
"94 392 OFFCURVE",
"94 316 CURVE SMOOTH",
"94 0 LINE",
"186 0 LINE",
"186 53 LINE",
"240 138 LINE SMOOTH",
"257 164 OFFCURVE",
"266 172 OFFCURVE",
"276 172 CURVE SMOOTH",
"289 172 OFFCURVE",
"291 159 OFFCURVE",
"314 159 CURVE SMOOTH",
"341 159 OFFCURVE",
"354 180 OFFCURVE",
"354 203 CURVE SMOOTH",
"354 231 OFFCURVE",
"334 244 OFFCURVE",
"304 244 CURVE SMOOTH",
"261 244 OFFCURVE",
"232 216 OFFCURVE",
"186 146 CURVE",
"186 316 LINE SMOOTH"
);
},
{
closed = 1;
nodes = (
"141 495 OFFCURVE",
"126 512 OFFCURVE",
"126 533 CURVE SMOOTH",
"126 549 OFFCURVE",
"134 561 OFFCURVE",
"143 570 CURVE SMOOTH",
"152 580 OFFCURVE",
"162 586 OFFCURVE",
"173 586 CURVE SMOOTH",
"187 586 OFFCURVE",
"200 577 OFFCURVE",
"230 554 CURVE SMOOTH",
"261 530 OFFCURVE",
"279 516 OFFCURVE",
"299 516 CURVE SMOOTH",
"320 516 OFFCURVE",
"343 528 OFFCURVE",
"368 549 CURVE SMOOTH",
"388 566 OFFCURVE",
"404 585 OFFCURVE",
"422 585 CURVE SMOOTH",
"456 585 OFFCURVE",
"477 516 OFFCURVE",
"529 516 CURVE SMOOTH",
"551 516 OFFCURVE",
"578 528 OFFCURVE",
"591 582 CURVE",
"559 580 OFFCURVE",
"539 587 OFFCURVE",
"521 605 CURVE SMOOTH",
"481 645 LINE SMOOTH",
"454 672 OFFCURVE",
"440 680 OFFCURVE",
"431 680 CURVE SMOOTH",
"417 680 OFFCURVE",
"396 661 OFFCURVE",
"366 633 CURVE SMOOTH",
"340 608 OFFCURVE",
"323 593 OFFCURVE",
"310 593 CURVE SMOOTH",
"297 593 OFFCURVE",
"279 608 OFFCURVE",
"258 628 CURVE SMOOTH",
"221 663 OFFCURVE",
"201 682 OFFCURVE",
"186 682 CURVE SMOOTH",
"170 682 OFFCURVE",
"146 663 OFFCURVE",
"119 640 CURVE SMOOTH",
"60 589 OFFCURVE",
"43 562 OFFCURVE",
"43 530 CURVE SMOOTH",
"43 490 OFFCURVE",
"70 458 OFFCURVE",
"102 427 CURVE",
"175 470 LINE"
);
}
);
width = 633;
},
{
anchors = (
{
name = abvm;
position = "{320, 760}";
},
{
name = abvm_high;
position = "{320, 728}";
},
{
name = blwm;
position = "{309, 0}";
}
);
layerId = "37E1EBAF-DBB8-42B6-8B14-41DF5B276D12";
paths = (
{
closed = 1;
nodes = (
"146 381 OFFCURVE",
"218 433 OFFCURVE",
"310 433 CURVE SMOOTH",
"402 433 OFFCURVE",
"473 380 OFFCURVE",
"473 321 CURVE SMOOTH",
"473 0 LINE",
"499 0 LINE",
"499 316 LINE SMOOTH",
"499 398 OFFCURVE",
"414 459 OFFCURVE",
"310 459 CURVE SMOOTH",
"206 459 OFFCURVE",
"120 400 OFFCURVE",
"120 316 CURVE SMOOTH",
"120 0 LINE",
"146 0 LINE",
"146 53 LINE",
"235 176 LINE SMOOTH",
"252 200 OFFCURVE",
"262 206 OFFCURVE",
"274 206 CURVE SMOOTH",
"288 206 OFFCURVE",
"289 198 OFFCURVE",
"301 198 CURVE SMOOTH",
"313 198 OFFCURVE",
"322 207 OFFCURVE",
"322 220 CURVE SMOOTH",
"322 233 OFFCURVE",
"313 244 OFFCURVE",
"290 244 CURVE SMOOTH",
"252 244 OFFCURVE",
"227 209 OFFCURVE",
"146 97 CURVE",
"146 321 LINE SMOOTH"
);
},
{
closed = 1;
nodes = (
"96 546 OFFCURVE",
"87 558 OFFCURVE",
"87 569 CURVE SMOOTH",
"87 581 OFFCURVE",
"98 594 OFFCURVE",
"127 619 CURVE SMOOTH",
"157 645 OFFCURVE",
"176 657 OFFCURVE",
"185 657 CURVE SMOOTH",
"195 657 OFFCURVE",
"212 638 OFFCURVE",
"233 615 CURVE SMOOTH",
"271 573 OFFCURVE",
"286 565 OFFCURVE",
"302 565 CURVE SMOOTH",
"325 565 OFFCURVE",
"347 582 OFFCURVE",
"363 595 CURVE SMOOTH",
"404 628 OFFCURVE",
"424 657 OFFCURVE",
"433 657 CURVE SMOOTH",
"448 657 OFFCURVE",
"517 544 OFFCURVE",
"549 544 CURVE SMOOTH",
"558 544 OFFCURVE",
"565 554 OFFCURVE",
"565 571 CURVE",
"546 571 OFFCURVE",
"533 583 OFFCURVE",
"515 605 CURVE SMOOTH",
"477 651 LINE SMOOTH",
"459 672 OFFCURVE",
"445 683 OFFCURVE",
"434 683 CURVE SMOOTH",
"417 683 OFFCURVE",
"390 652 OFFCURVE",
"357 624 CURVE SMOOTH",
"328 600 OFFCURVE",
"310 591 OFFCURVE",
"303 591 CURVE SMOOTH",
"294 591 OFFCURVE",
"277 608 OFFCURVE",
"249 636 CURVE SMOOTH",
"213 672 OFFCURVE",
"203 683 OFFCURVE",
"185 683 CURVE SMOOTH",
"167 683 OFFCURVE",
"148 671 OFFCURVE",
"112 639 CURVE SMOOTH",
"66 599 OFFCURVE",
"60 580 OFFCURVE",
"60 568 CURVE SMOOTH",
"60 556 OFFCURVE",
"68 538 OFFCURVE",
"120 481 CURVE",
"140 497 LINE"
);
}
);
width = 629;
},
{
anchors = (
{
name = abvm;
position = "{350, 760}";
},
{
name = abvm_high;
position = "{350, 728}";
},
{
name = blwm;
position = "{350, 0}";
}
);
layerId = "33F44B55-ADBD-4698-98EB-0F29A0B3A069";
paths = (
{
closed = 1;
nodes = (
"263 336 OFFCURVE",
"291 357 OFFCURVE",
"350 357 CURVE SMOOTH",
"406 357 OFFCURVE",
"437 339 OFFCURVE",
"437 281 CURVE SMOOTH",
"437 0 LINE",
"617 0 LINE",
"617 336 LINE SMOOTH",
"617 398 OFFCURVE",
"492 459 OFFCURVE",
"350 459 CURVE SMOOTH",
"211 459 OFFCURVE",
"83 400 OFFCURVE",
"83 336 CURVE SMOOTH",
"83 0 LINE",
"263 0 LINE",
"263 51 LINE",
"283 81 LINE SMOOTH",
"302 108 OFFCURVE",
"315 126 OFFCURVE",
"330 126 CURVE SMOOTH",
"339 126 OFFCURVE",
"350 120 OFFCURVE",
"363 120 CURVE SMOOTH",
"390 120 OFFCURVE",
"413 148 OFFCURVE",
"413 185 CURVE SMOOTH",
"413 224 OFFCURVE",
"386 249 OFFCURVE",
"347 249 CURVE SMOOTH",
"307 249 OFFCURVE",
"278 223 OFFCURVE",
"263 207 CURVE",
"263 281 LINE"
);
},
{
closed = 1;
nodes = (
"170 513 OFFCURVE",
"152 528 OFFCURVE",
"152 538 CURVE SMOOTH",
"152 543 OFFCURVE",
"156 548 OFFCURVE",
"160 552 CURVE SMOOTH",
"164 556 OFFCURVE",
"168 558 OFFCURVE",
"173 558 CURVE SMOOTH",
"177 558 OFFCURVE",
"182 554 OFFCURVE",
"195 543 CURVE SMOOTH",
"231 510 OFFCURVE",
"265 493 OFFCURVE",
"307 493 CURVE SMOOTH",
"341 493 OFFCURVE",
"373 505 OFFCURVE",
"406 524 CURVE SMOOTH",
"427 536 OFFCURVE",
"439 547 OFFCURVE",
"448 547 CURVE SMOOTH",
"470 547 OFFCURVE",
"499 491 OFFCURVE",
"557 491 CURVE SMOOTH",
"596 491 OFFCURVE",
"649 517 OFFCURVE",
"666 586 CURVE",
"632 582 OFFCURVE",
"608 585 OFFCURVE",
"574 616 CURVE SMOOTH",
"542 646 LINE SMOOTH",
"509 677 OFFCURVE",
"493 685 OFFCURVE",
"481 685 CURVE SMOOTH",
"466 685 OFFCURVE",
"439 663 OFFCURVE",
"401 632 CURVE SMOOTH",
"365 602 OFFCURVE",
"353 592 OFFCURVE",
"341 592 CURVE SMOOTH",
"331 592 OFFCURVE",
"321 601 OFFCURVE",
"277 640 CURVE SMOOTH",
"239 674 OFFCURVE",
"220 686 OFFCURVE",
"204 686 CURVE SMOOTH",
"187 686 OFFCURVE",
"155 672 OFFCURVE",
"103 631 CURVE SMOOTH",
"35 577 OFFCURVE",
"30 542 OFFCURVE",
"30 521 CURVE SMOOTH",
"30 478 OFFCURVE",
"56 449 OFFCURVE",
"96 419 CURVE",
"203 484 LINE"
);
}
);
width = 696;
},
{
anchors = (
{
name = abvm;
position = "{308, 760}";
},
{
name = abvm_high;
position = "{308, 728}";
},
{
name = blwm;
position = "{308, 0}";
}
);
layerId = "2845A654-27C0-4D24-8E0C-7DAF9BC7668A";
paths = (
{
closed = 1;
nodes = (
"228 336 OFFCURVE",
"250 357 OFFCURVE",
"301 357 CURVE SMOOTH",
"349 357 OFFCURVE",
"373 339 OFFCURVE",
"373 281 CURVE SMOOTH",
"373 0 LINE",
"523 0 LINE",
"523 336 LINE SMOOTH",
"523 398 OFFCURVE",
"420 459 OFFCURVE",
"301 459 CURVE SMOOTH",
"185 459 OFFCURVE",
"78 400 OFFCURVE",
"78 336 CURVE SMOOTH",
"78 0 LINE",
"228 0 LINE",
"228 51 LINE",
"243 81 LINE SMOOTH",
"257 109 OFFCURVE",
"265 124 OFFCURVE",
"277 124 CURVE SMOOTH",
"284 124 OFFCURVE",
"295 122 OFFCURVE",
"302 122 CURVE SMOOTH",
"326 122 OFFCURVE",
"356 148 OFFCURVE",
"356 187 CURVE SMOOTH",
"356 224 OFFCURVE",
"328 246 OFFCURVE",
"296 246 CURVE SMOOTH",
"261 246 OFFCURVE",
"238 219 OFFCURVE",
"228 204 CURVE",
"228 281 LINE SMOOTH"
);
},
{
closed = 1;
nodes = (
"154 515 OFFCURVE",
"139 530 OFFCURVE",
"139 538 CURVE SMOOTH",
"139 543 OFFCURVE",
"143 548 OFFCURVE",
"146 551 CURVE SMOOTH",
"149 554 OFFCURVE",
"154 558 OFFCURVE",
"160 558 CURVE SMOOTH",
"164 558 OFFCURVE",
"167 555 OFFCURVE",
"187 537 CURVE SMOOTH",
"218 509 OFFCURVE",
"241 493 OFFCURVE",
"275 493 CURVE SMOOTH",
"304 493 OFFCURVE",
"327 504 OFFCURVE",
"351 522 CURVE SMOOTH",
"371 537 OFFCURVE",
"387 547 OFFCURVE",
"389 547 CURVE SMOOTH",
"407 547 OFFCURVE",
"435 491 OFFCURVE",
"487 491 CURVE SMOOTH",
"515 491 OFFCURVE",
"563 507 OFFCURVE",
"570 586 CURVE",
"535 581 OFFCURVE",
"512 595 OFFCURVE",
"493 616 CURVE SMOOTH",
"467 646 LINE SMOOTH",
"440 678 OFFCURVE",
"426 685 OFFCURVE",
"416 685 CURVE SMOOTH",
"404 685 OFFCURVE",
"381 664 OFFCURVE",
"349 632 CURVE SMOOTH",
"319 602 OFFCURVE",
"309 592 OFFCURVE",
"299 592 CURVE SMOOTH",
"292 592 OFFCURVE",
"283 601 OFFCURVE",
"246 640 CURVE SMOOTH",
"214 674 OFFCURVE",
"198 686 OFFCURVE",
"185 686 CURVE SMOOTH",
"171 686 OFFCURVE",
"144 672 OFFCURVE",
"102 632 CURVE SMOOTH",
"44 577 OFFCURVE",
"40 545 OFFCURVE",
"40 524 CURVE SMOOTH",
"40 481 OFFCURVE",
"58 454 OFFCURVE",
"92 424 CURVE",
"184 484 LINE"
);
}
);
width = 630;
},
{
anchors = (
{
name = abvm;
position = "{274, 760}";
},
{
name = abvm_high;
position = "{274, 728}";
},
{
name = blwm;
position = "{274, 0}";
}
);
layerId = "BB318BD9-DEF5-4D27-998D-30B020A0DD4F";
paths = (
{
closed = 1;
nodes = (
"169 354 OFFCURVE",
"214 392 OFFCURVE",
"277 392 CURVE SMOOTH",
"337 392 OFFCURVE",
"385 356 OFFCURVE",
"385 316 CURVE SMOOTH",
"385 0 LINE",
"462 0 LINE",
"462 316 LINE SMOOTH",
"462 390 OFFCURVE",
"382 459 OFFCURVE",
"277 459 CURVE SMOOTH",
"175 459 OFFCURVE",
"92 392 OFFCURVE",
"92 316 CURVE SMOOTH",
"92 0 LINE",
"169 0 LINE",
"169 53 LINE",
"214 138 LINE SMOOTH",
"228 164 OFFCURVE",
"236 166 OFFCURVE",
"243 166 CURVE SMOOTH",
"255 166 OFFCURVE",
"256 158 OFFCURVE",
"273 158 CURVE SMOOTH",
"300 158 OFFCURVE",
"314 178 OFFCURVE",
"314 202 CURVE SMOOTH",
"314 229 OFFCURVE",
"296 246 OFFCURVE",
"267 246 CURVE SMOOTH",
"229 246 OFFCURVE",
"207 216 OFFCURVE",
"169 146 CURVE",
"169 316 LINE SMOOTH"
);
},
{
closed = 1;
nodes = (
"123 497 OFFCURVE",
"112 510 OFFCURVE",
"112 536 CURVE SMOOTH",
"112 553 OFFCURVE",
"116 564 OFFCURVE",
"123 574 CURVE SMOOTH",
"131 585 OFFCURVE",
"141 590 OFFCURVE",
"151 590 CURVE SMOOTH",
"162 590 OFFCURVE",
"172 583 OFFCURVE",
"197 558 CURVE SMOOTH",
"222 533 OFFCURVE",
"237 520 OFFCURVE",
"255 520 CURVE SMOOTH",
"272 520 OFFCURVE",
"291 532 OFFCURVE",
"312 553 CURVE SMOOTH",
"329 570 OFFCURVE",
"347 588 OFFCURVE",
"357 588 CURVE SMOOTH",
"386 588 OFFCURVE",
"404 520 OFFCURVE",
"448 520 CURVE SMOOTH",
"466 520 OFFCURVE",
"496 532 OFFCURVE",
"498 586 CURVE",
"474 583 OFFCURVE",
"452 591 OFFCURVE",
"440 606 CURVE SMOOTH",
"407 649 LINE SMOOTH",
"386 677 OFFCURVE",
"372 685 OFFCURVE",
"364 685 CURVE SMOOTH",
"354 685 OFFCURVE",
"336 665 OFFCURVE",
"311 637 CURVE SMOOTH",
"289 612 OFFCURVE",
"275 598 OFFCURVE",
"264 598 CURVE SMOOTH",
"253 598 OFFCURVE",
"238 612 OFFCURVE",
"221 632 CURVE SMOOTH",
"191 668 OFFCURVE",
"173 686 OFFCURVE",
"162 686 CURVE SMOOTH",
"147 686 OFFCURVE",
"122 660 OFFCURVE",
"85 618 CURVE SMOOTH",
"54 582 OFFCURVE",
"44 555 OFFCURVE",
"44 525 CURVE SMOOTH",
"44 478 OFFCURVE",
"67 453 OFFCURVE",
"107 426 CURVE",
"159 471 LINE"
);
}
);
width = 542;
},
{
anchors = (
{
name = abvm;
position = "{271, 760}";
},
{
name = abvm_high;
position = "{271, 728}";
},
{
name = blwm;
position = "{271, 0}";
}
);
layerId = "1DC75306-0750-4696-AEC7-032F44743549";
paths = (
{
closed = 1;
nodes = (
"137 381 OFFCURVE",
"188 433 OFFCURVE",
"271 433 CURVE SMOOTH",
"353 433 OFFCURVE",
"404 380 OFFCURVE",
"404 321 CURVE SMOOTH",
"404 0 LINE",
"430 0 LINE",
"430 316 LINE SMOOTH",
"430 398 OFFCURVE",
"378 459 OFFCURVE",
"271 459 CURVE SMOOTH",
"166 459 OFFCURVE",
"111 400 OFFCURVE",
"111 316 CURVE SMOOTH",
"111 0 LINE",
"137 0 LINE",
"137 53 LINE",
"226 176 LINE SMOOTH",
"243 200 OFFCURVE",
"253 206 OFFCURVE",
"265 206 CURVE SMOOTH",
"279 206 OFFCURVE",
"280 198 OFFCURVE",
"291 198 CURVE SMOOTH",
"304 198 OFFCURVE",
"313 207 OFFCURVE",
"313 220 CURVE SMOOTH",
"313 233 OFFCURVE",
"304 244 OFFCURVE",
"283 244 CURVE SMOOTH",
"244 244 OFFCURVE",
"218 209 OFFCURVE",
"137 97 CURVE",
"137 321 LINE SMOOTH"
);
},
{
closed = 1;
nodes = (
"83 539 OFFCURVE",
"77 554 OFFCURVE",
"77 562 CURVE SMOOTH",
"77 578 OFFCURVE",
"95 602 OFFCURVE",
"112 621 CURVE SMOOTH",
"130 641 OFFCURVE",
"149 660 OFFCURVE",
"162 660 CURVE SMOOTH",
"172 660 OFFCURVE",
"186 641 OFFCURVE",
"207 613 CURVE SMOOTH",
"229 584 OFFCURVE",
"245 566 OFFCURVE",
"265 566 CURVE SMOOTH",
"279 566 OFFCURVE",
"296 574 OFFCURVE",
"326 608 CURVE SMOOTH",
"351 636 OFFCURVE",
"365 660 OFFCURVE",
"373 660 CURVE SMOOTH",
"388 660 OFFCURVE",
"455 545 OFFCURVE",
"480 545 CURVE SMOOTH",
"488 545 OFFCURVE",
"498 552 OFFCURVE",
"498 569 CURVE",
"483 569 OFFCURVE",
"472 580 OFFCURVE",
"460 595 CURVE SMOOTH",
"415 653 LINE SMOOTH",
"398 674 OFFCURVE",
"388 686 OFFCURVE",
"376 686 CURVE SMOOTH",
"361 686 OFFCURVE",
"353 678 OFFCURVE",
"311 630 CURVE SMOOTH",
"287 602 OFFCURVE",
"272 592 OFFCURVE",
"265 592 CURVE SMOOTH",
"255 592 OFFCURVE",
"243 608 OFFCURVE",
"220 639 CURVE SMOOTH",
"192 676 OFFCURVE",
"179 686 OFFCURVE",
"163 686 CURVE SMOOTH",
"155 686 OFFCURVE",
"134 685 OFFCURVE",
"90 635 CURVE SMOOTH",
"50 589 OFFCURVE",
"50 573 OFFCURVE",
"50 562 CURVE SMOOTH",
"50 549 OFFCURVE",
"57 532 OFFCURVE",
"101 473 CURVE",
"120 491 LINE"
);
}
);
width = 552;
}
);
leftMetricsKey = uni1780;
note = uni1782;
rightMetricsKey = uni1780;
unicode = 1782;
},
{
glyphname = uni1783;
lastChange = "2017-12-14 20:43:12 +0000";
layers = (
{
anchors = (
{
name = abvm;
position = "{703, 760}";
},
{
name = blwm;
position = "{717, 0}";
}
);
layerId = "88BEB7F0-7448-46FF-842C-45A92B9492CE";
paths = (
{
closed = 1;
nodes = (
"830 401 LINE",
"830 146 LINE SMOOTH",
"830 109 OFFCURVE",
"771 67 OFFCURVE",
"702 67 CURVE SMOOTH",
"633 67 OFFCURVE",
"574 109 OFFCURVE",
"574 146 CURVE SMOOTH",
"574 401 LINE",
"482 401 LINE",
"482 146 LINE SMOOTH",
"482 109 OFFCURVE",
"423 67 OFFCURVE",
"354 67 CURVE SMOOTH",
"285 67 OFFCURVE",
"226 109 OFFCURVE",
"226 146 CURVE SMOOTH",
"226 401 LINE",
"134 401 LINE",
"134 146 LINE SMOOTH",
"134 82 OFFCURVE",
"224 0 OFFCURVE",
"354 0 CURVE SMOOTH",
"431 0 OFFCURVE",
"470 16 OFFCURVE",
"528 62 CURVE",
"572 18 OFFCURVE",
"635 0 OFFCURVE",
"702 0 CURVE SMOOTH",
"832 0 OFFCURVE",
"922 82 OFFCURVE",
"922 146 CURVE SMOOTH",
"922 401 LINE"
);
},
{
closed = 1;
nodes = (
"574 447 LINE",
"469 532 LINE",
"512 590 LINE",
"547 565 OFFCURVE",
"569 557 OFFCURVE",
"586 557 CURVE SMOOTH",
"625 557 OFFCURVE",
"650 596 OFFCURVE",
"650 629 CURVE",
"599 625 OFFCURVE",
"576 638 OFFCURVE",
"512 680 CURVE",
"419 552 OFFCURVE",
"397 534 OFFCURVE",
"397 514 CURVE SMOOTH",
"397 499 OFFCURVE",
"409 484 OFFCURVE",
"482 424 CURVE",
"482 350 LINE",
"574 350 LINE"
);
},
{
closed = 1;
nodes = (
"226 629 LINE SMOOTH",
"226 661 OFFCURVE",
"198 677 OFFCURVE",
"161 677 CURVE SMOOTH",
"83 677 OFFCURVE",
"17 606 OFFCURVE",
"17 530 CURVE SMOOTH",
"17 489 OFFCURVE",
"37 418 OFFCURVE",
"134 418 CURVE",
"134 340 LINE",
"226 340 LINE"
);
},
{
closed = 1;
nodes = (
"95 486 OFFCURVE",
"84 513 OFFCURVE",
"84 536 CURVE SMOOTH",
"84 561 OFFCURVE",
"97 589 OFFCURVE",
"134 600 CURVE",
"134 486 LINE"
);
},
{
closed = 1;
nodes = (
"922 447 LINE",
"817 532 LINE",
"860 590 LINE",
"895 565 OFFCURVE",
"917 557 OFFCURVE",
"934 557 CURVE SMOOTH",
"973 557 OFFCURVE",
"998 596 OFFCURVE",
"998 629 CURVE",
"947 625 OFFCURVE",
"924 638 OFFCURVE",
"860 680 CURVE",
"767 552 OFFCURVE",
"745 534 OFFCURVE",
"745 514 CURVE SMOOTH",
"745 499 OFFCURVE",
"757 484 OFFCURVE",
"830 424 CURVE",
"830 350 LINE",
"922 350 LINE"
);
}
);
width = 1014;
},
{
anchors = (
{
name = abvm;
position = "{639, 760}";
},
{
name = blwm;
position = "{667, 0}";
}
);
layerId = "37E1EBAF-DBB8-42B6-8B14-41DF5B276D12";
paths = (
{
closed = 1;
nodes = (
"817 388 LINE",
"817 133 LINE SMOOTH",
"817 82 OFFCURVE",
"746 26 OFFCURVE",
"656 26 CURVE SMOOTH",
"566 26 OFFCURVE",
"494 68 OFFCURVE",
"494 105 CURVE SMOOTH",
"494 388 LINE",
"468 388 LINE",
"468 105 LINE SMOOTH",
"468 68 OFFCURVE",
"397 26 OFFCURVE",
"307 26 CURVE SMOOTH",
"217 26 OFFCURVE",
"146 82 OFFCURVE",
"146 133 CURVE SMOOTH",
"146 388 LINE",
"120 388 LINE",
"120 126 LINE SMOOTH",
"120 62 OFFCURVE",
"211 0 OFFCURVE",
"307 0 CURVE SMOOTH",
"403 0 OFFCURVE",
"453 36 OFFCURVE",
"482 62 CURVE",
"514 32 OFFCURVE",
"560 0 OFFCURVE",
"656 0 CURVE SMOOTH",
"752 0 OFFCURVE",
"843 62 OFFCURVE",
"843 126 CURVE SMOOTH",
"843 388 LINE"
);
},
{
closed = 1;
nodes = (
"494 445 LINE",
"406 536 LINE",
"481 641 LINE",
"493 631 OFFCURVE",
"536 587 OFFCURVE",
"566 587 CURVE SMOOTH",
"578 587 OFFCURVE",
"587 594 OFFCURVE",
"583 612 CURVE",
"552 609 OFFCURVE",
"523 634 OFFCURVE",
"479 682 CURVE",
"397 569 OFFCURVE",
"379 544 OFFCURVE",
"379 537 CURVE SMOOTH",
"379 526 OFFCURVE",
"392 513 OFFCURVE",
"468 435 CURVE",
"468 370 LINE",
"494 370 LINE"
);
},
{
closed = 1;
nodes = (
"146 650 LINE SMOOTH",
"146 656 OFFCURVE",
"147 672 OFFCURVE",
"119 672 CURVE SMOOTH",
"69 672 OFFCURVE",
"14 623 OFFCURVE",
"14 553 CURVE SMOOTH",
"14 480 OFFCURVE",
"71 458 OFFCURVE",
"120 461 CURVE",
"120 335 LINE",
"146 335 LINE"
);
},
{
closed = 1;
nodes = (
"73 485 OFFCURVE",
"40 502 OFFCURVE",
"40 552 CURVE SMOOTH",
"40 590 OFFCURVE",
"60 637 OFFCURVE",
"120 644 CURVE",
"120 488 LINE"
);
},
{
closed = 1;
nodes = (
"843 445 LINE",
"755 536 LINE",
"830 641 LINE",
"842 631 OFFCURVE",
"885 587 OFFCURVE",
"915 587 CURVE SMOOTH",
"927 587 OFFCURVE",
"936 594 OFFCURVE",
"932 612 CURVE",
"901 609 OFFCURVE",
"872 634 OFFCURVE",
"828 682 CURVE",
"746 569 OFFCURVE",
"728 544 OFFCURVE",
"728 537 CURVE SMOOTH",
"728 526 OFFCURVE",
"741 513 OFFCURVE",
"817 435 CURVE",
"817 370 LINE",
"843 370 LINE"
);
}
);
width = 973;
},
{
anchors = (
{
name = abvm;
position = "{745, 760}";
},
{
name = blwm;
position = "{746, 0}";
}
);
layerId = "33F44B55-ADBD-4698-98EB-0F29A0B3A069";
paths = (
{
closed = 1;
nodes = (
"815 389 LINE",
"815 178 LINE SMOOTH",
"815 141 OFFCURVE",
"801 102 OFFCURVE",
"732 102 CURVE SMOOTH",
"663 102 OFFCURVE",
"648 141 OFFCURVE",
"648 178 CURVE SMOOTH",
"648 389 LINE",
"468 389 LINE",
"468 178 LINE SMOOTH",
"468 141 OFFCURVE",
"453 102 OFFCURVE",
"384 102 CURVE SMOOTH",
"315 102 OFFCURVE",
"300 141 OFFCURVE",
"300 178 CURVE SMOOTH",
"300 389 LINE",
"120 389 LINE",
"120 162 LINE SMOOTH",
"120 78 OFFCURVE",
"194 0 OFFCURVE",
"364 0 CURVE SMOOTH",
"440 0 OFFCURVE",
"500 16 OFFCURVE",
"558 62 CURVE",
"615 18 OFFCURVE",
"667 0 OFFCURVE",
"747 0 CURVE SMOOTH",
"921 0 OFFCURVE",
"995 78 OFFCURVE",
"995 162 CURVE SMOOTH",
"995 389 LINE"
);
},
{
closed = 1;
nodes = (
"648 449 LINE",
"522 514 LINE",
"536 535 LINE",
"591 510 OFFCURVE",
"610 505 OFFCURVE",
"625 505 CURVE SMOOTH",
"680 505 OFFCURVE",
"708 568 OFFCURVE",
"708 612 CURVE",
"655 612 OFFCURVE",
"603 643 OFFCURVE",
"522 680 CURVE",
"430 572 OFFCURVE",
"394 525 OFFCURVE",
"394 492 CURVE SMOOTH",
"394 473 OFFCURVE",
"406 449 OFFCURVE",
"468 412 CURVE",
"468 330 LINE",
"648 330 LINE"
);
},
{
closed = 1;
nodes = (
"300 576 LINE SMOOTH",
"300 652 OFFCURVE",
"259 677 OFFCURVE",
"177 677 CURVE SMOOTH",
"32 677 OFFCURVE",
"-20 601 OFFCURVE",
"-20 527 CURVE SMOOTH",
"-20 463 OFFCURVE",
"21 411 OFFCURVE",
"120 404 CURVE",
"120 340 LINE",
"300 340 LINE"
);
},
{
closed = 1;
nodes = (
"88 492 OFFCURVE",
"77 516 OFFCURVE",
"77 537 CURVE SMOOTH",
"77 555 OFFCURVE",
"85 578 OFFCURVE",
"116 588 CURVE",
"116 492 LINE"
);
},
{
closed = 1;
nodes = (
"995 449 LINE",
"869 514 LINE",
"883 535 LINE",
"938 510 OFFCURVE",
"957 505 OFFCURVE",
"972 505 CURVE SMOOTH",
"1027 505 OFFCURVE",
"1055 568 OFFCURVE",
"1055 612 CURVE",
"1002 612 OFFCURVE",
"950 643 OFFCURVE",
"869 680 CURVE",
"777 572 OFFCURVE",
"741 525 OFFCURVE",
"741 492 CURVE SMOOTH",
"741 473 OFFCURVE",
"753 449 OFFCURVE",
"815 412 CURVE",
"815 330 LINE",
"995 330 LINE"
);
}
);
width = 1095;
},
{
anchors = (
{
name = abvm;
position = "{613, 760}";
},
{
name = blwm;
position = "{614, 0}";
}
);
layerId = "2845A654-27C0-4D24-8E0C-7DAF9BC7668A";
paths = (
{
closed = 1;
nodes = (
"673 389 LINE",
"673 178 LINE SMOOTH",
"673 141 OFFCURVE",
"662 102 OFFCURVE",
"604 102 CURVE SMOOTH",
"547 102 OFFCURVE",
"534 141 OFFCURVE",
"534 178 CURVE SMOOTH",
"534 389 LINE",
"384 389 LINE",
"384 178 LINE SMOOTH",
"384 141 OFFCURVE",
"372 102 OFFCURVE",
"314 102 CURVE SMOOTH",
"257 102 OFFCURVE",
"244 141 OFFCURVE",
"244 178 CURVE SMOOTH",
"244 389 LINE",
"94 389 LINE",
"94 162 LINE SMOOTH",
"94 78 OFFCURVE",
"156 0 OFFCURVE",
"297 0 CURVE SMOOTH",
"361 0 OFFCURVE",
"411 16 OFFCURVE",
"459 62 CURVE",
"507 18 OFFCURVE",
"550 0 OFFCURVE",
"617 0 CURVE SMOOTH",
"762 0 OFFCURVE",
"823 78 OFFCURVE",
"823 162 CURVE SMOOTH",
"823 389 LINE"
);
},
{
closed = 1;
nodes = (
"534 449 LINE",
"429 514 LINE",
"440 535 LINE",
"486 510 OFFCURVE",
"502 505 OFFCURVE",
"515 505 CURVE SMOOTH",
"560 505 OFFCURVE",
"584 568 OFFCURVE",
"584 612 CURVE",
"540 612 OFFCURVE",
"496 643 OFFCURVE",
"429 680 CURVE",
"352 572 OFFCURVE",
"322 525 OFFCURVE",
"322 492 CURVE SMOOTH",
"322 473 OFFCURVE",
"332 449 OFFCURVE",
"384 412 CURVE",
"384 330 LINE",
"534 330 LINE"
);
},
{
closed = 1;
nodes = (
"244 576 LINE SMOOTH",
"244 652 OFFCURVE",
"214 677 OFFCURVE",
"146 677 CURVE SMOOTH",
"25 677 OFFCURVE",
"-23 601 OFFCURVE",
"-23 526 CURVE SMOOTH",
"-23 463 OFFCURVE",
"11 411 OFFCURVE",
"94 404 CURVE",
"94 340 LINE",
"244 340 LINE"
);
},
{
closed = 1;
nodes = (
"67 492 OFFCURVE",
"58 518 OFFCURVE",
"58 538 CURVE SMOOTH",
"58 556 OFFCURVE",
"65 578 OFFCURVE",
"90 588 CURVE",
"90 492 LINE"
);
},
{
closed = 1;
nodes = (
"823 449 LINE",
"718 514 LINE",
"729 535 LINE",
"775 510 OFFCURVE",
"791 505 OFFCURVE",
"804 505 CURVE SMOOTH",
"849 505 OFFCURVE",
"873 568 OFFCURVE",
"873 612 CURVE",
"829 612 OFFCURVE",
"785 643 OFFCURVE",
"718 680 CURVE",
"641 572 OFFCURVE",
"611 525 OFFCURVE",
"611 492 CURVE SMOOTH",
"611 473 OFFCURVE",
"621 449 OFFCURVE",
"673 412 CURVE",
"673 330 LINE",
"823 330 LINE"
);
}
);
width = 931;
},
{
anchors = (
{
name = abvm;
position = "{606, 760}";
},
{
name = blwm;
position = "{618, 0}";
}
);
layerId = "BB318BD9-DEF5-4D27-998D-30B020A0DD4F";
paths = (
{
closed = 1;
nodes = (
"714 401 LINE",
"714 146 LINE SMOOTH",
"714 109 OFFCURVE",
"665 67 OFFCURVE",
"607 67 CURVE SMOOTH",
"550 67 OFFCURVE",
"501 109 OFFCURVE",
"501 146 CURVE SMOOTH",
"501 401 LINE",
"424 401 LINE",
"424 146 LINE SMOOTH",
"424 109 OFFCURVE",
"375 67 OFFCURVE",
"317 67 CURVE SMOOTH",
"260 67 OFFCURVE",
"211 109 OFFCURVE",
"211 146 CURVE SMOOTH",
"211 401 LINE",
"134 401 LINE",
"134 146 LINE SMOOTH",
"134 82 OFFCURVE",
"209 0 OFFCURVE",
"317 0 CURVE SMOOTH",
"382 0 OFFCURVE",
"414 16 OFFCURVE",
"462 62 CURVE",
"499 18 OFFCURVE",
"552 0 OFFCURVE",
"607 0 CURVE SMOOTH",
"716 0 OFFCURVE",
"791 82 OFFCURVE",
"791 146 CURVE SMOOTH",
"791 401 LINE"
);
},
{
closed = 1;
nodes = (
"501 447 LINE",
"413 532 LINE",
"449 590 LINE",
"478 565 OFFCURVE",
"494 557 OFFCURVE",
"509 557 CURVE SMOOTH",
"541 557 OFFCURVE",
"564 596 OFFCURVE",
"564 629 CURVE",
"521 625 OFFCURVE",
"502 638 OFFCURVE",
"449 680 CURVE",
"371 552 OFFCURVE",
"353 534 OFFCURVE",
"353 514 CURVE SMOOTH",
"353 499 OFFCURVE",
"363 484 OFFCURVE",
"424 424 CURVE",
"424 350 LINE",
"501 350 LINE"
);
},
{
closed = 1;
nodes = (
"211 629 LINE SMOOTH",
"211 661 OFFCURVE",
"190 677 OFFCURVE",
"158 677 CURVE SMOOTH",
"94 677 OFFCURVE",
"32 615 OFFCURVE",
"32 535 CURVE SMOOTH",
"32 487 OFFCURVE",
"55 418 OFFCURVE",
"134 418 CURVE",
"134 340 LINE",
"211 340 LINE"
);
},
{
closed = 1;
nodes = (
"101 486 OFFCURVE",
"92 517 OFFCURVE",
"92 536 CURVE SMOOTH",
"92 557 OFFCURVE",
"103 588 OFFCURVE",
"134 600 CURVE",
"134 486 LINE"
);
},
{
closed = 1;
nodes = (
"791 447 LINE",
"703 532 LINE",
"739 590 LINE",
"768 565 OFFCURVE",
"784 557 OFFCURVE",
"799 557 CURVE SMOOTH",
"831 557 OFFCURVE",
"854 596 OFFCURVE",
"854 629 CURVE",
"811 625 OFFCURVE",
"792 638 OFFCURVE",
"739 680 CURVE",
"661 552 OFFCURVE",
"643 534 OFFCURVE",
"643 514 CURVE SMOOTH",
"643 499 OFFCURVE",
"653 484 OFFCURVE",
"714 424 CURVE",
"714 350 LINE",
"791 350 LINE"
);
}
);
width = 899;
},
{
anchors = (
{
name = abvm;
position = "{561, 760}";
},
{
name = blwm;
position = "{555, 0}";
}
);
layerId = "1DC75306-0750-4696-AEC7-032F44743549";
paths = (
{
closed = 1;
nodes = (
"693 388 LINE",
"693 133 LINE SMOOTH",
"693 82 OFFCURVE",
"642 26 OFFCURVE",
"562 26 CURVE SMOOTH",
"492 26 OFFCURVE",
"430 68 OFFCURVE",
"430 105 CURVE SMOOTH",
"430 388 LINE",
"404 388 LINE",
"404 105 LINE SMOOTH",
"404 68 OFFCURVE",
"343 26 OFFCURVE",
"273 26 CURVE SMOOTH",
"193 26 OFFCURVE",
"142 82 OFFCURVE",
"142 133 CURVE SMOOTH",
"142 388 LINE",
"116 388 LINE",
"116 126 LINE SMOOTH",
"116 62 OFFCURVE",
"187 0 OFFCURVE",
"273 0 CURVE SMOOTH",
"349 0 OFFCURVE",
"389 36 OFFCURVE",
"418 62 CURVE",
"450 32 OFFCURVE",
"486 0 OFFCURVE",
"562 0 CURVE SMOOTH",
"648 0 OFFCURVE",
"719 62 OFFCURVE",
"719 126 CURVE SMOOTH",
"719 388 LINE"
);
},
{
closed = 1;
nodes = (
"430 445 LINE",
"352 536 LINE",
"417 641 LINE",
"429 631 OFFCURVE",
"462 587 OFFCURVE",
"492 587 CURVE SMOOTH",
"504 587 OFFCURVE",
"514 595 OFFCURVE",
"514 612 CURVE",
"483 609 OFFCURVE",
"459 634 OFFCURVE",
"415 682 CURVE",
"339 568 OFFCURVE",
"325 547 OFFCURVE",
"325 538 CURVE SMOOTH",
"325 528 OFFCURVE",
"333 513 OFFCURVE",
"404 435 CURVE",
"404 370 LINE",
"430 370 LINE"
);
},
{
closed = 1;
nodes = (
"142 650 LINE SMOOTH",
"142 656 OFFCURVE",
"142 672 OFFCURVE",
"116 672 CURVE SMOOTH",
"74 672 OFFCURVE",
"20 629 OFFCURVE",
"20 558 CURVE SMOOTH",
"20 486 OFFCURVE",
"77 458 OFFCURVE",
"116 461 CURVE",
"116 335 LINE",
"142 335 LINE"
);
},
{
closed = 1;
nodes = (
"79 485 OFFCURVE",
"46 513 OFFCURVE",
"46 562 CURVE SMOOTH",
"46 601 OFFCURVE",
"66 637 OFFCURVE",
"116 644 CURVE",
"116 488 LINE"
);
},
{
closed = 1;
nodes = (
"719 445 LINE",
"641 536 LINE",
"706 641 LINE",
"718 631 OFFCURVE",
"751 587 OFFCURVE",
"781 587 CURVE SMOOTH",
"793 587 OFFCURVE",
"803 595 OFFCURVE",
"803 612 CURVE",
"772 609 OFFCURVE",
"748 634 OFFCURVE",
"704 682 CURVE",
"628 568 OFFCURVE",
"614 547 OFFCURVE",
"614 538 CURVE SMOOTH",
"614 528 OFFCURVE",
"622 513 OFFCURVE",
"693 435 CURVE",
"693 370 LINE",
"719 370 LINE"
);
}
);
width = 843;
}
);
note = uni1783;
unicode = 1783;
},
{
glyphname = uni1784;
lastChange = "2017-12-14 20:43:12 +0000";
layers = (
{
anchors = (
{
name = abvm;
position = "{327, 840}";
},
{
name = blwm;
position = "{371, 0}";
}
);
layerId = "88BEB7F0-7448-46FF-842C-45A92B9492CE";
paths = (
{
closed = 1;
nodes = (
"222 0 LINE",
"362 115 LINE",
"502 0 LINE",
"594 0 LINE",
"594 389 LINE SMOOTH",
"594 452 OFFCURVE",
"530 495 OFFCURVE",
"471 536 CURVE SMOOTH",
"445 554 OFFCURVE",
"413 572 OFFCURVE",
"413 599 CURVE SMOOTH",
"413 613 OFFCURVE",
"422 628 OFFCURVE",
"438 628 CURVE SMOOTH",
"454 628 OFFCURVE",
"462 615 OFFCURVE",
"462 601 CURVE SMOOTH",
"462 577 OFFCURVE",
"438 548 OFFCURVE",
"411 532 CURVE SMOOTH",
"375 511 OFFCURVE",
"322 505 OFFCURVE",
"293 505 CURVE SMOOTH",
"246 505 OFFCURVE",
"206 521 OFFCURVE",
"206 576 CURVE SMOOTH",
"206 624 OFFCURVE",
"237 646 OFFCURVE",
"237 711 CURVE SMOOTH",
"237 757 OFFCURVE",
"220 800 OFFCURVE",
"169 800 CURVE SMOOTH",
"126 800 OFFCURVE",
"106 770 OFFCURVE",
"106 731 CURVE",
"138 731 OFFCURVE",
"155 716 OFFCURVE",
"155 681 CURVE SMOOTH",
"155 627 OFFCURVE",
"137 607 OFFCURVE",
"137 562 CURVE SMOOTH",
"137 485 OFFCURVE",
"188 438 OFFCURVE",
"276 438 CURVE SMOOTH",
"345 438 OFFCURVE",
"421 467 OFFCURVE",
"465 501 CURVE SMOOTH",
"502 530 OFFCURVE",
"530 555 OFFCURVE",
"530 598 CURVE SMOOTH",
"530 647 OFFCURVE",
"495 684 OFFCURVE",
"440 684 CURVE SMOOTH",
"382 684 OFFCURVE",
"345 641 OFFCURVE",
"345 595 CURVE SMOOTH",
"345 556 OFFCURVE",
"371 530 OFFCURVE",
"399 510 CURVE SMOOTH",
"435 485 OFFCURVE",
"502 456 OFFCURVE",
"502 400 CURVE SMOOTH",
"502 91 LINE",
"362 207 LINE",
"222 91 LINE",
"222 165 LINE",
"130 165 LINE",
"130 0 LINE"
);
},
{
closed = 1;
nodes = (
"222 355 LINE SMOOTH",
"222 388 OFFCURVE",
"202 408 OFFCURVE",
"155 408 CURVE SMOOTH",
"83 408 OFFCURVE",
"20 361 OFFCURVE",
"20 289 CURVE SMOOTH",
"20 226 OFFCURVE",
"72 188 OFFCURVE",
"130 188 CURVE",
"130 146 LINE",
"222 146 LINE"
);
},
{
closed = 1;
nodes = (
"109 255 OFFCURVE",
"85 267 OFFCURVE",
"85 297 CURVE SMOOTH",
"85 327 OFFCURVE",
"108 346 OFFCURVE",
"130 346 CURVE",
"130 255 LINE"
);
}
);
width = 684;
},
{
anchors = (
{
name = abvm;
position = "{333, 840}";
},
{
name = blwm;
position = "{349, 0}";
}
);
layerId = "37E1EBAF-DBB8-42B6-8B14-41DF5B276D12";
paths = (
{
closed = 1;
nodes = (
"183 0 LINE",
"351 154 LINE",
"517 0 LINE",
"549 0 LINE",
"549 391 LINE SMOOTH",
"549 451 OFFCURVE",
"460 516 OFFCURVE",
"433 537 CURVE SMOOTH",
"414 552 OFFCURVE",
"392 577 OFFCURVE",
"392 606 CURVE SMOOTH",
"392 633 OFFCURVE",
"410 642 OFFCURVE",
"425 642 CURVE SMOOTH",
"443 642 OFFCURVE",
"457 629 OFFCURVE",
"457 606 CURVE SMOOTH",
"457 577 OFFCURVE",
"436 546 OFFCURVE",
"409 526 CURVE SMOOTH",
"367 496 OFFCURVE",
"329 487 OFFCURVE",
"280 487 CURVE SMOOTH",
"248 487 OFFCURVE",
"169 491 OFFCURVE",
"169 572 CURVE SMOOTH",
"169 628 OFFCURVE",
"203 638 OFFCURVE",
"203 695 CURVE SMOOTH",
"203 742 OFFCURVE",
"179 780 OFFCURVE",
"155 780 CURVE SMOOTH",
"144 780 OFFCURVE",
"133 772 OFFCURVE",
"133 751 CURVE",
"160 748 OFFCURVE",
"175 724 OFFCURVE",
"175 688 CURVE SMOOTH",
"175 637 OFFCURVE",
"143 625 OFFCURVE",
"143 567 CURVE SMOOTH",
"143 487 OFFCURVE",
"209 461 OFFCURVE",
"278 461 CURVE SMOOTH",
"328 461 OFFCURVE",
"383 475 OFFCURVE",
"430 512 CURVE SMOOTH",
"461 537 OFFCURVE",
"483 569 OFFCURVE",
"483 606 CURVE SMOOTH",
"483 641 OFFCURVE",
"464 668 OFFCURVE",
"427 668 CURVE SMOOTH",
"386 668 OFFCURVE",
"366 636 OFFCURVE",
"366 605 CURVE SMOOTH",
"366 570 OFFCURVE",
"392 540 OFFCURVE",
"422 513 CURVE SMOOTH",
"461 478 OFFCURVE",
"523 434 OFFCURVE",
"523 387 CURVE SMOOTH",
"523 30 LINE",
"351 189 LINE",
"177 29 LINE",
"177 193 LINE",
"151 193 LINE",
"151 0 LINE"
);
},
{
closed = 1;
nodes = (
"177 373 LINE SMOOTH",
"177 398 OFFCURVE",
"168 405 OFFCURVE",
"151 405 CURVE SMOOTH",
"103 405 OFFCURVE",
"60 351 OFFCURVE",
"60 290 CURVE SMOOTH",
"60 233 OFFCURVE",
"99 194 OFFCURVE",
"151 191 CURVE",
"151 183 LINE",
"177 183 LINE"
);
},
{
closed = 1;
nodes = (
"132 217 OFFCURVE",
"86 231 OFFCURVE",
"86 289 CURVE SMOOTH",
"86 340 OFFCURVE",
"122 378 OFFCURVE",
"151 378 CURVE",
"151 217 LINE"
);
}
);
width = 679;
},
{
anchors = (
{
name = abvm;
position = "{416, 840}";
},
{
name = blwm;
position = "{448, 0}";
}
);
layerId = "33F44B55-ADBD-4698-98EB-0F29A0B3A069";
paths = (
{
closed = 1;
nodes = (
"336 0 LINE",
"439 55 LINE",
"542 0 LINE",
"716 0 LINE",
"716 335 LINE SMOOTH",
"716 458 OFFCURVE",
"643 490 OFFCURVE",
"556 533 CURVE SMOOTH",
"508 557 OFFCURVE",
"490 567 OFFCURVE",
"490 586 CURVE SMOOTH",
"490 600 OFFCURVE",
"500 610 OFFCURVE",
"514 610 CURVE SMOOTH",
"532 610 OFFCURVE",
"539 595 OFFCURVE",
"539 584 CURVE SMOOTH",
"539 556 OFFCURVE",
"492 536 OFFCURVE",
"473 530 CURVE SMOOTH",
"446 521 OFFCURVE",
"405 516 OFFCURVE",
"383 516 CURVE SMOOTH",
"347 516 OFFCURVE",
"307 530 OFFCURVE",
"307 582 CURVE SMOOTH",
"307 633 OFFCURVE",
"342 649 OFFCURVE",
"342 713 CURVE SMOOTH",
"342 773 OFFCURVE",
"309 809 OFFCURVE",
"248 809 CURVE SMOOTH",
"175 809 OFFCURVE",
"138 762 OFFCURVE",
"138 713 CURVE",
"172 713 OFFCURVE",
"187 693 OFFCURVE",
"187 653 CURVE SMOOTH",
"187 620 OFFCURVE",
"177 587 OFFCURVE",
"177 555 CURVE SMOOTH",
"177 483 OFFCURVE",
"229 422 OFFCURVE",
"360 422 CURVE SMOOTH",
"439 422 OFFCURVE",
"528 451 OFFCURVE",
"572 477 CURVE SMOOTH",
"629 512 OFFCURVE",
"649 562 OFFCURVE",
"649 600 CURVE SMOOTH",
"649 658 OFFCURVE",
"601 714 OFFCURVE",
"517 714 CURVE SMOOTH",
"422 714 OFFCURVE",
"385 648 OFFCURVE",
"385 600 CURVE SMOOTH",
"385 549 OFFCURVE",
"426 509 OFFCURVE",
"448 494 CURVE SMOOTH",
"483 470 OFFCURVE",
"536 457 OFFCURVE",
"536 400 CURVE SMOOTH",
"536 117 LINE",
"439 169 LINE",
"344 117 LINE",
"344 128 LINE",
"164 128 LINE",
"164 0 LINE"
);
},
{
closed = 1;
nodes = (
"344 306 LINE SMOOTH",
"344 370 OFFCURVE",
"312 399 OFFCURVE",
"229 399 CURVE SMOOTH",
"106 399 OFFCURVE",
"40 332 OFFCURVE",
"40 252 CURVE SMOOTH",
"40 142 OFFCURVE",
"156 134 OFFCURVE",
"164 134 CURVE",
"164 103 LINE",
"344 103 LINE"
);
},
{
closed = 1;
nodes = (
"145 225 OFFCURVE",
"131 239 OFFCURVE",
"131 262 CURVE SMOOTH",
"131 284 OFFCURVE",
"144 302 OFFCURVE",
"164 312 CURVE",
"164 224 LINE"
);
}
);
width = 796;
},
{
anchors = (
{
name = abvm;
position = "{363, 840}";
},
{
name = blwm;
position = "{389, 0}";
}
);
layerId = "2845A654-27C0-4D24-8E0C-7DAF9BC7668A";
paths = (
{
closed = 1;
nodes = (
"296 0 LINE",
"382 55 LINE",
"468 0 LINE",
"613 0 LINE",
"613 335 LINE SMOOTH",
"613 458 OFFCURVE",
"552 490 OFFCURVE",
"479 533 CURVE SMOOTH",
"439 557 OFFCURVE",
"424 567 OFFCURVE",
"424 586 CURVE SMOOTH",
"424 600 OFFCURVE",
"433 610 OFFCURVE",
"444 610 CURVE SMOOTH",
"459 610 OFFCURVE",
"465 595 OFFCURVE",
"465 584 CURVE SMOOTH",
"465 556 OFFCURVE",
"426 536 OFFCURVE",
"410 530 CURVE SMOOTH",
"388 521 OFFCURVE",
"354 516 OFFCURVE",
"335 516 CURVE SMOOTH",
"305 516 OFFCURVE",
"272 530 OFFCURVE",
"272 582 CURVE SMOOTH",
"272 633 OFFCURVE",
"301 649 OFFCURVE",
"301 713 CURVE SMOOTH",
"301 773 OFFCURVE",
"274 803 OFFCURVE",
"225 803 CURVE SMOOTH",
"162 803 OFFCURVE",
"131 762 OFFCURVE",
"131 713 CURVE",
"159 713 OFFCURVE",
"172 693 OFFCURVE",
"172 649 CURVE SMOOTH",
"172 620 OFFCURVE",
"164 595 OFFCURVE",
"164 567 CURVE SMOOTH",
"164 502 OFFCURVE",
"207 422 OFFCURVE",
"316 422 CURVE SMOOTH",
"382 422 OFFCURVE",
"456 451 OFFCURVE",
"491 476 CURVE SMOOTH",
"540 512 OFFCURVE",
"557 562 OFFCURVE",
"557 600 CURVE SMOOTH",
"557 658 OFFCURVE",
"517 714 OFFCURVE",
"447 714 CURVE SMOOTH",
"368 714 OFFCURVE",
"337 648 OFFCURVE",
"337 600 CURVE SMOOTH",
"337 549 OFFCURVE",
"371 509 OFFCURVE",
"389 494 CURVE SMOOTH",
"419 470 OFFCURVE",
"463 457 OFFCURVE",
"463 400 CURVE SMOOTH",
"463 117 LINE",
"382 169 LINE",
"303 117 LINE",
"303 128 LINE",
"153 128 LINE",
"153 0 LINE"
);
},
{
closed = 1;
nodes = (
"303 306 LINE SMOOTH",
"303 370 OFFCURVE",
"279 399 OFFCURVE",
"210 399 CURVE SMOOTH",
"107 399 OFFCURVE",
"50 335 OFFCURVE",
"50 254 CURVE SMOOTH",
"50 145 OFFCURVE",
"147 134 OFFCURVE",
"153 134 CURVE",
"153 103 LINE",
"303 103 LINE"
);
},
{
closed = 1;
nodes = (
"137 228 OFFCURVE",
"126 242 OFFCURVE",
"126 264 CURVE SMOOTH",
"126 287 OFFCURVE",
"138 302 OFFCURVE",
"153 312 CURVE",
"153 224 LINE"
);
}
);
width = 713;
},
{
anchors = (
{
name = abvm;
position = "{276, 840}";
},
{
name = blwm;
position = "{313, 0}";
}
);
layerId = "BB318BD9-DEF5-4D27-998D-30B020A0DD4F";
paths = (
{
closed = 1;
nodes = (
"189 0 LINE",
"305 115 LINE",
"422 0 LINE",
"499 0 LINE",
"499 389 LINE SMOOTH",
"499 452 OFFCURVE",
"445 495 OFFCURVE",
"396 536 CURVE SMOOTH",
"375 554 OFFCURVE",
"348 574 OFFCURVE",
"348 601 CURVE SMOOTH",
"348 615 OFFCURVE",
"355 628 OFFCURVE",
"369 628 CURVE SMOOTH",
"382 628 OFFCURVE",
"389 616 OFFCURVE",
"389 602 CURVE SMOOTH",
"389 578 OFFCURVE",
"370 548 OFFCURVE",
"344 531 CURVE SMOOTH",
"318 514 OFFCURVE",
"277 505 OFFCURVE",
"254 505 CURVE SMOOTH",
"214 505 OFFCURVE",
"175 531 OFFCURVE",
"175 582 CURVE SMOOTH",
"175 624 OFFCURVE",
"201 649 OFFCURVE",
"201 712 CURVE SMOOTH",
"201 760 OFFCURVE",
"186 800 OFFCURVE",
"144 800 CURVE SMOOTH",
"108 800 OFFCURVE",
"92 770 OFFCURVE",
"92 731 CURVE",
"119 731 OFFCURVE",
"133 719 OFFCURVE",
"133 675 CURVE SMOOTH",
"133 630 OFFCURVE",
"118 606 OFFCURVE",
"118 563 CURVE SMOOTH",
"118 484 OFFCURVE",
"168 438 OFFCURVE",
"241 438 CURVE SMOOTH",
"299 438 OFFCURVE",
"356 466 OFFCURVE",
"402 509 CURVE SMOOTH",
"423 529 OFFCURVE",
"445 555 OFFCURVE",
"445 598 CURVE SMOOTH",
"445 647 OFFCURVE",
"414 684 OFFCURVE",
"369 684 CURVE SMOOTH",
"320 684 OFFCURVE",
"291 641 OFFCURVE",
"291 595 CURVE SMOOTH",
"291 556 OFFCURVE",
"313 530 OFFCURVE",
"334 513 CURVE SMOOTH",
"366 485 OFFCURVE",
"422 456 OFFCURVE",
"422 400 CURVE SMOOTH",
"422 91 LINE",
"305 207 LINE",
"189 91 LINE",
"189 165 LINE",
"112 165 LINE",
"112 0 LINE"
);
},
{
closed = 1;
nodes = (
"189 355 LINE SMOOTH",
"189 388 OFFCURVE",
"172 408 OFFCURVE",
"134 408 CURVE SMOOTH",
"73 408 OFFCURVE",
"20 364 OFFCURVE",
"20 293 CURVE SMOOTH",
"20 229 OFFCURVE",
"63 188 OFFCURVE",
"112 188 CURVE",
"112 146 LINE",
"189 146 LINE"
);
},
{
closed = 1;
nodes = (
"94 255 OFFCURVE",
"74 268 OFFCURVE",
"74 298 CURVE SMOOTH",
"74 328 OFFCURVE",
"93 346 OFFCURVE",
"112 346 CURVE",
"112 255 LINE"
);
}
);
width = 579;
},
{
anchors = (
{
name = abvm;
position = "{291, 840}";
},
{
name = blwm;
position = "{304, 0}";
}
);
layerId = "1DC75306-0750-4696-AEC7-032F44743549";
paths = (
{
closed = 1;
nodes = (
"174 0 LINE",
"312 154 LINE",
"448 0 LINE",
"480 0 LINE",
"480 391 LINE SMOOTH",
"480 458 OFFCURVE",
"396 514 OFFCURVE",
"367 536 CURVE SMOOTH",
"344 554 OFFCURVE",
"323 575 OFFCURVE",
"323 605 CURVE SMOOTH",
"323 631 OFFCURVE",
"340 642 OFFCURVE",
"355 642 CURVE SMOOTH",
"373 642 OFFCURVE",
"388 626 OFFCURVE",
"388 603 CURVE SMOOTH",
"388 574 OFFCURVE",
"365 547 OFFCURVE",
"335 523 CURVE SMOOTH",
"308 502 OFFCURVE",
"280 487 OFFCURVE",
"245 487 CURVE SMOOTH",
"221 487 OFFCURVE",
"160 494 OFFCURVE",
"160 572 CURVE SMOOTH",
"160 631 OFFCURVE",
"193 642 OFFCURVE",
"193 699 CURVE SMOOTH",
"193 746 OFFCURVE",
"170 780 OFFCURVE",
"146 780 CURVE SMOOTH",
"134 780 OFFCURVE",
"124 772 OFFCURVE",
"124 751 CURVE",
"151 748 OFFCURVE",
"167 726 OFFCURVE",
"167 691 CURVE SMOOTH",
"167 643 OFFCURVE",
"134 625 OFFCURVE",
"134 566 CURVE SMOOTH",
"134 487 OFFCURVE",
"193 461 OFFCURVE",
"247 461 CURVE SMOOTH",
"281 461 OFFCURVE",
"316 472 OFFCURVE",
"361 511 CURVE SMOOTH",
"389 535 OFFCURVE",
"414 563 OFFCURVE",
"414 604 CURVE SMOOTH",
"414 639 OFFCURVE",
"396 668 OFFCURVE",
"358 668 CURVE SMOOTH",
"318 668 OFFCURVE",
"297 636 OFFCURVE",
"297 603 CURVE SMOOTH",
"297 570 OFFCURVE",
"317 546 OFFCURVE",
"342 523 CURVE SMOOTH",
"382 487 OFFCURVE",
"454 448 OFFCURVE",
"454 387 CURVE SMOOTH",
"454 30 LINE",
"312 189 LINE",
"168 29 LINE",
"168 193 LINE",
"142 193 LINE",
"142 0 LINE"
);
},
{
closed = 1;
nodes = (
"168 373 LINE SMOOTH",
"168 398 OFFCURVE",
"158 405 OFFCURVE",
"143 405 CURVE SMOOTH",
"103 405 OFFCURVE",
"65 355 OFFCURVE",
"65 295 CURVE SMOOTH",
"65 240 OFFCURVE",
"100 194 OFFCURVE",
"142 191 CURVE",
"142 183 LINE",
"168 183 LINE"
);
},
{
closed = 1;
nodes = (
"123 217 OFFCURVE",
"91 242 OFFCURVE",
"91 292 CURVE SMOOTH",
"91 342 OFFCURVE",
"123 378 OFFCURVE",
"142 378 CURVE",
"142 217 LINE"
);
}
);
width = 604;
}
);
note = uni1784;
unicode = 1784;
},
{
glyphname = uni1785;
lastChange = "2017-12-14 20:43:12 +0000";
layers = (
{
anchors = (
{
name = abvm;
position = "{344, 760}";
},
{
name = blwm;
position = "{344, 0}";
}
);
layerId = "88BEB7F0-7448-46FF-842C-45A92B9492CE";
paths = (
{
closed = 1;
nodes = (
"474 192 LINE",
"474 146 LINE SMOOTH",
"474 108 OFFCURVE",
"417 67 OFFCURVE",
"344 67 CURVE SMOOTH",
"274 67 OFFCURVE",
"214 106 OFFCURVE",
"214 146 CURVE SMOOTH",
"214 415 LINE",
"122 415 LINE",
"122 146 LINE SMOOTH",
"122 72 OFFCURVE",
"222 0 OFFCURVE",
"344 0 CURVE SMOOTH",
"464 0 OFFCURVE",
"566 70 OFFCURVE",
"566 146 CURVE SMOOTH",
"566 192 LINE"
);
},
{
closed = 1;
nodes = (
"566 395 LINE SMOOTH",
"566 428 OFFCURVE",
"546 448 OFFCURVE",
"499 448 CURVE SMOOTH",
"427 448 OFFCURVE",
"364 401 OFFCURVE",
"364 329 CURVE SMOOTH",
"364 266 OFFCURVE",
"416 228 OFFCURVE",
"474 228 CURVE",
"474 186 LINE",
"566 186 LINE"
);
},
{
closed = 1;
nodes = (
"453 295 OFFCURVE",
"429 307 OFFCURVE",
"429 337 CURVE SMOOTH",
"429 367 OFFCURVE",
"452 386 OFFCURVE",
"474 386 CURVE",
"474 295 LINE"
);
},
{
closed = 1;
nodes = (
"214 401 LINE",
"214 471 LINE",
"166 523 OFFCURVE",
"163 530 OFFCURVE",
"163 540 CURVE SMOOTH",
"163 550 OFFCURVE",
"168 558 OFFCURVE",
"178 567 CURVE SMOOTH",
"187 575 OFFCURVE",
"196 580 OFFCURVE",
"207 580 CURVE SMOOTH",
"218 580 OFFCURVE",
"227 572 OFFCURVE",
"265 540 CURVE SMOOTH",
"293 517 OFFCURVE",
"317 500 OFFCURVE",
"339 500 CURVE SMOOTH",
"357 500 OFFCURVE",
"375 513 OFFCURVE",
"404 539 CURVE SMOOTH",
"424 558 OFFCURVE",
"441 574 OFFCURVE",
"460 574 CURVE SMOOTH",
"505 574 OFFCURVE",
"512 500 OFFCURVE",
"565 500 CURVE SMOOTH",
"594 500 OFFCURVE",
"624 523 OFFCURVE",
"635 582 CURVE",
"604 576 OFFCURVE",
"580 585 OFFCURVE",
"563 604 CURVE SMOOTH",
"518 652 LINE SMOOTH",
"499 672 OFFCURVE",
"486 680 OFFCURVE",
"475 680 CURVE SMOOTH",
"459 680 OFFCURVE",
"438 661 OFFCURVE",
"406 628 CURVE SMOOTH",
"375 597 OFFCURVE",
"365 587 OFFCURVE",
"355 587 CURVE SMOOTH",
"344 587 OFFCURVE",
"335 595 OFFCURVE",
"302 628 CURVE SMOOTH",
"265 664 OFFCURVE",
"246 680 OFFCURVE",
"230 680 CURVE SMOOTH",
"217 680 OFFCURVE",
"188 671 OFFCURVE",
"127 612 CURVE SMOOTH",
"96 583 OFFCURVE",
"73 559 OFFCURVE",
"73 523 CURVE SMOOTH",
"73 493 OFFCURVE",
"90 473 OFFCURVE",
"122 443 CURVE",
"122 401 LINE"
);
}
);
width = 653;
},
{
anchors = (
{
name = abvm;
position = "{313, 760}";
},
{
name = blwm;
position = "{313, 0}";
}
);
layerId = "37E1EBAF-DBB8-42B6-8B14-41DF5B276D12";
paths = (
{
closed = 1;
nodes = (
"476 227 LINE",
"476 136 LINE SMOOTH",
"476 77 OFFCURVE",
"405 26 OFFCURVE",
"313 26 CURVE SMOOTH",
"223 26 OFFCURVE",
"150 76 OFFCURVE",
"150 136 CURVE SMOOTH",
"150 430 LINE",
"124 430 LINE",
"124 132 LINE SMOOTH",
"124 54 OFFCURVE",
"213 0 OFFCURVE",
"313 0 CURVE SMOOTH",
"413 0 OFFCURVE",
"502 62 OFFCURVE",
"502 132 CURVE SMOOTH",
"502 227 LINE"
);
},
{
closed = 1;
nodes = (
"502 409 LINE SMOOTH",
"502 434 OFFCURVE",
"493 441 OFFCURVE",
"476 441 CURVE SMOOTH",
"428 441 OFFCURVE",
"385 387 OFFCURVE",
"385 326 CURVE SMOOTH",
"385 269 OFFCURVE",
"424 230 OFFCURVE",
"476 227 CURVE",
"476 219 LINE",
"502 219 LINE"
);
},
{
closed = 1;
nodes = (
"457 253 OFFCURVE",
"411 267 OFFCURVE",
"411 325 CURVE SMOOTH",
"411 376 OFFCURVE",
"447 414 OFFCURVE",
"476 414 CURVE",
"476 253 LINE"
);
},
{
closed = 1;
nodes = (
"150 422 LINE",
"150 472 LINE",
"116 508 OFFCURVE",
"87 539 OFFCURVE",
"87 551 CURVE SMOOTH",
"87 560 OFFCURVE",
"98 579 OFFCURVE",
"138 615 CURVE SMOOTH",
"171 645 OFFCURVE",
"191 656 OFFCURVE",
"200 656 CURVE SMOOTH",
"211 656 OFFCURVE",
"228 637 OFFCURVE",
"249 614 CURVE SMOOTH",
"288 571 OFFCURVE",
"300 559 OFFCURVE",
"317 559 CURVE SMOOTH",
"341 559 OFFCURVE",
"363 581 OFFCURVE",
"388 608 CURVE SMOOTH",
"410 632 OFFCURVE",
"431 655 OFFCURVE",
"440 655 CURVE SMOOTH",
"455 655 OFFCURVE",
"536 541 OFFCURVE",
"561 541 CURVE SMOOTH",
"572 541 OFFCURVE",
"580 549 OFFCURVE",
"580 566 CURVE",
"554 568 OFFCURVE",
"542 584 OFFCURVE",
"514 616 CURVE SMOOTH",
"487 646 LINE SMOOTH",
"469 666 OFFCURVE",
"455 682 OFFCURVE",
"441 682 CURVE SMOOTH",
"428 682 OFFCURVE",
"403 659 OFFCURVE",
"367 623 CURVE SMOOTH",
"337 593 OFFCURVE",
"327 586 OFFCURVE",
"320 586 CURVE SMOOTH",
"310 586 OFFCURVE",
"294 604 OFFCURVE",
"266 635 CURVE SMOOTH",
"232 672 OFFCURVE",
"218 682 OFFCURVE",
"200 682 CURVE SMOOTH",
"177 682 OFFCURVE",
"155 667 OFFCURVE",
"119 634 CURVE SMOOTH",
"73 591 OFFCURVE",
"60 568 OFFCURVE",
"60 550 CURVE SMOOTH",
"60 531 OFFCURVE",
"79 510 OFFCURVE",
"124 460 CURVE",
"124 422 LINE"
);
}
);
width = 626;
},
{
anchors = (
{
name = abvm;
position = "{345, 760}";
},
{
name = blwm;
position = "{345, 0}";
}
);
layerId = "33F44B55-ADBD-4698-98EB-0F29A0B3A069";
paths = (
{
closed = 1;
nodes = (
"432 185 LINE",
"432 166 LINE SMOOTH",
"432 122 OFFCURVE",
"405 102 OFFCURVE",
"345 102 CURVE SMOOTH",
"288 102 OFFCURVE",
"260 120 OFFCURVE",
"260 166 CURVE SMOOTH",
"260 410 LINE",
"80 410 LINE",
"80 146 LINE SMOOTH",
"80 61 OFFCURVE",
"184 0 OFFCURVE",
"345 0 CURVE SMOOTH",
"503 0 OFFCURVE",
"612 60 OFFCURVE",
"612 146 CURVE SMOOTH",
"612 185 LINE"
);
},
{
closed = 1;
nodes = (
"612 371 LINE SMOOTH",
"612 435 OFFCURVE",
"580 464 OFFCURVE",
"497 464 CURVE SMOOTH",
"374 464 OFFCURVE",
"308 397 OFFCURVE",
"308 317 CURVE SMOOTH",
"308 207 OFFCURVE",
"424 199 OFFCURVE",
"432 199 CURVE",
"432 168 LINE",
"612 168 LINE"
);
},
{
closed = 1;
nodes = (
"413 290 OFFCURVE",
"399 304 OFFCURVE",
"399 327 CURVE SMOOTH",
"399 349 OFFCURVE",
"412 367 OFFCURVE",
"432 377 CURVE",
"432 289 LINE"
);
},
{
closed = 1;
nodes = (
"260 333 LINE",
"260 471 LINE",
"219 498 OFFCURVE",
"155 533 OFFCURVE",
"155 555 CURVE SMOOTH",
"155 559 OFFCURVE",
"159 565 OFFCURVE",
"163 568 CURVE SMOOTH",
"167 571 OFFCURVE",
"171 574 OFFCURVE",
"176 574 CURVE SMOOTH",
"180 574 OFFCURVE",
"185 570 OFFCURVE",
"198 559 CURVE SMOOTH",
"235 527 OFFCURVE",
"268 509 OFFCURVE",
"310 509 CURVE SMOOTH",
"344 509 OFFCURVE",
"377 520 OFFCURVE",
"409 540 CURVE SMOOTH",
"430 553 OFFCURVE",
"446 563 OFFCURVE",
"451 563 CURVE SMOOTH",
"473 563 OFFCURVE",
"502 507 OFFCURVE",
"560 507 CURVE SMOOTH",
"599 507 OFFCURVE",
"652 533 OFFCURVE",
"669 602 CURVE",
"625 593 OFFCURVE",
"611 601 OFFCURVE",
"577 632 CURVE SMOOTH",
"545 662 LINE SMOOTH",
"512 693 OFFCURVE",
"496 701 OFFCURVE",
"484 701 CURVE SMOOTH",
"469 701 OFFCURVE",
"442 679 OFFCURVE",
"404 648 CURVE SMOOTH",
"368 618 OFFCURVE",
"356 608 OFFCURVE",
"344 608 CURVE SMOOTH",
"334 608 OFFCURVE",
"324 617 OFFCURVE",
"280 656 CURVE SMOOTH",
"242 690 OFFCURVE",
"223 702 OFFCURVE",
"207 702 CURVE SMOOTH",
"190 702 OFFCURVE",
"158 688 OFFCURVE",
"106 647 CURVE SMOOTH",
"38 593 OFFCURVE",
"33 558 OFFCURVE",
"33 537 CURVE SMOOTH",
"33 501 OFFCURVE",
"51 475 OFFCURVE",
"80 450 CURVE",
"80 333 LINE"
);
}
);
width = 708;
},
{
anchors = (
{
name = abvm;
position = "{301, 760}";
},
{
name = blwm;
position = "{301, 0}";
}
);
layerId = "2845A654-27C0-4D24-8E0C-7DAF9BC7668A";
paths = (
{
closed = 1;
nodes = (
"373 185 LINE",
"373 166 LINE SMOOTH",
"373 132 OFFCURVE",
"351 102 OFFCURVE",
"301 102 CURVE SMOOTH",
"253 102 OFFCURVE",
"230 130 OFFCURVE",
"230 166 CURVE SMOOTH",
"230 410 LINE",
"80 410 LINE",
"80 146 LINE SMOOTH",
"80 61 OFFCURVE",
"167 0 OFFCURVE",
"301 0 CURVE SMOOTH",
"433 0 OFFCURVE",
"523 60 OFFCURVE",
"523 146 CURVE SMOOTH",
"523 185 LINE"
);
},
{
closed = 1;
nodes = (
"523 371 LINE SMOOTH",
"523 435 OFFCURVE",
"499 464 OFFCURVE",
"430 464 CURVE SMOOTH",
"327 464 OFFCURVE",
"270 400 OFFCURVE",
"270 319 CURVE SMOOTH",
"270 210 OFFCURVE",
"367 199 OFFCURVE",
"373 199 CURVE",
"373 168 LINE",
"523 168 LINE"
);
},
{
closed = 1;
nodes = (
"357 293 OFFCURVE",
"346 307 OFFCURVE",
"346 329 CURVE SMOOTH",
"346 352 OFFCURVE",
"358 367 OFFCURVE",
"373 377 CURVE",
"373 289 LINE"
);
},
{
closed = 1;
nodes = (
"230 333 LINE",
"230 470 LINE",
"196 497 OFFCURVE",
"143 532 OFFCURVE",
"143 554 CURVE SMOOTH",
"143 558 OFFCURVE",
"146 564 OFFCURVE",
"149 567 CURVE SMOOTH",
"153 571 OFFCURVE",
"156 573 OFFCURVE",
"160 573 CURVE SMOOTH",
"165 573 OFFCURVE",
"168 569 OFFCURVE",
"179 558 CURVE SMOOTH",
"210 527 OFFCURVE",
"237 508 OFFCURVE",
"272 508 CURVE SMOOTH",
"300 508 OFFCURVE",
"328 519 OFFCURVE",
"354 539 CURVE SMOOTH",
"372 553 OFFCURVE",
"384 562 OFFCURVE",
"389 562 CURVE SMOOTH",
"408 562 OFFCURVE",
"432 506 OFFCURVE",
"480 506 CURVE SMOOTH",
"513 506 OFFCURVE",
"557 532 OFFCURVE",
"571 601 CURVE",
"534 592 OFFCURVE",
"522 599 OFFCURVE",
"494 631 CURVE SMOOTH",
"468 661 LINE SMOOTH",
"441 693 OFFCURVE",
"427 700 OFFCURVE",
"417 700 CURVE SMOOTH",
"403 700 OFFCURVE",
"382 679 OFFCURVE",
"350 647 CURVE SMOOTH",
"320 617 OFFCURVE",
"310 607 OFFCURVE",
"300 607 CURVE SMOOTH",
"293 607 OFFCURVE",
"284 616 OFFCURVE",
"247 655 CURVE SMOOTH",
"215 689 OFFCURVE",
"199 701 OFFCURVE",
"186 701 CURVE SMOOTH",
"172 701 OFFCURVE",
"145 687 OFFCURVE",
"102 646 CURVE SMOOTH",
"45 592 OFFCURVE",
"41 557 OFFCURVE",
"41 536 CURVE SMOOTH",
"41 500 OFFCURVE",
"56 474 OFFCURVE",
"80 449 CURVE",
"80 333 LINE"
);
}
);
width = 609;
},
{
anchors = (
{
name = abvm;
position = "{299, 760}";
},
{
name = blwm;
position = "{299, 0}";
}
);
layerId = "BB318BD9-DEF5-4D27-998D-30B020A0DD4F";
paths = (
{
closed = 1;
nodes = (
"407 192 LINE",
"407 146 LINE SMOOTH",
"407 108 OFFCURVE",
"370 67 OFFCURVE",
"299 67 CURVE SMOOTH",
"231 67 OFFCURVE",
"191 106 OFFCURVE",
"191 146 CURVE SMOOTH",
"191 415 LINE",
"114 415 LINE",
"114 146 LINE SMOOTH",
"114 72 OFFCURVE",
"187 0 OFFCURVE",
"299 0 CURVE SMOOTH",
"409 0 OFFCURVE",
"484 70 OFFCURVE",
"484 146 CURVE SMOOTH",
"484 192 LINE"
);
},
{
closed = 1;
nodes = (
"484 395 LINE SMOOTH",
"484 428 OFFCURVE",
"467 448 OFFCURVE",
"429 448 CURVE SMOOTH",
"368 448 OFFCURVE",
"315 404 OFFCURVE",
"315 333 CURVE SMOOTH",
"315 269 OFFCURVE",
"358 228 OFFCURVE",
"407 228 CURVE",
"407 186 LINE",
"484 186 LINE"
);
},
{
closed = 1;
nodes = (
"389 295 OFFCURVE",
"369 308 OFFCURVE",
"369 338 CURVE SMOOTH",
"369 368 OFFCURVE",
"388 386 OFFCURVE",
"407 386 CURVE",
"407 295 LINE"
);
},
{
closed = 1;
nodes = (
"191 401 LINE",
"191 471 LINE",
"151 523 OFFCURVE",
"148 530 OFFCURVE",
"148 540 CURVE SMOOTH",
"148 550 OFFCURVE",
"152 558 OFFCURVE",
"161 567 CURVE SMOOTH",
"168 575 OFFCURVE",
"176 579 OFFCURVE",
"184 579 CURVE SMOOTH",
"196 579 OFFCURVE",
"202 574 OFFCURVE",
"233 540 CURVE SMOOTH",
"256 514 OFFCURVE",
"276 500 OFFCURVE",
"294 500 CURVE SMOOTH",
"310 500 OFFCURVE",
"327 510 OFFCURVE",
"345 535 CURVE SMOOTH",
"362 560 OFFCURVE",
"374 574 OFFCURVE",
"390 574 CURVE SMOOTH",
"429 574 OFFCURVE",
"436 500 OFFCURVE",
"482 500 CURVE SMOOTH",
"504 500 OFFCURVE",
"533 533 OFFCURVE",
"541 582 CURVE",
"516 573 OFFCURVE",
"496 585 OFFCURVE",
"481 604 CURVE SMOOTH",
"444 652 LINE SMOOTH",
"428 672 OFFCURVE",
"417 680 OFFCURVE",
"408 680 CURVE SMOOTH",
"395 680 OFFCURVE",
"377 663 OFFCURVE",
"351 628 CURVE SMOOTH",
"326 596 OFFCURVE",
"318 586 OFFCURVE",
"309 586 CURVE SMOOTH",
"298 586 OFFCURVE",
"291 595 OFFCURVE",
"264 628 CURVE SMOOTH",
"233 664 OFFCURVE",
"217 680 OFFCURVE",
"204 680 CURVE SMOOTH",
"193 680 OFFCURVE",
"169 670 OFFCURVE",
"123 617 CURVE SMOOTH",
"92 582 OFFCURVE",
"73 557 OFFCURVE",
"73 519 CURVE SMOOTH",
"73 491 OFFCURVE",
"87 473 OFFCURVE",
"114 443 CURVE",
"114 401 LINE"
);
}
);
width = 571;
},
{
anchors = (
{
name = abvm;
position = "{270, 760}";
},
{
name = blwm;
position = "{270, 0}";
}
);
layerId = "1DC75306-0750-4696-AEC7-032F44743549";
paths = (
{
closed = 1;
nodes = (
"406 227 LINE",
"406 136 LINE SMOOTH",
"406 77 OFFCURVE",
"342 26 OFFCURVE",
"271 26 CURVE SMOOTH",
"200 26 OFFCURVE",
"140 76 OFFCURVE",
"140 136 CURVE SMOOTH",
"140 430 LINE",
"114 430 LINE",
"114 132 LINE SMOOTH",
"114 54 OFFCURVE",
"193 0 OFFCURVE",
"270 0 CURVE SMOOTH",
"353 0 OFFCURVE",
"432 62 OFFCURVE",
"432 132 CURVE SMOOTH",
"432 227 LINE"
);
},
{
closed = 1;
nodes = (
"432 409 LINE SMOOTH",
"432 434 OFFCURVE",
"422 441 OFFCURVE",
"407 441 CURVE SMOOTH",
"367 441 OFFCURVE",
"329 391 OFFCURVE",
"329 331 CURVE SMOOTH",
"329 276 OFFCURVE",
"364 230 OFFCURVE",
"406 227 CURVE",
"406 219 LINE",
"432 219 LINE"
);
},
{
closed = 1;
nodes = (
"387 253 OFFCURVE",
"355 278 OFFCURVE",
"355 328 CURVE SMOOTH",
"355 378 OFFCURVE",
"387 414 OFFCURVE",
"406 414 CURVE",
"406 253 LINE"
);
},
{
closed = 1;
nodes = (
"140 422 LINE",
"140 472 LINE",
"106 508 OFFCURVE",
"87 532 OFFCURVE",
"87 548 CURVE SMOOTH",
"87 560 OFFCURVE",
"98 578 OFFCURVE",
"130 617 CURVE SMOOTH",
"156 649 OFFCURVE",
"166 656 OFFCURVE",
"176 656 CURVE SMOOTH",
"189 656 OFFCURVE",
"201 643 OFFCURVE",
"217 620 CURVE SMOOTH",
"250 572 OFFCURVE",
"259 559 OFFCURVE",
"276 559 CURVE SMOOTH",
"290 559 OFFCURVE",
"315 584 OFFCURVE",
"333 607 CURVE SMOOTH",
"353 632 OFFCURVE",
"371 655 OFFCURVE",
"377 655 CURVE SMOOTH",
"394 655 OFFCURVE",
"433 537 OFFCURVE",
"476 537 CURVE SMOOTH",
"487 537 OFFCURVE",
"498 545 OFFCURVE",
"498 562 CURVE",
"472 564 OFFCURVE",
"456 586 OFFCURVE",
"447 601 CURVE SMOOTH",
"420 647 LINE SMOOTH",
"407 670 OFFCURVE",
"397 682 OFFCURVE",
"380 682 CURVE SMOOTH",
"360 682 OFFCURVE",
"345 663 OFFCURVE",
"324 637 CURVE SMOOTH",
"299 606 OFFCURVE",
"284 588 OFFCURVE",
"276 588 CURVE SMOOTH",
"268 588 OFFCURVE",
"261 605 OFFCURVE",
"235 639 CURVE SMOOTH",
"206 677 OFFCURVE",
"190 682 OFFCURVE",
"176 682 CURVE SMOOTH",
"155 682 OFFCURVE",
"141 671 OFFCURVE",
"115 639 CURVE SMOOTH",
"83 600 OFFCURVE",
"60 572 OFFCURVE",
"60 549 CURVE SMOOTH",
"60 533 OFFCURVE",
"69 510 OFFCURVE",
"114 460 CURVE",
"114 422 LINE"
);
}
);
width = 554;
}
);
note = uni1785;
unicode = 1785;
},
{
glyphname = uni1786;
lastChange = "2017-12-14 20:43:12 +0000";
layers = (
{
anchors = (
{
name = abvm;
position = "{330, 760}";
},
{
name = blwm;
position = "{330, 0}";
}
);
layerId = "88BEB7F0-7448-46FF-842C-45A92B9492CE";
paths = (
{
closed = 1;
nodes = (
"102 427 LINE",
"102 224 LINE",
"45 224 OFFCURVE",
"12 191 OFFCURVE",
"12 140 CURVE SMOOTH",
"12 101 OFFCURVE",
"32 68 OFFCURVE",
"102 0 CURVE",
"194 0 LINE",
"194 157 LINE",
"230 155 OFFCURVE",
"251 146 OFFCURVE",
"284 92 CURVE SMOOTH",
"311 48 OFFCURVE",
"332 0 OFFCURVE",
"412 0 CURVE SMOOTH",
"497 0 OFFCURVE",
"566 55 OFFCURVE",
"566 143 CURVE SMOOTH",
"566 194 LINE",
"474 194 LINE",
"474 122 LINE SMOOTH",
"474 87 OFFCURVE",
"456 57 OFFCURVE",
"411 57 CURVE SMOOTH",
"365 57 OFFCURVE",
"363 89 OFFCURVE",
"337 137 CURVE SMOOTH",
"307 192 OFFCURVE",
"267 224 OFFCURVE",
"194 224 CURVE",
"194 427 LINE"
);
},
{
closed = 1;
nodes = (
"85 110 OFFCURVE",
"79 120 OFFCURVE",
"79 134 CURVE SMOOTH",
"79 148 OFFCURVE",
"85 156 OFFCURVE",
"102 157 CURVE",
"102 94 LINE"
);
},
{
closed = 1;
nodes = (
"566 385 LINE SMOOTH",
"566 418 OFFCURVE",
"546 438 OFFCURVE",
"499 438 CURVE SMOOTH",
"427 438 OFFCURVE",
"364 391 OFFCURVE",
"364 319 CURVE SMOOTH",
"364 256 OFFCURVE",
"416 218 OFFCURVE",
"474 218 CURVE",
"474 176 LINE",
"566 176 LINE"
);
},
{
closed = 1;
nodes = (
"453 285 OFFCURVE",
"429 297 OFFCURVE",
"429 327 CURVE SMOOTH",
"429 357 OFFCURVE",
"452 376 OFFCURVE",
"474 376 CURVE",
"474 285 LINE"
);
},
{
closed = 1;
nodes = (
"194 401 LINE",
"194 471 LINE",
"146 523 OFFCURVE",
"143 530 OFFCURVE",
"143 540 CURVE SMOOTH",
"143 550 OFFCURVE",
"148 558 OFFCURVE",
"158 567 CURVE SMOOTH",
"167 575 OFFCURVE",
"176 580 OFFCURVE",
"187 580 CURVE SMOOTH",
"198 580 OFFCURVE",
"207 572 OFFCURVE",
"245 540 CURVE SMOOTH",
"273 517 OFFCURVE",
"297 500 OFFCURVE",
"319 500 CURVE SMOOTH",
"337 500 OFFCURVE",
"355 513 OFFCURVE",
"384 539 CURVE SMOOTH",
"404 558 OFFCURVE",
"421 574 OFFCURVE",
"440 574 CURVE SMOOTH",
"485 574 OFFCURVE",
"492 500 OFFCURVE",
"545 500 CURVE SMOOTH",
"574 500 OFFCURVE",
"604 523 OFFCURVE",
"615 582 CURVE",
"584 576 OFFCURVE",
"560 585 OFFCURVE",
"543 604 CURVE SMOOTH",
"498 652 LINE SMOOTH",
"479 672 OFFCURVE",
"466 680 OFFCURVE",
"455 680 CURVE SMOOTH",
"439 680 OFFCURVE",
"418 661 OFFCURVE",
"386 628 CURVE SMOOTH",
"355 597 OFFCURVE",
"345 587 OFFCURVE",
"335 587 CURVE SMOOTH",
"324 587 OFFCURVE",
"315 595 OFFCURVE",
"282 628 CURVE SMOOTH",
"245 664 OFFCURVE",
"226 680 OFFCURVE",
"210 680 CURVE SMOOTH",
"197 680 OFFCURVE",
"168 671 OFFCURVE",
"107 612 CURVE SMOOTH",
"76 583 OFFCURVE",
"53 559 OFFCURVE",
"53 523 CURVE SMOOTH",
"53 493 OFFCURVE",
"70 473 OFFCURVE",
"102 443 CURVE",
"102 401 LINE"
);
}
);
width = 649;
},
{
anchors = (
{
name = abvm;
position = "{325, 760}";
},
{
name = blwm;
position = "{325, 0}";
}
);
layerId = "37E1EBAF-DBB8-42B6-8B14-41DF5B276D12";
paths = (
{
closed = 1;
nodes = (
"134 433 LINE",
"134 202 LINE",
"110 200 OFFCURVE",
"72 184 OFFCURVE",
"72 128 CURVE SMOOTH",
"72 88 OFFCURVE",
"92 43 OFFCURVE",
"134 0 CURVE",
"160 0 LINE",
"160 176 LINE",
"201 171 OFFCURVE",
"249 146 OFFCURVE",
"289 98 CURVE SMOOTH",
"324 56 OFFCURVE",
"350 0 OFFCURVE",
"417 0 CURVE SMOOTH",
"490 0 OFFCURVE",
"532 62 OFFCURVE",
"532 151 CURVE SMOOTH",
"532 207 LINE",
"506 207 LINE",
"506 151 LINE SMOOTH",
"506 87 OFFCURVE",
"483 26 OFFCURVE",
"417 26 CURVE SMOOTH",
"360 26 OFFCURVE",
"350 72 OFFCURVE",
"302 123 CURVE SMOOTH",
"262 166 OFFCURVE",
"208 198 OFFCURVE",
"160 202 CURVE",
"160 433 LINE"
);
},
{
closed = 1;
nodes = (
"115 60 OFFCURVE",
"98 91 OFFCURVE",
"98 123 CURVE SMOOTH",
"98 157 OFFCURVE",
"117 173 OFFCURVE",
"134 176 CURVE",
"134 35 LINE"
);
},
{
closed = 1;
nodes = (
"532 393 LINE SMOOTH",
"532 418 OFFCURVE",
"523 425 OFFCURVE",
"506 425 CURVE SMOOTH",
"458 425 OFFCURVE",
"415 371 OFFCURVE",
"415 310 CURVE SMOOTH",
"415 253 OFFCURVE",
"454 214 OFFCURVE",
"506 211 CURVE",
"506 203 LINE",
"532 203 LINE"
);
},
{
closed = 1;
nodes = (
"487 237 OFFCURVE",
"441 251 OFFCURVE",
"441 309 CURVE SMOOTH",
"441 360 OFFCURVE",
"477 398 OFFCURVE",
"506 398 CURVE",
"506 237 LINE"
);
},
{
closed = 1;
nodes = (
"160 422 LINE",
"160 472 LINE",
"126 508 OFFCURVE",
"97 539 OFFCURVE",
"97 551 CURVE SMOOTH",
"97 560 OFFCURVE",
"108 579 OFFCURVE",
"148 615 CURVE SMOOTH",
"181 645 OFFCURVE",
"201 656 OFFCURVE",
"210 656 CURVE SMOOTH",
"221 656 OFFCURVE",
"238 637 OFFCURVE",
"259 614 CURVE SMOOTH",
"298 571 OFFCURVE",
"310 559 OFFCURVE",
"327 559 CURVE SMOOTH",
"351 559 OFFCURVE",
"373 581 OFFCURVE",
"398 608 CURVE SMOOTH",
"420 632 OFFCURVE",
"441 655 OFFCURVE",
"450 655 CURVE SMOOTH",
"465 655 OFFCURVE",
"546 541 OFFCURVE",
"571 541 CURVE SMOOTH",
"582 541 OFFCURVE",
"590 549 OFFCURVE",
"590 566 CURVE",
"564 568 OFFCURVE",
"552 584 OFFCURVE",
"524 616 CURVE SMOOTH",
"497 646 LINE SMOOTH",
"479 666 OFFCURVE",
"465 682 OFFCURVE",
"451 682 CURVE SMOOTH",
"438 682 OFFCURVE",
"413 659 OFFCURVE",
"377 623 CURVE SMOOTH",
"347 593 OFFCURVE",
"337 586 OFFCURVE",
"330 586 CURVE SMOOTH",
"320 586 OFFCURVE",
"304 604 OFFCURVE",
"276 635 CURVE SMOOTH",
"242 672 OFFCURVE",
"228 682 OFFCURVE",
"210 682 CURVE SMOOTH",
"187 682 OFFCURVE",
"165 667 OFFCURVE",
"129 634 CURVE SMOOTH",
"83 591 OFFCURVE",
"70 568 OFFCURVE",
"70 550 CURVE SMOOTH",
"70 531 OFFCURVE",
"89 510 OFFCURVE",
"134 460 CURVE",
"134 422 LINE"
);
}
);
width = 660;
},
{
anchors = (
{
name = abvm;
position = "{404, 760}";
},
{
name = blwm;
position = "{404, 0}";
}
);
layerId = "33F44B55-ADBD-4698-98EB-0F29A0B3A069";
paths = (
{
closed = 1;
nodes = (
"123 381 LINE",
"123 256 LINE",
"32 249 OFFCURVE",
"10 188 OFFCURVE",
"10 144 CURVE SMOOTH",
"10 94 OFFCURVE",
"39 31 OFFCURVE",
"123 0 CURVE",
"303 0 LINE",
"303 140 LINE",
"325 126 OFFCURVE",
"331 104 OFFCURVE",
"345 79 CURVE SMOOTH",
"375 26 OFFCURVE",
"421 0 OFFCURVE",
"496 0 CURVE SMOOTH",
"626 0 OFFCURVE",
"675 75 OFFCURVE",
"675 132 CURVE SMOOTH",
"675 186 LINE",
"495 186 LINE",
"495 138 LINE SMOOTH",
"495 101 OFFCURVE",
"485 92 OFFCURVE",
"472 92 CURVE SMOOTH",
"450 92 OFFCURVE",
"445 117 OFFCURVE",
"433 143 CURVE SMOOTH",
"411 191 OFFCURVE",
"363 248 OFFCURVE",
"303 256 CURVE",
"303 381 LINE"
);
},
{
closed = 1;
nodes = (
"106 101 OFFCURVE",
"100 111 OFFCURVE",
"100 125 CURVE SMOOTH",
"100 139 OFFCURVE",
"106 151 OFFCURVE",
"123 152 CURVE",
"123 85 LINE"
);
},
{
closed = 1;
nodes = (
"675 373 LINE SMOOTH",
"675 437 OFFCURVE",
"643 466 OFFCURVE",
"560 466 CURVE SMOOTH",
"437 466 OFFCURVE",
"371 399 OFFCURVE",
"371 319 CURVE SMOOTH",
"371 209 OFFCURVE",
"487 201 OFFCURVE",
"495 201 CURVE",
"495 170 LINE",
"675 170 LINE"
);
},
{
closed = 1;
nodes = (
"476 292 OFFCURVE",
"462 306 OFFCURVE",
"462 329 CURVE SMOOTH",
"462 351 OFFCURVE",
"475 369 OFFCURVE",
"495 379 CURVE",
"495 291 LINE"
);
},
{
closed = 1;
nodes = (
"303 333 LINE",
"303 471 LINE",
"262 498 OFFCURVE",
"198 533 OFFCURVE",
"198 555 CURVE SMOOTH",
"198 559 OFFCURVE",
"202 565 OFFCURVE",
"206 568 CURVE SMOOTH",
"210 571 OFFCURVE",
"214 574 OFFCURVE",
"219 574 CURVE SMOOTH",
"223 574 OFFCURVE",
"228 570 OFFCURVE",
"241 559 CURVE SMOOTH",
"278 527 OFFCURVE",
"311 509 OFFCURVE",
"353 509 CURVE SMOOTH",
"387 509 OFFCURVE",
"420 520 OFFCURVE",
"452 540 CURVE SMOOTH",
"473 553 OFFCURVE",
"489 563 OFFCURVE",
"494 563 CURVE SMOOTH",
"516 563 OFFCURVE",
"545 507 OFFCURVE",
"603 507 CURVE SMOOTH",
"642 507 OFFCURVE",
"695 533 OFFCURVE",
"712 602 CURVE",
"668 593 OFFCURVE",
"654 601 OFFCURVE",
"620 632 CURVE SMOOTH",
"588 662 LINE SMOOTH",
"555 693 OFFCURVE",
"539 701 OFFCURVE",
"527 701 CURVE SMOOTH",
"512 701 OFFCURVE",
"485 679 OFFCURVE",
"447 648 CURVE SMOOTH",
"411 618 OFFCURVE",
"399 608 OFFCURVE",
"387 608 CURVE SMOOTH",
"377 608 OFFCURVE",
"367 617 OFFCURVE",
"323 656 CURVE SMOOTH",
"285 690 OFFCURVE",
"266 702 OFFCURVE",
"250 702 CURVE SMOOTH",
"233 702 OFFCURVE",
"201 688 OFFCURVE",
"149 647 CURVE SMOOTH",
"81 593 OFFCURVE",
"76 558 OFFCURVE",
"76 537 CURVE SMOOTH",
"76 501 OFFCURVE",
"94 475 OFFCURVE",
"123 450 CURVE",
"123 333 LINE"
);
}
);
width = 752;
},
{
anchors = (
{
name = abvm;
position = "{329, 760}";
},
{
name = blwm;
position = "{329, 0}";
}
);
layerId = "2845A654-27C0-4D24-8E0C-7DAF9BC7668A";
paths = (
{
closed = 1;
nodes = (
"104 381 LINE",
"104 256 LINE",
"28 249 OFFCURVE",
"6 185 OFFCURVE",
"6 141 CURVE SMOOTH",
"6 94 OFFCURVE",
"32 33 OFFCURVE",
"104 0 CURVE",
"254 0 LINE",
"254 140 LINE",
"273 128 OFFCURVE",
"278 104 OFFCURVE",
"291 76 CURVE SMOOTH",
"313 25 OFFCURVE",
"344 0 OFFCURVE",
"407 0 CURVE SMOOTH",
"515 0 OFFCURVE",
"564 75 OFFCURVE",
"564 132 CURVE SMOOTH",
"564 186 LINE",
"414 186 LINE",
"414 138 LINE SMOOTH",
"414 101 OFFCURVE",
"404 92 OFFCURVE",
"393 92 CURVE SMOOTH",
"375 92 OFFCURVE",
"373 117 OFFCURVE",
"362 146 CURVE SMOOTH",
"344 191 OFFCURVE",
"304 248 OFFCURVE",
"254 256 CURVE",
"254 381 LINE"
);
},
{
closed = 1;
nodes = (
"88 95 OFFCURVE",
"81 109 OFFCURVE",
"81 122 CURVE SMOOTH",
"81 137 OFFCURVE",
"90 149 OFFCURVE",
"104 150 CURVE",
"104 83 LINE"
);
},
{
closed = 1;
nodes = (
"564 373 LINE SMOOTH",
"564 437 OFFCURVE",
"540 466 OFFCURVE",
"471 466 CURVE SMOOTH",
"368 466 OFFCURVE",
"311 402 OFFCURVE",
"311 321 CURVE SMOOTH",
"311 212 OFFCURVE",
"408 201 OFFCURVE",
"414 201 CURVE",
"414 170 LINE",
"564 170 LINE"
);
},
{
closed = 1;
nodes = (
"398 295 OFFCURVE",
"387 309 OFFCURVE",
"387 331 CURVE SMOOTH",
"387 354 OFFCURVE",
"399 369 OFFCURVE",
"414 379 CURVE",
"414 291 LINE"
);
},
{
closed = 1;
nodes = (
"254 333 LINE",
"254 470 LINE",
"220 497 OFFCURVE",
"167 532 OFFCURVE",
"167 554 CURVE SMOOTH",
"167 558 OFFCURVE",
"170 564 OFFCURVE",
"173 567 CURVE SMOOTH",
"177 571 OFFCURVE",
"180 573 OFFCURVE",
"184 573 CURVE SMOOTH",
"189 573 OFFCURVE",
"192 569 OFFCURVE",
"203 558 CURVE SMOOTH",
"234 527 OFFCURVE",
"261 508 OFFCURVE",
"296 508 CURVE SMOOTH",
"324 508 OFFCURVE",
"352 519 OFFCURVE",
"378 539 CURVE SMOOTH",
"396 553 OFFCURVE",
"408 562 OFFCURVE",
"413 562 CURVE SMOOTH",
"432 562 OFFCURVE",
"456 506 OFFCURVE",
"504 506 CURVE SMOOTH",
"537 506 OFFCURVE",
"581 532 OFFCURVE",
"595 601 CURVE",
"558 592 OFFCURVE",
"546 599 OFFCURVE",
"518 631 CURVE SMOOTH",
"492 661 LINE SMOOTH",
"465 693 OFFCURVE",
"451 700 OFFCURVE",
"441 700 CURVE SMOOTH",
"427 700 OFFCURVE",
"406 679 OFFCURVE",
"374 647 CURVE SMOOTH",
"344 617 OFFCURVE",
"334 607 OFFCURVE",
"324 607 CURVE SMOOTH",
"317 607 OFFCURVE",
"308 616 OFFCURVE",
"271 655 CURVE SMOOTH",
"239 689 OFFCURVE",
"223 701 OFFCURVE",
"210 701 CURVE SMOOTH",
"196 701 OFFCURVE",
"169 687 OFFCURVE",
"126 646 CURVE SMOOTH",
"69 592 OFFCURVE",
"65 557 OFFCURVE",
"65 536 CURVE SMOOTH",
"65 500 OFFCURVE",
"80 474 OFFCURVE",
"104 449 CURVE",
"104 333 LINE"
);
}
);
width = 643;
},
{
anchors = (
{
name = abvm;
position = "{295, 760}";
},
{
name = blwm;
position = "{295, 0}";
}
);
layerId = "BB318BD9-DEF5-4D27-998D-30B020A0DD4F";
paths = (
{
closed = 1;
nodes = (
"107 427 LINE",
"107 224 LINE",
"60 224 OFFCURVE",
"30 190 OFFCURVE",
"30 140 CURVE SMOOTH",
"30 100 OFFCURVE",
"49 62 OFFCURVE",
"107 0 CURVE",
"184 0 LINE",
"184 157 LINE",
"214 155 OFFCURVE",
"238 139 OFFCURVE",
"264 78 CURVE SMOOTH",
"277 49 OFFCURVE",
"299 0 OFFCURVE",
"369 0 CURVE SMOOTH",
"446 0 OFFCURVE",
"494 55 OFFCURVE",
"494 143 CURVE SMOOTH",
"494 194 LINE",
"417 194 LINE",
"417 122 LINE SMOOTH",
"417 87 OFFCURVE",
"402 57 OFFCURVE",
"365 57 CURVE SMOOTH",
"326 57 OFFCURVE",
"323 89 OFFCURVE",
"303 134 CURVE SMOOTH",
"276 196 OFFCURVE",
"245 220 OFFCURVE",
"184 224 CURVE",
"184 427 LINE"
);
},
{
closed = 1;
nodes = (
"93 110 OFFCURVE",
"86 121 OFFCURVE",
"86 135 CURVE SMOOTH",
"86 149 OFFCURVE",
"93 156 OFFCURVE",
"107 157 CURVE",
"107 94 LINE"
);
},
{
closed = 1;
nodes = (
"494 385 LINE SMOOTH",
"494 418 OFFCURVE",
"477 438 OFFCURVE",
"439 438 CURVE SMOOTH",
"378 438 OFFCURVE",
"325 394 OFFCURVE",
"325 323 CURVE SMOOTH",
"325 259 OFFCURVE",
"368 218 OFFCURVE",
"417 218 CURVE",
"417 176 LINE",
"494 176 LINE"
);
},
{
closed = 1;
nodes = (
"399 285 OFFCURVE",
"379 298 OFFCURVE",
"379 328 CURVE SMOOTH",
"379 358 OFFCURVE",
"398 376 OFFCURVE",
"417 376 CURVE",
"417 285 LINE"
);
},
{
closed = 1;
nodes = (
"184 401 LINE",
"184 471 LINE",
"144 523 OFFCURVE",
"141 530 OFFCURVE",
"141 540 CURVE SMOOTH",
"141 550 OFFCURVE",
"145 558 OFFCURVE",
"154 567 CURVE SMOOTH",
"161 575 OFFCURVE",
"169 579 OFFCURVE",
"177 579 CURVE SMOOTH",
"189 579 OFFCURVE",
"195 574 OFFCURVE",
"226 540 CURVE SMOOTH",
"249 514 OFFCURVE",
"269 500 OFFCURVE",
"287 500 CURVE SMOOTH",
"303 500 OFFCURVE",
"320 510 OFFCURVE",
"338 535 CURVE SMOOTH",
"355 560 OFFCURVE",
"367 574 OFFCURVE",
"383 574 CURVE SMOOTH",
"422 574 OFFCURVE",
"429 500 OFFCURVE",
"475 500 CURVE SMOOTH",
"497 500 OFFCURVE",
"526 533 OFFCURVE",
"534 582 CURVE",
"509 573 OFFCURVE",
"489 585 OFFCURVE",
"474 604 CURVE SMOOTH",
"437 652 LINE SMOOTH",
"421 672 OFFCURVE",
"410 680 OFFCURVE",
"401 680 CURVE SMOOTH",
"388 680 OFFCURVE",
"370 663 OFFCURVE",
"344 628 CURVE SMOOTH",
"319 596 OFFCURVE",
"311 586 OFFCURVE",
"302 586 CURVE SMOOTH",
"291 586 OFFCURVE",
"284 595 OFFCURVE",
"257 628 CURVE SMOOTH",
"226 664 OFFCURVE",
"210 680 OFFCURVE",
"197 680 CURVE SMOOTH",
"186 680 OFFCURVE",
"162 670 OFFCURVE",
"116 617 CURVE SMOOTH",
"85 582 OFFCURVE",
"66 557 OFFCURVE",
"66 519 CURVE SMOOTH",
"66 491 OFFCURVE",
"80 473 OFFCURVE",
"107 443 CURVE",
"107 401 LINE"
);
}
);
width = 567;
},
{
anchors = (
{
name = abvm;
position = "{267, 760}";
},
{
name = blwm;
position = "{267, 0}";
}
);
layerId = "1DC75306-0750-4696-AEC7-032F44743549";
paths = (
{
closed = 1;
nodes = (
"113 433 LINE",
"113 202 LINE",
"89 200 OFFCURVE",
"51 184 OFFCURVE",
"51 128 CURVE SMOOTH",
"51 88 OFFCURVE",
"71 43 OFFCURVE",
"113 0 CURVE",
"139 0 LINE",
"139 176 LINE",
"180 173 OFFCURVE",
"212 150 OFFCURVE",
"244 104 CURVE SMOOTH",
"278 56 OFFCURVE",
"302 0 OFFCURVE",
"356 0 CURVE SMOOTH",
"412 0 OFFCURVE",
"451 62 OFFCURVE",
"451 151 CURVE SMOOTH",
"451 207 LINE",
"425 207 LINE",
"425 151 LINE SMOOTH",
"425 87 OFFCURVE",
"406 26 OFFCURVE",
"356 26 CURVE SMOOTH",
"313 26 OFFCURVE",
"301 72 OFFCURVE",
"261 125 CURVE SMOOTH",
"226 171 OFFCURVE",
"189 196 OFFCURVE",
"139 202 CURVE",
"139 433 LINE"
);
},
{
closed = 1;
nodes = (
"94 60 OFFCURVE",
"77 91 OFFCURVE",
"77 123 CURVE SMOOTH",
"77 157 OFFCURVE",
"96 173 OFFCURVE",
"113 176 CURVE",
"113 35 LINE"
);
},
{
closed = 1;
nodes = (
"451 393 LINE SMOOTH",
"451 418 OFFCURVE",
"441 425 OFFCURVE",
"426 425 CURVE SMOOTH",
"386 425 OFFCURVE",
"348 375 OFFCURVE",
"348 315 CURVE SMOOTH",
"348 260 OFFCURVE",
"383 214 OFFCURVE",
"425 211 CURVE",
"425 203 LINE",
"451 203 LINE"
);
},
{
closed = 1;
nodes = (
"406 237 OFFCURVE",
"374 262 OFFCURVE",
"374 312 CURVE SMOOTH",
"374 362 OFFCURVE",
"406 398 OFFCURVE",
"425 398 CURVE",
"425 237 LINE"
);
},
{
closed = 1;
nodes = (
"139 422 LINE",
"139 472 LINE",
"105 508 OFFCURVE",
"86 532 OFFCURVE",
"86 548 CURVE SMOOTH",
"86 560 OFFCURVE",
"97 578 OFFCURVE",
"129 617 CURVE SMOOTH",
"155 649 OFFCURVE",
"165 656 OFFCURVE",
"175 656 CURVE SMOOTH",
"188 656 OFFCURVE",
"200 643 OFFCURVE",
"216 620 CURVE SMOOTH",
"249 572 OFFCURVE",
"258 559 OFFCURVE",
"275 559 CURVE SMOOTH",
"289 559 OFFCURVE",
"314 584 OFFCURVE",
"332 607 CURVE SMOOTH",
"352 632 OFFCURVE",
"370 655 OFFCURVE",
"376 655 CURVE SMOOTH",
"393 655 OFFCURVE",
"432 537 OFFCURVE",
"475 537 CURVE SMOOTH",
"486 537 OFFCURVE",
"497 545 OFFCURVE",
"497 562 CURVE",
"471 564 OFFCURVE",
"455 586 OFFCURVE",
"446 601 CURVE SMOOTH",
"419 647 LINE SMOOTH",
"406 670 OFFCURVE",
"396 682 OFFCURVE",
"379 682 CURVE SMOOTH",
"359 682 OFFCURVE",
"344 663 OFFCURVE",
"323 637 CURVE SMOOTH",
"298 606 OFFCURVE",
"283 588 OFFCURVE",
"275 588 CURVE SMOOTH",
"267 588 OFFCURVE",
"260 605 OFFCURVE",
"234 639 CURVE SMOOTH",
"205 677 OFFCURVE",
"189 682 OFFCURVE",
"175 682 CURVE SMOOTH",
"154 682 OFFCURVE",
"140 671 OFFCURVE",
"114 639 CURVE SMOOTH",
"82 600 OFFCURVE",
"59 572 OFFCURVE",
"59 549 CURVE SMOOTH",
"59 533 OFFCURVE",
"68 510 OFFCURVE",
"113 460 CURVE",
"113 422 LINE"
);
}
);
width = 567;
}
);
note = uni1786;
unicode = 1786;
},
{
glyphname = uni1787;
lastChange = "2017-12-14 20:43:12 +0000";
layers = (
{
anchors = (
{
name = abvm;
position = "{331, 860}";
},
{
name = abvm_high;
position = "{331, 830}";
},
{
name = blwm;
position = "{331, 0}";
}
);
layerId = "88BEB7F0-7448-46FF-842C-45A92B9492CE";
paths = (
{
closed = 1;
nodes = (
"99 404 LINE",
"99 0 LINE",
"191 0 LINE",
"331 115 LINE",
"471 0 LINE",
"563 0 LINE",
"563 428 LINE",
"471 428 LINE",
"471 91 LINE",
"331 207 LINE",
"191 91 LINE",
"191 404 LINE"
);
},
{
closed = 1;
nodes = (
"191 471 LINE",
"149 518 OFFCURVE",
"138 530 OFFCURVE",
"138 539 CURVE SMOOTH",
"138 548 OFFCURVE",
"150 563 OFFCURVE",
"161 574 CURVE SMOOTH",
"172 585 OFFCURVE",
"185 595 OFFCURVE",
"196 595 CURVE SMOOTH",
"205 595 OFFCURVE",
"223 583 OFFCURVE",
"263 556 CURVE SMOOTH",
"309 525 OFFCURVE",
"354 499 OFFCURVE",
"412 499 CURVE SMOOTH",
"506 499 OFFCURVE",
"565 566 OFFCURVE",
"565 646 CURVE SMOOTH",
"565 735 OFFCURVE",
"485 780 OFFCURVE",
"431 780 CURVE SMOOTH",
"388 780 OFFCURVE",
"376 749 OFFCURVE",
"377 704 CURVE",
"434 715 OFFCURVE",
"498 687 OFFCURVE",
"498 633 CURVE SMOOTH",
"498 594 OFFCURVE",
"465 568 OFFCURVE",
"420 568 CURVE SMOOTH",
"381 568 OFFCURVE",
"345 588 OFFCURVE",
"294 624 CURVE SMOOTH",
"243 660 OFFCURVE",
"222 682 OFFCURVE",
"206 682 CURVE SMOOTH",
"186 682 OFFCURVE",
"145 646 OFFCURVE",
"108 610 CURVE SMOOTH",
"69 573 OFFCURVE",
"50 551 OFFCURVE",
"50 523 CURVE SMOOTH",
"50 497 OFFCURVE",
"67 473 OFFCURVE",
"99 443 CURVE",
"99 374 LINE",
"191 374 LINE"
);
}
);
width = 655;
},
{
anchors = (
{
name = abvm;
position = "{324, 860}";
},
{
name = abvm_high;
position = "{324, 830}";
},
{
name = blwm;
position = "{324, 0}";
}
);
layerId = "37E1EBAF-DBB8-42B6-8B14-41DF5B276D12";
paths = (
{
closed = 1;
nodes = (
"124 455 LINE",
"124 0 LINE",
"156 0 LINE",
"324 155 LINE",
"492 0 LINE",
"524 0 LINE",
"524 428 LINE",
"498 428 LINE",
"498 33 LINE",
"324 189 LINE",
"150 33 LINE",
"150 455 LINE"
);
},
{
closed = 1;
nodes = (
"150 470 LINE",
"118 506 OFFCURVE",
"87 541 OFFCURVE",
"87 550 CURVE SMOOTH",
"87 559 OFFCURVE",
"97 577 OFFCURVE",
"135 615 CURVE SMOOTH",
"164 644 OFFCURVE",
"179 656 OFFCURVE",
"189 656 CURVE SMOOTH",
"205 656 OFFCURVE",
"221 623 OFFCURVE",
"272 580 CURVE SMOOTH",
"307 550 OFFCURVE",
"353 521 OFFCURVE",
"401 521 CURVE SMOOTH",
"458 521 OFFCURVE",
"527 561 OFFCURVE",
"527 642 CURVE SMOOTH",
"527 730 OFFCURVE",
"442 761 OFFCURVE",
"404 761 CURVE SMOOTH",
"382 761 OFFCURVE",
"376 750 OFFCURVE",
"376 726 CURVE",
"453 742 OFFCURVE",
"501 697 OFFCURVE",
"501 641 CURVE SMOOTH",
"501 593 OFFCURVE",
"465 547 OFFCURVE",
"405 547 CURVE SMOOTH",
"351 547 OFFCURVE",
"307 584 OFFCURVE",
"286 603 CURVE SMOOTH",
"237 648 OFFCURVE",
"220 682 OFFCURVE",
"190 682 CURVE SMOOTH",
"173 682 OFFCURVE",
"154 672 OFFCURVE",
"114 631 CURVE SMOOTH",
"73 588 OFFCURVE",
"60 565 OFFCURVE",
"60 550 CURVE SMOOTH",
"60 531 OFFCURVE",
"79 510 OFFCURVE",
"124 460 CURVE",
"124 445 LINE",
"150 445 LINE"
);
}
);
width = 647;
},
{
anchors = (
{
name = abvm;
position = "{360, 860}";
},
{
name = abvm_high;
position = "{361, 830}";
},
{
name = blwm;
position = "{364, 0}";
}
);
layerId = "33F44B55-ADBD-4698-98EB-0F29A0B3A069";
paths = (
{
closed = 1;
nodes = (
"89 336 LINE",
"89 0 LINE",
"262 0 LINE",
"364 61 LINE",
"466 0 LINE",
"639 0 LINE",
"639 428 LINE",
"459 428 LINE",
"459 127 LINE",
"364 189 LINE",
"269 127 LINE",
"269 336 LINE"
);
},
{
closed = 1;
nodes = (
"269 444 LINE",
"197 487 OFFCURVE",
"163 507 OFFCURVE",
"163 524 CURVE SMOOTH",
"163 529 OFFCURVE",
"166 535 OFFCURVE",
"171 540 CURVE SMOOTH",
"176 545 OFFCURVE",
"182 548 OFFCURVE",
"188 548 CURVE SMOOTH",
"193 548 OFFCURVE",
"213 537 OFFCURVE",
"233 526 CURVE SMOOTH",
"280 500 OFFCURVE",
"349 473 OFFCURVE",
"421 473 CURVE SMOOTH",
"554 473 OFFCURVE",
"643 560 OFFCURVE",
"643 660 CURVE SMOOTH",
"643 755 OFFCURVE",
"567 813 OFFCURVE",
"498 813 CURVE SMOOTH",
"440 813 OFFCURVE",
"407 771 OFFCURVE",
"417 702 CURVE",
"462 702 OFFCURVE",
"514 690 OFFCURVE",
"514 648 CURVE SMOOTH",
"514 617 OFFCURVE",
"485 593 OFFCURVE",
"430 593 CURVE SMOOTH",
"395 593 OFFCURVE",
"360 603 OFFCURVE",
"321 623 CURVE SMOOTH",
"261 654 OFFCURVE",
"240 684 OFFCURVE",
"211 684 CURVE SMOOTH",
"190 684 OFFCURVE",
"166 668 OFFCURVE",
"119 623 CURVE SMOOTH",
"76 582 OFFCURVE",
"40 542 OFFCURVE",
"40 507 CURVE SMOOTH",
"40 488 OFFCURVE",
"50 458 OFFCURVE",
"89 428 CURVE",
"89 284 LINE",
"269 284 LINE"
);
}
);
width = 718;
},
{
anchors = (
{
name = abvm;
position = "{308, 860}";
},
{
name = abvm_high;
position = "{308, 830}";
},
{
name = blwm;
position = "{308, 0}";
}
);
layerId = "2845A654-27C0-4D24-8E0C-7DAF9BC7668A";
paths = (
{
closed = 1;
nodes = (
"79 336 LINE",
"79 0 LINE",
"223 0 LINE",
"308 61 LINE",
"393 0 LINE",
"537 0 LINE",
"537 428 LINE",
"387 428 LINE",
"387 127 LINE",
"308 189 LINE",
"229 127 LINE",
"229 336 LINE"
);
},
{
closed = 1;
nodes = (
"229 444 LINE",
"169 487 OFFCURVE",
"141 501 OFFCURVE",
"141 523 CURVE SMOOTH",
"141 529 OFFCURVE",
"143 535 OFFCURVE",
"147 540 CURVE SMOOTH",
"151 545 OFFCURVE",
"156 548 OFFCURVE",
"162 548 CURVE SMOOTH",
"167 548 OFFCURVE",
"182 538 OFFCURVE",
"201 525 CURVE SMOOTH",
"239 499 OFFCURVE",
"296 473 OFFCURVE",
"357 473 CURVE SMOOTH",
"466 473 OFFCURVE",
"554 555 OFFCURVE",
"554 656 CURVE SMOOTH",
"554 751 OFFCURVE",
"494 813 OFFCURVE",
"431 813 CURVE SMOOTH",
"379 813 OFFCURVE",
"342 771 OFFCURVE",
"352 702 CURVE",
"390 702 OFFCURVE",
"437 687 OFFCURVE",
"437 647 CURVE SMOOTH",
"437 616 OFFCURVE",
"408 592 OFFCURVE",
"359 592 CURVE SMOOTH",
"333 592 OFFCURVE",
"305 599 OFFCURVE",
"274 622 CURVE SMOOTH",
"226 658 OFFCURVE",
"205 684 OFFCURVE",
"181 684 CURVE SMOOTH",
"162 684 OFFCURVE",
"143 668 OFFCURVE",
"104 623 CURVE SMOOTH",
"68 582 OFFCURVE",
"38 542 OFFCURVE",
"38 506 CURVE SMOOTH",
"38 488 OFFCURVE",
"46 458 OFFCURVE",
"79 428 CURVE",
"79 284 LINE",
"229 284 LINE"
);
}
);
width = 636;
},
{
anchors = (
{
name = abvm;
position = "{284, 860}";
},
{
name = abvm_high;
position = "{284, 830}";
},
{
name = blwm;
position = "{284, 0}";
}
);
layerId = "BB318BD9-DEF5-4D27-998D-30B020A0DD4F";
paths = (
{
closed = 1;
nodes = (
"91 404 LINE",
"91 0 LINE",
"168 0 LINE",
"284 115 LINE",
"401 0 LINE",
"478 0 LINE",
"478 428 LINE",
"401 428 LINE",
"401 91 LINE",
"284 207 LINE",
"168 91 LINE",
"168 404 LINE"
);
},
{
closed = 1;
nodes = (
"168 471 LINE",
"133 518 OFFCURVE",
"123 531 OFFCURVE",
"123 539 CURVE SMOOTH",
"123 548 OFFCURVE",
"133 564 OFFCURVE",
"145 577 CURVE SMOOTH",
"153 586 OFFCURVE",
"163 595 OFFCURVE",
"173 595 CURVE SMOOTH",
"181 595 OFFCURVE",
"194 584 OFFCURVE",
"228 556 CURVE SMOOTH",
"267 524 OFFCURVE",
"303 499 OFFCURVE",
"352 499 CURVE SMOOTH",
"430 499 OFFCURVE",
"493 563 OFFCURVE",
"493 643 CURVE SMOOTH",
"493 732 OFFCURVE",
"420 780 OFFCURVE",
"371 780 CURVE SMOOTH",
"332 780 OFFCURVE",
"322 749 OFFCURVE",
"323 704 CURVE",
"370 715 OFFCURVE",
"427 687 OFFCURVE",
"427 633 CURVE SMOOTH",
"427 594 OFFCURVE",
"396 568 OFFCURVE",
"358 568 CURVE SMOOTH",
"326 568 OFFCURVE",
"296 587 OFFCURVE",
"253 624 CURVE SMOOTH",
"213 659 OFFCURVE",
"193 682 OFFCURVE",
"180 682 CURVE SMOOTH",
"163 682 OFFCURVE",
"129 646 OFFCURVE",
"98 610 CURVE SMOOTH",
"66 573 OFFCURVE",
"50 551 OFFCURVE",
"50 523 CURVE SMOOTH",
"50 497 OFFCURVE",
"64 473 OFFCURVE",
"91 443 CURVE",
"91 374 LINE",
"168 374 LINE"
);
}
);
width = 555;
},
{
anchors = (
{
name = abvm;
position = "{280, 860}";
},
{
name = abvm_high;
position = "{280, 830}";
},
{
name = blwm;
position = "{280, 0}";
}
);
layerId = "1DC75306-0750-4696-AEC7-032F44743549";
paths = (
{
closed = 1;
nodes = (
"110 455 LINE",
"110 0 LINE",
"142 0 LINE",
"280 155 LINE",
"418 0 LINE",
"450 0 LINE",
"450 428 LINE",
"424 428 LINE",
"424 33 LINE",
"280 189 LINE",
"136 33 LINE",
"136 455 LINE"
);
},
{
closed = 1;
nodes = (
"136 470 LINE",
"104 506 OFFCURVE",
"83 532 OFFCURVE",
"83 550 CURVE SMOOTH",
"83 557 OFFCURVE",
"86 574 OFFCURVE",
"122 614 CURVE SMOOTH",
"151 647 OFFCURVE",
"166 656 OFFCURVE",
"176 656 CURVE SMOOTH",
"194 656 OFFCURVE",
"202 627 OFFCURVE",
"239 586 CURVE SMOOTH",
"281 541 OFFCURVE",
"319 521 OFFCURVE",
"355 521 CURVE SMOOTH",
"408 521 OFFCURVE",
"467 565 OFFCURVE",
"467 643 CURVE SMOOTH",
"467 728 OFFCURVE",
"393 761 OFFCURVE",
"344 761 CURVE SMOOTH",
"312 761 OFFCURVE",
"307 748 OFFCURVE",
"312 726 CURVE",
"389 742 OFFCURVE",
"441 703 OFFCURVE",
"441 639 CURVE SMOOTH",
"441 588 OFFCURVE",
"406 547 OFFCURVE",
"357 547 CURVE SMOOTH",
"310 547 OFFCURVE",
"273 585 OFFCURVE",
"250 614 CURVE SMOOTH",
"221 651 OFFCURVE",
"207 682 OFFCURVE",
"176 682 CURVE SMOOTH",
"160 682 OFFCURVE",
"141 674 OFFCURVE",
"101 630 CURVE SMOOTH",
"61 586 OFFCURVE",
"56 566 OFFCURVE",
"56 551 CURVE SMOOTH",
"56 530 OFFCURVE",
"65 510 OFFCURVE",
"110 460 CURVE",
"110 445 LINE",
"136 445 LINE"
);
}
);
width = 573;
}
);
note = uni1787;
unicode = 1787;
},
{
glyphname = uni1788;
lastChange = "2017-12-14 20:43:12 +0000";
layers = (
{
anchors = (
{
name = abvm;
position = "{1030, 760}";
},
{
name = blwm;
position = "{1044, 0}";
}
);
layerId = "88BEB7F0-7448-46FF-842C-45A92B9492CE";
paths = (
{
closed = 1;
nodes = (
"192 305 LINE",
"192 463 LINE",
"126 515 LINE",
"198 583 OFFCURVE",
"241 615 OFFCURVE",
"280 615 CURVE SMOOTH",
"307 615 OFFCURVE",
"343 600 OFFCURVE",
"382 575 CURVE SMOOTH",
"452 530 OFFCURVE",
"472 488 OFFCURVE",
"472 463 CURVE SMOOTH",
"472 146 LINE SMOOTH",
"472 82 OFFCURVE",
"555 0 OFFCURVE",
"692 0 CURVE SMOOTH",
"763 0 OFFCURVE",
"808 16 OFFCURVE",
"866 62 CURVE",
"910 18 OFFCURVE",
"973 0 OFFCURVE",
"1040 0 CURVE SMOOTH",
"1170 0 OFFCURVE",
"1259 82 OFFCURVE",
"1259 146 CURVE SMOOTH",
"1259 389 LINE",
"1167 389 LINE",
"1167 146 LINE SMOOTH",
"1167 109 OFFCURVE",
"1108 67 OFFCURVE",
"1040 67 CURVE SMOOTH",
"971 67 OFFCURVE",
"912 109 OFFCURVE",
"912 146 CURVE SMOOTH",
"912 389 LINE",
"820 389 LINE",
"820 146 LINE SMOOTH",
"820 109 OFFCURVE",
"761 67 OFFCURVE",
"692 67 CURVE SMOOTH",
"623 67 OFFCURVE",
"564 109 OFFCURVE",
"564 146 CURVE SMOOTH",
"564 453 LINE SMOOTH",
"564 543 OFFCURVE",
"544 570 OFFCURVE",
"455 623 CURVE SMOOTH",
"377 670 OFFCURVE",
"331 682 OFFCURVE",
"294 682 CURVE SMOOTH",
"239 682 OFFCURVE",
"195 655 OFFCURVE",
"144 615 CURVE SMOOTH",
"65 553 OFFCURVE",
"46 523 OFFCURVE",
"46 504 CURVE SMOOTH",
"46 490 OFFCURVE",
"56 476 OFFCURVE",
"100 438 CURVE",
"100 305 LINE"
);
},
{
closed = 1;
nodes = (
"912 447 LINE",
"807 532 LINE",
"850 590 LINE",
"885 565 OFFCURVE",
"907 557 OFFCURVE",
"924 557 CURVE SMOOTH",
"963 557 OFFCURVE",
"988 596 OFFCURVE",
"988 629 CURVE",
"937 625 OFFCURVE",
"914 638 OFFCURVE",
"850 680 CURVE",
"757 552 OFFCURVE",
"735 534 OFFCURVE",
"735 514 CURVE SMOOTH",
"735 499 OFFCURVE",
"747 484 OFFCURVE",
"820 424 CURVE",
"820 350 LINE",
"912 350 LINE"
);
},
{
closed = 1;
nodes = (
"100 0 LINE",
"192 0 LINE",
"290 59 OFFCURVE",
"303 115 OFFCURVE",
"303 151 CURVE SMOOTH",
"303 211 OFFCURVE",
"267 250 OFFCURVE",
"192 246 CURVE",
"192 316 LINE",
"100 316 LINE"
);
},
{
closed = 1;
nodes = (
"215 181 OFFCURVE",
"232 175 OFFCURVE",
"232 150 CURVE SMOOTH",
"232 127 OFFCURVE",
"218 105 OFFCURVE",
"192 89 CURVE",
"192 181 LINE"
);
},
{
closed = 1;
nodes = (
"1259 447 LINE",
"1154 532 LINE",
"1197 590 LINE",
"1232 565 OFFCURVE",
"1254 557 OFFCURVE",
"1271 557 CURVE SMOOTH",
"1310 557 OFFCURVE",
"1335 596 OFFCURVE",
"1335 629 CURVE",
"1284 625 OFFCURVE",
"1261 638 OFFCURVE",
"1197 680 CURVE",
"1104 552 OFFCURVE",
"1082 534 OFFCURVE",
"1082 514 CURVE SMOOTH",
"1082 499 OFFCURVE",
"1094 484 OFFCURVE",
"1167 424 CURVE",
"1167 350 LINE",
"1259 350 LINE"
);
}
);
width = 1350;
},
{
anchors = (
{
name = abvm;
position = "{979, 760}";
},
{
name = blwm;
position = "{1007, 0}";
}
);
layerId = "37E1EBAF-DBB8-42B6-8B14-41DF5B276D12";
paths = (
{
closed = 1;
nodes = (
"144 295 LINE",
"144 454 LINE",
"88 499 LINE",
"118 564 OFFCURVE",
"208 656 OFFCURVE",
"282 656 CURVE SMOOTH",
"327 656 OFFCURVE",
"379 623 OFFCURVE",
"411 589 CURVE SMOOTH",
"433 566 OFFCURVE",
"468 520 OFFCURVE",
"468 463 CURVE SMOOTH",
"468 142 LINE SMOOTH",
"468 54 OFFCURVE",
"560 0 OFFCURVE",
"656 0 CURVE SMOOTH",
"730 0 OFFCURVE",
"790 28 OFFCURVE",
"830 62 CURVE",
"868 26 OFFCURVE",
"929 0 OFFCURVE",
"1000 0 CURVE SMOOTH",
"1099 0 OFFCURVE",
"1192 54 OFFCURVE",
"1192 142 CURVE SMOOTH",
"1192 388 LINE",
"1166 388 LINE",
"1166 136 LINE SMOOTH",
"1166 76 OFFCURVE",
"1079 26 OFFCURVE",
"1003 26 CURVE SMOOTH",
"939 26 OFFCURVE",
"842 60 OFFCURVE",
"842 107 CURVE SMOOTH",
"842 388 LINE",
"816 388 LINE",
"816 107 LINE SMOOTH",
"816 60 OFFCURVE",
"720 26 OFFCURVE",
"656 26 CURVE SMOOTH",
"580 26 OFFCURVE",
"494 76 OFFCURVE",
"494 136 CURVE SMOOTH",
"494 463 LINE SMOOTH",
"494 529 OFFCURVE",
"458 579 OFFCURVE",
"426 611 CURVE SMOOTH",
"402 635 OFFCURVE",
"348 682 OFFCURVE",
"282 682 CURVE SMOOTH",
"228 682 OFFCURVE",
"173 649 OFFCURVE",
"117 587 CURVE SMOOTH",
"91 557 OFFCURVE",
"62 518 OFFCURVE",
"62 497 CURVE SMOOTH",
"62 487 OFFCURVE",
"69 480 OFFCURVE",
"118 442 CURVE",
"118 295 LINE"
);
},
{
closed = 1;
nodes = (
"842 445 LINE",
"754 536 LINE",
"829 641 LINE",
"841 631 OFFCURVE",
"884 587 OFFCURVE",
"914 587 CURVE SMOOTH",
"926 587 OFFCURVE",
"935 594 OFFCURVE",
"931 612 CURVE",
"900 609 OFFCURVE",
"871 634 OFFCURVE",
"827 682 CURVE",
"745 569 OFFCURVE",
"727 544 OFFCURVE",
"727 537 CURVE SMOOTH",
"727 526 OFFCURVE",
"740 513 OFFCURVE",
"816 435 CURVE",
"816 370 LINE",
"842 370 LINE"
);
},
{
closed = 1;
nodes = (
"118 0 LINE",
"144 0 LINE",
"211 63 OFFCURVE",
"235 101 OFFCURVE",
"235 149 CURVE SMOOTH",
"235 186 OFFCURVE",
"219 226 OFFCURVE",
"144 227 CURVE",
"144 316 LINE",
"118 316 LINE"
);
},
{
closed = 1;
nodes = (
"184 199 OFFCURVE",
"209 185 OFFCURVE",
"209 146 CURVE SMOOTH",
"209 106 OFFCURVE",
"182 72 OFFCURVE",
"144 35 CURVE",
"144 200 LINE"
);
},
{
closed = 1;
nodes = (
"1192 445 LINE",
"1104 536 LINE",
"1179 641 LINE",
"1191 631 OFFCURVE",
"1234 587 OFFCURVE",
"1264 587 CURVE SMOOTH",
"1276 587 OFFCURVE",
"1285 594 OFFCURVE",
"1281 612 CURVE",
"1250 609 OFFCURVE",
"1221 634 OFFCURVE",
"1177 682 CURVE",
"1095 569 OFFCURVE",
"1077 544 OFFCURVE",
"1077 537 CURVE SMOOTH",
"1077 526 OFFCURVE",
"1090 513 OFFCURVE",
"1166 435 CURVE",
"1166 370 LINE",
"1192 370 LINE"
);
}
);
width = 1323;
},
{
anchors = (
{
name = abvm;
position = "{1081, 760}";
},
{
name = blwm;
position = "{1082, 0}";
}
);
layerId = "33F44B55-ADBD-4698-98EB-0F29A0B3A069";
paths = (
{
closed = 1;
nodes = (
"274 295 LINE",
"274 463 LINE",
"186 510 LINE",
"228 551 OFFCURVE",
"269 580 OFFCURVE",
"332 580 CURVE SMOOTH",
"382 580 OFFCURVE",
"413 562 OFFCURVE",
"434 541 CURVE SMOOTH",
"458 516 OFFCURVE",
"466 488 OFFCURVE",
"466 463 CURVE SMOOTH",
"466 146 LINE SMOOTH",
"466 82 OFFCURVE",
"541 0 OFFCURVE",
"729 0 CURVE SMOOTH",
"806 0 OFFCURVE",
"845 16 OFFCURVE",
"903 52 CURVE",
"947 18 OFFCURVE",
"1010 0 OFFCURVE",
"1077 0 CURVE SMOOTH",
"1264 0 OFFCURVE",
"1341 82 OFFCURVE",
"1341 146 CURVE SMOOTH",
"1341 420 LINE",
"1161 420 LINE",
"1161 176 LINE SMOOTH",
"1161 139 OFFCURVE",
"1145 102 OFFCURVE",
"1077 102 CURVE SMOOTH",
"1008 102 OFFCURVE",
"992 139 OFFCURVE",
"992 176 CURVE SMOOTH",
"992 378 LINE",
"812 378 LINE",
"812 176 LINE SMOOTH",
"812 139 OFFCURVE",
"798 102 OFFCURVE",
"729 102 CURVE SMOOTH",
"660 102 OFFCURVE",
"646 139 OFFCURVE",
"646 176 CURVE SMOOTH",
"646 463 LINE SMOOTH",
"646 505 OFFCURVE",
"602 569 OFFCURVE",
"555 610 CURVE SMOOTH",
"501 658 OFFCURVE",
"434 682 OFFCURVE",
"351 682 CURVE SMOOTH",
"265 682 OFFCURVE",
"192 653 OFFCURVE",
"126 603 CURVE SMOOTH",
"69 560 OFFCURVE",
"40 525 OFFCURVE",
"40 493 CURVE SMOOTH",
"40 468 OFFCURVE",
"58 449 OFFCURVE",
"94 422 CURVE",
"94 295 LINE"
);
},
{
closed = 1;
nodes = (
"992 449 LINE",
"866 514 LINE",
"880 535 LINE",
"935 510 OFFCURVE",
"954 505 OFFCURVE",
"969 505 CURVE SMOOTH",
"1024 505 OFFCURVE",
"1052 568 OFFCURVE",
"1052 612 CURVE",
"999 612 OFFCURVE",
"947 643 OFFCURVE",
"866 680 CURVE",
"774 572 OFFCURVE",
"738 525 OFFCURVE",
"738 492 CURVE SMOOTH",
"738 473 OFFCURVE",
"750 449 OFFCURVE",
"812 412 CURVE",
"812 330 LINE",
"992 330 LINE"
);
},
{
closed = 1;
nodes = (
"94 0 LINE",
"274 0 LINE",
"356 46 OFFCURVE",
"408 95 OFFCURVE",
"408 167 CURVE SMOOTH",
"408 235 OFFCURVE",
"363 281 OFFCURVE",
"274 275 CURVE",
"274 317 LINE",
"94 317 LINE"
);
},
{
closed = 1;
nodes = (
"292 185 OFFCURVE",
"308 179 OFFCURVE",
"308 154 CURVE SMOOTH",
"308 138 OFFCURVE",
"301 118 OFFCURVE",
"274 102 CURVE",
"274 186 LINE"
);
},
{
closed = 1;
nodes = (
"1341 449 LINE",
"1215 514 LINE",
"1229 535 LINE",
"1284 510 OFFCURVE",
"1303 505 OFFCURVE",
"1318 505 CURVE SMOOTH",
"1373 505 OFFCURVE",
"1401 568 OFFCURVE",
"1401 612 CURVE",
"1348 612 OFFCURVE",
"1296 643 OFFCURVE",
"1215 680 CURVE",
"1123 572 OFFCURVE",
"1087 525 OFFCURVE",
"1087 492 CURVE SMOOTH",
"1087 473 OFFCURVE",
"1099 449 OFFCURVE",
"1161 412 CURVE",
"1161 330 LINE",
"1341 330 LINE"
);
}
);
width = 1441;
},
{
anchors = (
{
name = abvm;
position = "{903, 760}";
},
{
name = blwm;
position = "{904, 0}";
}
);
layerId = "2845A654-27C0-4D24-8E0C-7DAF9BC7668A";
paths = (
{
closed = 1;
nodes = (
"235 295 LINE",
"235 463 LINE",
"162 510 LINE",
"185 545 OFFCURVE",
"228 580 OFFCURVE",
"285 580 CURVE SMOOTH",
"324 580 OFFCURVE",
"352 564 OFFCURVE",
"368 542 CURVE SMOOTH",
"382 523 OFFCURVE",
"395 488 OFFCURVE",
"395 463 CURVE SMOOTH",
"395 146 LINE SMOOTH",
"395 82 OFFCURVE",
"458 0 OFFCURVE",
"614 0 CURVE SMOOTH",
"678 0 OFFCURVE",
"711 16 OFFCURVE",
"759 52 CURVE",
"796 18 OFFCURVE",
"842 0 OFFCURVE",
"904 0 CURVE SMOOTH",
"1054 0 OFFCURVE",
"1124 82 OFFCURVE",
"1124 146 CURVE SMOOTH",
"1124 420 LINE",
"974 420 LINE",
"974 176 LINE SMOOTH",
"974 139 OFFCURVE",
"961 102 OFFCURVE",
"904 102 CURVE SMOOTH",
"847 102 OFFCURVE",
"833 139 OFFCURVE",
"833 176 CURVE SMOOTH",
"833 378 LINE",
"683 378 LINE",
"683 176 LINE SMOOTH",
"683 139 OFFCURVE",
"672 102 OFFCURVE",
"614 102 CURVE SMOOTH",
"557 102 OFFCURVE",
"545 139 OFFCURVE",
"545 176 CURVE SMOOTH",
"545 463 LINE SMOOTH",
"545 505 OFFCURVE",
"508 569 OFFCURVE",
"469 610 CURVE SMOOTH",
"424 658 OFFCURVE",
"368 682 OFFCURVE",
"302 682 CURVE SMOOTH",
"228 682 OFFCURVE",
"167 651 OFFCURVE",
"114 605 CURVE SMOOTH",
"63 561 OFFCURVE",
"40 524 OFFCURVE",
"40 492 CURVE SMOOTH",
"40 467 OFFCURVE",
"55 449 OFFCURVE",
"85 422 CURVE",
"85 295 LINE"
);
},
{
closed = 1;
nodes = (
"833 449 LINE",
"728 514 LINE",
"739 535 LINE",
"785 510 OFFCURVE",
"801 505 OFFCURVE",
"814 505 CURVE SMOOTH",
"859 505 OFFCURVE",
"883 568 OFFCURVE",
"883 612 CURVE",
"839 612 OFFCURVE",
"795 643 OFFCURVE",
"728 680 CURVE",
"651 572 OFFCURVE",
"621 525 OFFCURVE",
"621 492 CURVE SMOOTH",
"621 473 OFFCURVE",
"631 449 OFFCURVE",
"683 412 CURVE",
"683 330 LINE",
"833 330 LINE"
);
},
{
closed = 1;
nodes = (
"85 0 LINE",
"235 0 LINE",
"303 46 OFFCURVE",
"347 100 OFFCURVE",
"347 169 CURVE SMOOTH",
"347 240 OFFCURVE",
"305 280 OFFCURVE",
"235 275 CURVE",
"235 317 LINE",
"85 317 LINE"
);
},
{
closed = 1;
nodes = (
"250 185 OFFCURVE",
"263 179 OFFCURVE",
"263 154 CURVE SMOOTH",
"263 138 OFFCURVE",
"258 118 OFFCURVE",
"235 102 CURVE",
"235 186 LINE"
);
},
{
closed = 1;
nodes = (
"1124 449 LINE",
"1019 514 LINE",
"1030 535 LINE",
"1076 510 OFFCURVE",
"1092 505 OFFCURVE",
"1105 505 CURVE SMOOTH",
"1150 505 OFFCURVE",
"1174 568 OFFCURVE",
"1174 612 CURVE",
"1130 612 OFFCURVE",
"1086 643 OFFCURVE",
"1019 680 CURVE",
"942 572 OFFCURVE",
"912 525 OFFCURVE",
"912 492 CURVE SMOOTH",
"912 473 OFFCURVE",
"922 449 OFFCURVE",
"974 412 CURVE",
"974 330 LINE",
"1124 330 LINE"
);
}
);
width = 1224;
},
{
anchors = (
{
name = abvm;
position = "{863, 760}";
},
{
name = blwm;
position = "{875, 0}";
}
);
layerId = "BB318BD9-DEF5-4D27-998D-30B020A0DD4F";
paths = (
{
closed = 1;
nodes = (
"168 305 LINE",
"168 463 LINE",
"113 515 LINE",
"164 578 OFFCURVE",
"203 615 OFFCURVE",
"242 615 CURVE SMOOTH",
"261 615 OFFCURVE",
"289 606 OFFCURVE",
"329 573 CURVE SMOOTH",
"383 528 OFFCURVE",
"401 488 OFFCURVE",
"401 463 CURVE SMOOTH",
"401 146 LINE SMOOTH",
"401 82 OFFCURVE",
"466 0 OFFCURVE",
"585 0 CURVE SMOOTH",
"640 0 OFFCURVE",
"681 16 OFFCURVE",
"729 62 CURVE",
"766 18 OFFCURVE",
"822 0 OFFCURVE",
"874 0 CURVE SMOOTH",
"986 0 OFFCURVE",
"1057 82 OFFCURVE",
"1057 146 CURVE SMOOTH",
"1057 389 LINE",
"980 389 LINE",
"980 146 LINE SMOOTH",
"980 109 OFFCURVE",
"931 67 OFFCURVE",
"874 67 CURVE SMOOTH",
"817 67 OFFCURVE",
"768 109 OFFCURVE",
"768 146 CURVE SMOOTH",
"768 389 LINE",
"691 389 LINE",
"691 146 LINE SMOOTH",
"691 109 OFFCURVE",
"642 67 OFFCURVE",
"584 67 CURVE SMOOTH",
"527 67 OFFCURVE",
"478 109 OFFCURVE",
"478 146 CURVE SMOOTH",
"478 453 LINE SMOOTH",
"478 543 OFFCURVE",
"461 561 OFFCURVE",
"387 623 CURVE SMOOTH",
"325 675 OFFCURVE",
"286 682 OFFCURVE",
"257 682 CURVE SMOOTH",
"210 682 OFFCURVE",
"179 664 OFFCURVE",
"125 614 CURVE SMOOTH",
"58 551 OFFCURVE",
"46 526 OFFCURVE",
"46 508 CURVE SMOOTH",
"46 493 OFFCURVE",
"54 476 OFFCURVE",
"91 438 CURVE",
"91 305 LINE"
);
},
{
closed = 1;
nodes = (
"768 447 LINE",
"680 532 LINE",
"716 590 LINE",
"745 565 OFFCURVE",
"761 557 OFFCURVE",
"776 557 CURVE SMOOTH",
"808 557 OFFCURVE",
"831 596 OFFCURVE",
"831 629 CURVE",
"788 625 OFFCURVE",
"769 638 OFFCURVE",
"716 680 CURVE",
"638 552 OFFCURVE",
"620 534 OFFCURVE",
"620 514 CURVE SMOOTH",
"620 499 OFFCURVE",
"630 484 OFFCURVE",
"691 424 CURVE",
"691 350 LINE",
"768 350 LINE"
);
},
{
closed = 1;
nodes = (
"91 0 LINE",
"168 0 LINE",
"249 59 OFFCURVE",
"260 115 OFFCURVE",
"260 151 CURVE SMOOTH",
"260 211 OFFCURVE",
"230 250 OFFCURVE",
"168 246 CURVE",
"168 316 LINE",
"91 316 LINE"
);
},
{
closed = 1;
nodes = (
"187 181 OFFCURVE",
"201 175 OFFCURVE",
"201 150 CURVE SMOOTH",
"201 127 OFFCURVE",
"189 105 OFFCURVE",
"168 89 CURVE",
"168 181 LINE"
);
},
{
closed = 1;
nodes = (
"1057 447 LINE",
"969 532 LINE",
"1005 590 LINE",
"1034 565 OFFCURVE",
"1050 557 OFFCURVE",
"1065 557 CURVE SMOOTH",
"1097 557 OFFCURVE",
"1120 596 OFFCURVE",
"1120 629 CURVE",
"1077 625 OFFCURVE",
"1058 638 OFFCURVE",
"1005 680 CURVE",
"927 552 OFFCURVE",
"909 534 OFFCURVE",
"909 514 CURVE SMOOTH",
"909 499 OFFCURVE",
"919 484 OFFCURVE",
"980 424 CURVE",
"980 350 LINE",
"1057 350 LINE"
);
}
);
width = 1143;
},
{
anchors = (
{
name = abvm;
position = "{827, 760}";
},
{
name = blwm;
position = "{851, 0}";
}
);
layerId = "1DC75306-0750-4696-AEC7-032F44743549";
paths = (
{
closed = 1;
nodes = (
"136 295 LINE",
"136 454 LINE",
"84 499 LINE",
"119 565 OFFCURVE",
"176 656 OFFCURVE",
"250 656 CURVE SMOOTH",
"292 656 OFFCURVE",
"334 626 OFFCURVE",
"360 594 CURVE SMOOTH",
"380 570 OFFCURVE",
"406 520 OFFCURVE",
"406 463 CURVE SMOOTH",
"406 142 LINE SMOOTH",
"406 54 OFFCURVE",
"483 0 OFFCURVE",
"565 0 CURVE SMOOTH",
"625 0 OFFCURVE",
"675 28 OFFCURVE",
"708 62 CURVE",
"740 26 OFFCURVE",
"789 0 OFFCURVE",
"848 0 CURVE SMOOTH",
"931 0 OFFCURVE",
"1010 54 OFFCURVE",
"1010 142 CURVE SMOOTH",
"1010 388 LINE",
"984 388 LINE",
"984 136 LINE SMOOTH",
"984 76 OFFCURVE",
"915 26 OFFCURVE",
"852 26 CURVE SMOOTH",
"799 26 OFFCURVE",
"720 60 OFFCURVE",
"720 107 CURVE SMOOTH",
"720 388 LINE",
"694 388 LINE",
"694 107 LINE SMOOTH",
"694 60 OFFCURVE",
"617 26 OFFCURVE",
"564 26 CURVE SMOOTH",
"500 26 OFFCURVE",
"432 76 OFFCURVE",
"432 136 CURVE SMOOTH",
"432 463 LINE SMOOTH",
"432 529 OFFCURVE",
"402 582 OFFCURVE",
"380 610 CURVE SMOOTH",
"356 641 OFFCURVE",
"311 682 OFFCURVE",
"252 682 CURVE SMOOTH",
"201 682 OFFCURVE",
"154 651 OFFCURVE",
"107 586 CURVE SMOOTH",
"88 560 OFFCURVE",
"59 517 OFFCURVE",
"59 498 CURVE SMOOTH",
"59 489 OFFCURVE",
"69 480 OFFCURVE",
"110 442 CURVE",
"110 295 LINE"
);
},
{
closed = 1;
nodes = (
"720 445 LINE",
"642 536 LINE",
"707 641 LINE",
"719 631 OFFCURVE",
"752 587 OFFCURVE",
"782 587 CURVE SMOOTH",
"794 587 OFFCURVE",
"804 595 OFFCURVE",
"804 612 CURVE",
"773 609 OFFCURVE",
"749 634 OFFCURVE",
"705 682 CURVE",
"629 568 OFFCURVE",
"615 547 OFFCURVE",
"615 538 CURVE SMOOTH",
"615 528 OFFCURVE",
"623 513 OFFCURVE",
"694 435 CURVE",
"694 370 LINE",
"720 370 LINE"
);
},
{
closed = 1;
nodes = (
"110 0 LINE",
"136 0 LINE",
"188 44 OFFCURVE",
"216 102 OFFCURVE",
"216 147 CURVE SMOOTH",
"216 194 OFFCURVE",
"184 227 OFFCURVE",
"136 225 CURVE",
"136 316 LINE",
"110 316 LINE"
);
},
{
closed = 1;
nodes = (
"164 202 OFFCURVE",
"190 190 OFFCURVE",
"190 147 CURVE SMOOTH",
"190 105 OFFCURVE",
"165 64 OFFCURVE",
"136 33 CURVE",
"136 199 LINE"
);
},
{
closed = 1;
nodes = (
"1010 445 LINE",
"932 536 LINE",
"997 641 LINE",
"1009 631 OFFCURVE",
"1042 587 OFFCURVE",
"1072 587 CURVE SMOOTH",
"1084 587 OFFCURVE",
"1094 595 OFFCURVE",
"1094 612 CURVE",
"1063 609 OFFCURVE",
"1039 634 OFFCURVE",
"995 682 CURVE",
"919 568 OFFCURVE",
"905 547 OFFCURVE",
"905 538 CURVE SMOOTH",
"905 528 OFFCURVE",
"913 513 OFFCURVE",
"984 435 CURVE",
"984 370 LINE",
"1010 370 LINE"
);
}
);
width = 1134;
}
);
note = uni1788;
rightMetricsKey = uni1794;
unicode = 1788;
},
{
glyphname = uni1789;
lastChange = "2017-12-14 20:43:12 +0000";
layers = (
{
anchors = (
{
name = abvm;
position = "{710, 760}";
},
{
name = blwm;
position = "{704, -293}";
},
{
name = blwm_self;
position = "{520, 0}";
}
);
layerId = "88BEB7F0-7448-46FF-842C-45A92B9492CE";
paths = (
{
closed = 1;
nodes = (
"829 -108 OFFCURVE",
"845 -123 OFFCURVE",
"845 -154 CURVE SMOOTH",
"845 -204 OFFCURVE",
"803 -228 OFFCURVE",
"751 -228 CURVE SMOOTH",
"704 -228 OFFCURVE",
"660 -209 OFFCURVE",
"574 -146 CURVE SMOOTH",
"487 -83 OFFCURVE",
"418 -49 OFFCURVE",
"324 -49 CURVE SMOOTH",
"227 -49 OFFCURVE",
"144 -86 OFFCURVE",
"119 -165 CURVE",
"139 -165 LINE",
"185 -128 OFFCURVE",
"248 -106 OFFCURVE",
"314 -106 CURVE SMOOTH",
"377 -106 OFFCURVE",
"447 -126 OFFCURVE",
"525 -182 CURVE SMOOTH",
"603 -240 OFFCURVE",
"656 -293 OFFCURVE",
"746 -293 CURVE SMOOTH",
"834 -293 OFFCURVE",
"919 -244 OFFCURVE",
"919 -134 CURVE SMOOTH",
"919 -82 OFFCURVE",
"901 -49 OFFCURVE",
"855 -49 CURVE SMOOTH",
"816 -49 OFFCURVE",
"796 -73 OFFCURVE",
"796 -108 CURVE"
);
},
{
closed = 1;
nodes = (
"475 0 LINE",
"567 0 LINE",
"567 512 LINE SMOOTH",
"567 582 OFFCURVE",
"629 615 OFFCURVE",
"695 615 CURVE SMOOTH",
"761 615 OFFCURVE",
"823 582 OFFCURVE",
"823 512 CURVE SMOOTH",
"823 0 LINE",
"915 0 LINE",
"915 512 LINE SMOOTH",
"915 628 OFFCURVE",
"825 682 OFFCURVE",
"695 682 CURVE SMOOTH",
"565 682 OFFCURVE",
"475 628 OFFCURVE",
"475 512 CURVE SMOOTH"
);
},
{
closed = 1;
nodes = (
"195 305 LINE",
"195 499 LINE",
"166 526 OFFCURVE",
"149 547 OFFCURVE",
"149 558 CURVE SMOOTH",
"149 563 OFFCURVE",
"153 570 OFFCURVE",
"161 577 CURVE SMOOTH",
"168 583 OFFCURVE",
"176 588 OFFCURVE",
"184 588 CURVE SMOOTH",
"213 588 OFFCURVE",
"249 518 OFFCURVE",
"297 518 CURVE SMOOTH",
"346 518 OFFCURVE",
"380 591 OFFCURVE",
"417 591 CURVE SMOOTH",
"442 591 OFFCURVE",
"475 557 OFFCURVE",
"475 521 CURVE SMOOTH",
"475 0 LINE",
"567 0 LINE",
"567 521 LINE SMOOTH",
"567 598 OFFCURVE",
"492 682 OFFCURVE",
"431 682 CURVE SMOOTH",
"409 682 OFFCURVE",
"393 667 OFFCURVE",
"368 644 CURVE SMOOTH",
"344 621 OFFCURVE",
"324 602 OFFCURVE",
"320 602 CURVE SMOOTH",
"318 602 OFFCURVE",
"300 618 OFFCURVE",
"276 639 CURVE SMOOTH",
"244 667 OFFCURVE",
"222 682 OFFCURVE",
"206 682 CURVE SMOOTH",
"185 682 OFFCURVE",
"148 657 OFFCURVE",
"117 629 CURVE SMOOTH",
"80 594 OFFCURVE",
"54 557 OFFCURVE",
"54 542 CURVE SMOOTH",
"54 529 OFFCURVE",
"70 503 OFFCURVE",
"103 469 CURVE",
"103 305 LINE"
);
},
{
closed = 1;
nodes = (
"103 0 LINE",
"195 0 LINE",
"293 59 OFFCURVE",
"306 115 OFFCURVE",
"306 151 CURVE SMOOTH",
"306 211 OFFCURVE",
"270 250 OFFCURVE",
"195 246 CURVE",
"195 316 LINE",
"103 316 LINE"
);
},
{
closed = 1;
nodes = (
"218 181 OFFCURVE",
"235 175 OFFCURVE",
"235 150 CURVE SMOOTH",
"235 127 OFFCURVE",
"221 105 OFFCURVE",
"195 89 CURVE",
"195 181 LINE"
);
}
);
width = 1007;
},
{
anchors = (
{
name = abvm;
position = "{680, 760}";
},
{
name = blwm;
position = "{693, -269}";
},
{
name = blwm_self;
position = "{505, 0}";
}
);
layerId = "37E1EBAF-DBB8-42B6-8B14-41DF5B276D12";
paths = (
{
closed = 1;
nodes = (
"824 -82 OFFCURVE",
"841 -101 OFFCURVE",
"841 -143 CURVE SMOOTH",
"841 -190 OFFCURVE",
"795 -240 OFFCURVE",
"713 -240 CURVE SMOOTH",
"668 -240 OFFCURVE",
"616 -230 OFFCURVE",
"530 -167 CURVE SMOOTH",
"443 -104 OFFCURVE",
"383 -69 OFFCURVE",
"279 -69 CURVE SMOOTH",
"202 -69 OFFCURVE",
"131 -113 OFFCURVE",
"124 -166 CURVE",
"139 -166 LINE",
"162 -124 OFFCURVE",
"214 -95 OFFCURVE",
"276 -95 CURVE SMOOTH",
"343 -95 OFFCURVE",
"403 -109 OFFCURVE",
"481 -165 CURVE SMOOTH",
"560 -222 OFFCURVE",
"621 -266 OFFCURVE",
"707 -266 CURVE SMOOTH",
"781 -266 OFFCURVE",
"868 -225 OFFCURVE",
"868 -137 CURVE SMOOTH",
"868 -82 OFFCURVE",
"841 -49 OFFCURVE",
"813 -49 CURVE SMOOTH",
"797 -49 OFFCURVE",
"790 -61 OFFCURVE",
"791 -82 CURVE"
);
},
{
closed = 1;
nodes = (
"492 0 LINE",
"518 0 LINE",
"518 536 LINE SMOOTH",
"518 612 OFFCURVE",
"590 656 OFFCURVE",
"680 656 CURVE SMOOTH",
"770 656 OFFCURVE",
"842 604 OFFCURVE",
"842 536 CURVE SMOOTH",
"842 0 LINE",
"868 0 LINE",
"868 536 LINE SMOOTH",
"868 614 OFFCURVE",
"810 682 OFFCURVE",
"680 682 CURVE SMOOTH",
"550 682 OFFCURVE",
"492 607 OFFCURVE",
"492 536 CURVE SMOOTH"
);
},
{
closed = 1;
nodes = (
"146 302 LINE",
"146 479 LINE",
"115 516 OFFCURVE",
"93 542 OFFCURVE",
"93 552 CURVE SMOOTH",
"93 560 OFFCURVE",
"103 572 OFFCURVE",
"144 610 CURVE SMOOTH",
"176 639 OFFCURVE",
"197 655 OFFCURVE",
"203 655 CURVE SMOOTH",
"217 655 OFFCURVE",
"268 578 OFFCURVE",
"298 578 CURVE SMOOTH",
"328 578 OFFCURVE",
"371 656 OFFCURVE",
"408 656 CURVE SMOOTH",
"442 656 OFFCURVE",
"492 592 OFFCURVE",
"492 531 CURVE SMOOTH",
"492 0 LINE",
"518 0 LINE",
"518 531 LINE SMOOTH",
"518 604 OFFCURVE",
"464 682 OFFCURVE",
"409 682 CURVE SMOOTH",
"382 682 OFFCURVE",
"360 663 OFFCURVE",
"348 651 CURVE SMOOTH",
"325 629 OFFCURVE",
"312 606 OFFCURVE",
"299 606 CURVE SMOOTH",
"291 606 OFFCURVE",
"282 615 OFFCURVE",
"256 643 CURVE SMOOTH",
"236 665 OFFCURVE",
"221 681 OFFCURVE",
"204 681 CURVE SMOOTH",
"191 681 OFFCURVE",
"172 672 OFFCURVE",
"123 626 CURVE SMOOTH",
"72 578 OFFCURVE",
"66 562 OFFCURVE",
"66 552 CURVE SMOOTH",
"66 532 OFFCURVE",
"91 503 OFFCURVE",
"120 469 CURVE",
"120 302 LINE"
);
},
{
closed = 1;
nodes = (
"120 0 LINE",
"146 0 LINE",
"213 63 OFFCURVE",
"237 101 OFFCURVE",
"237 149 CURVE SMOOTH",
"237 186 OFFCURVE",
"221 226 OFFCURVE",
"146 227 CURVE",
"146 316 LINE",
"120 316 LINE"
);
},
{
closed = 1;
nodes = (
"186 199 OFFCURVE",
"211 185 OFFCURVE",
"211 146 CURVE SMOOTH",
"211 106 OFFCURVE",
"184 72 OFFCURVE",
"146 35 CURVE",
"146 200 LINE"
);
}
);
width = 1000;
},
{
anchors = (
{
name = abvm;
position = "{744, 760}";
},
{
name = blwm;
position = "{752, -302}";
},
{
name = blwm_self;
position = "{577, 0}";
}
);
layerId = "33F44B55-ADBD-4698-98EB-0F29A0B3A069";
paths = (
{
closed = 1;
nodes = (
"825 -144 OFFCURVE",
"832 -162 OFFCURVE",
"832 -174 CURVE SMOOTH",
"832 -196 OFFCURVE",
"809 -216 OFFCURVE",
"768 -216 CURVE SMOOTH",
"728 -216 OFFCURVE",
"693 -198 OFFCURVE",
"607 -135 CURVE SMOOTH",
"520 -72 OFFCURVE",
"434 -49 OFFCURVE",
"330 -49 CURVE SMOOTH",
"222 -49 OFFCURVE",
"142 -78 OFFCURVE",
"100 -166 CURVE",
"120 -166 LINE",
"166 -135 OFFCURVE",
"226 -122 OFFCURVE",
"289 -122 CURVE SMOOTH",
"394 -122 OFFCURVE",
"463 -158 OFFCURVE",
"541 -214 CURVE SMOOTH",
"620 -271 OFFCURVE",
"699 -302 OFFCURVE",
"794 -302 CURVE SMOOTH",
"958 -302 OFFCURVE",
"1005 -222 OFFCURVE",
"1005 -157 CURVE SMOOTH",
"1005 -92 OFFCURVE",
"957 -62 OFFCURVE",
"899 -62 CURVE SMOOTH",
"835 -62 OFFCURVE",
"792 -98 OFFCURVE",
"792 -144 CURVE"
);
},
{
closed = 1;
nodes = (
"487 0 LINE",
"667 0 LINE",
"667 491 LINE SMOOTH",
"667 541 OFFCURVE",
"683 580 OFFCURVE",
"750 580 CURVE SMOOTH",
"817 580 OFFCURVE",
"833 541 OFFCURVE",
"833 491 CURVE SMOOTH",
"833 0 LINE",
"1013 0 LINE",
"1013 512 LINE SMOOTH",
"1013 590 OFFCURVE",
"950 682 OFFCURVE",
"750 682 CURVE SMOOTH",
"550 682 OFFCURVE",
"487 590 OFFCURVE",
"487 512 CURVE"
);
},
{
closed = 1;
nodes = (
"275 309 LINE",
"275 444 LINE",
"193 507 OFFCURVE",
"179 521 OFFCURVE",
"179 533 CURVE SMOOTH",
"179 538 OFFCURVE",
"181 541 OFFCURVE",
"184 544 CURVE SMOOTH",
"187 547 OFFCURVE",
"191 549 OFFCURVE",
"195 549 CURVE SMOOTH",
"218 549 OFFCURVE",
"267 479 OFFCURVE",
"321 479 CURVE SMOOTH",
"368 479 OFFCURVE",
"418 533 OFFCURVE",
"450 533 CURVE SMOOTH",
"465 533 OFFCURVE",
"487 521 OFFCURVE",
"487 464 CURVE SMOOTH",
"487 0 LINE",
"667 0 LINE",
"667 521 LINE SMOOTH",
"667 602 OFFCURVE",
"607 682 OFFCURVE",
"534 682 CURVE SMOOTH",
"501 682 OFFCURVE",
"457 664 OFFCURVE",
"424 643 CURVE SMOOTH",
"398 627 OFFCURVE",
"370 604 OFFCURVE",
"356 604 CURVE SMOOTH",
"343 604 OFFCURVE",
"317 626 OFFCURVE",
"292 647 CURVE SMOOTH",
"275 661 OFFCURVE",
"250 682 OFFCURVE",
"221 682 CURVE SMOOTH",
"194 682 OFFCURVE",
"163 665 OFFCURVE",
"122 630 CURVE SMOOTH",
"81 595 OFFCURVE",
"46 554 OFFCURVE",
"46 528 CURVE SMOOTH",
"46 510 OFFCURVE",
"62 484 OFFCURVE",
"95 450 CURVE",
"95 309 LINE"
);
},
{
closed = 1;
nodes = (
"95 0 LINE",
"275 0 LINE",
"357 46 OFFCURVE",
"409 95 OFFCURVE",
"409 167 CURVE SMOOTH",
"409 235 OFFCURVE",
"364 281 OFFCURVE",
"275 275 CURVE",
"275 317 LINE",
"95 317 LINE"
);
},
{
closed = 1;
nodes = (
"293 185 OFFCURVE",
"309 179 OFFCURVE",
"309 154 CURVE SMOOTH",
"309 138 OFFCURVE",
"302 118 OFFCURVE",
"275 102 CURVE",
"275 186 LINE"
);
}
);
width = 1095;
},
{
anchors = (
{
name = abvm;
position = "{624, 760}";
},
{
name = blwm;
position = "{636, -302}";
},
{
name = blwm_self;
position = "{493, 0}";
}
);
layerId = "2845A654-27C0-4D24-8E0C-7DAF9BC7668A";
paths = (
{
closed = 1;
nodes = (
"692 -144 OFFCURVE",
"698 -161 OFFCURVE",
"698 -173 CURVE SMOOTH",
"698 -197 OFFCURVE",
"676 -216 OFFCURVE",
"642 -216 CURVE SMOOTH",
"609 -216 OFFCURVE",
"582 -198 OFFCURVE",
"511 -135 CURVE SMOOTH",
"439 -71 OFFCURVE",
"366 -49 OFFCURVE",
"280 -49 CURVE SMOOTH",
"190 -49 OFFCURVE",
"123 -78 OFFCURVE",
"88 -166 CURVE",
"105 -166 LINE",
"143 -135 OFFCURVE",
"193 -122 OFFCURVE",
"246 -122 CURVE SMOOTH",
"333 -122 OFFCURVE",
"391 -158 OFFCURVE",
"456 -214 CURVE SMOOTH",
"521 -270 OFFCURVE",
"579 -302 OFFCURVE",
"661 -302 CURVE SMOOTH",
"803 -302 OFFCURVE",
"842 -222 OFFCURVE",
"842 -157 CURVE SMOOTH",
"842 -92 OFFCURVE",
"802 -62 OFFCURVE",
"754 -62 CURVE SMOOTH",
"701 -62 OFFCURVE",
"665 -98 OFFCURVE",
"665 -144 CURVE"
);
},
{
closed = 1;
nodes = (
"416 0 LINE",
"566 0 LINE",
"566 491 LINE SMOOTH",
"566 541 OFFCURVE",
"578 580 OFFCURVE",
"634 580 CURVE SMOOTH",
"690 580 OFFCURVE",
"704 541 OFFCURVE",
"704 491 CURVE SMOOTH",
"704 0 LINE",
"854 0 LINE",
"854 512 LINE SMOOTH",
"854 590 OFFCURVE",
"802 682 OFFCURVE",
"635 682 CURVE SMOOTH",
"468 682 OFFCURVE",
"416 590 OFFCURVE",
"416 512 CURVE"
);
},
{
closed = 1;
nodes = (
"239 309 LINE",
"239 444 LINE",
"171 507 OFFCURVE",
"159 521 OFFCURVE",
"159 533 CURVE SMOOTH",
"159 538 OFFCURVE",
"161 541 OFFCURVE",
"163 544 CURVE SMOOTH",
"165 548 OFFCURVE",
"169 549 OFFCURVE",
"172 549 CURVE SMOOTH",
"191 549 OFFCURVE",
"240 479 OFFCURVE",
"273 479 CURVE SMOOTH",
"302 479 OFFCURVE",
"358 533 OFFCURVE",
"385 533 CURVE SMOOTH",
"397 533 OFFCURVE",
"416 521 OFFCURVE",
"416 464 CURVE SMOOTH",
"416 0 LINE",
"566 0 LINE",
"566 521 LINE SMOOTH",
"566 602 OFFCURVE",
"507 682 OFFCURVE",
"453 682 CURVE SMOOTH",
"427 682 OFFCURVE",
"391 664 OFFCURVE",
"363 643 CURVE SMOOTH",
"341 627 OFFCURVE",
"318 604 OFFCURVE",
"306 604 CURVE SMOOTH",
"295 604 OFFCURVE",
"274 626 OFFCURVE",
"253 647 CURVE SMOOTH",
"239 661 OFFCURVE",
"218 682 OFFCURVE",
"201 682 CURVE SMOOTH",
"181 682 OFFCURVE",
"143 660 OFFCURVE",
"109 627 CURVE SMOOTH",
"75 594 OFFCURVE",
"48 554 OFFCURVE",
"48 528 CURVE SMOOTH",
"48 510 OFFCURVE",
"61 484 OFFCURVE",
"89 450 CURVE",
"89 309 LINE"
);
},
{
closed = 1;
nodes = (
"89 0 LINE",
"239 0 LINE",
"307 46 OFFCURVE",
"351 100 OFFCURVE",
"351 169 CURVE SMOOTH",
"351 240 OFFCURVE",
"309 280 OFFCURVE",
"239 275 CURVE",
"239 317 LINE",
"89 317 LINE"
);
},
{
closed = 1;
nodes = (
"254 185 OFFCURVE",
"267 179 OFFCURVE",
"267 154 CURVE SMOOTH",
"267 138 OFFCURVE",
"262 118 OFFCURVE",
"239 102 CURVE",
"239 186 LINE"
);
}
);
width = 952;
},
{
anchors = (
{
name = abvm;
position = "{604, 760}";
},
{
name = blwm;
position = "{567, -293}";
},
{
name = blwm_self;
position = "{414, 0}";
}
);
layerId = "BB318BD9-DEF5-4D27-998D-30B020A0DD4F";
paths = (
{
closed = 1;
nodes = (
"668 -108 OFFCURVE",
"681 -123 OFFCURVE",
"681 -154 CURVE SMOOTH",
"681 -204 OFFCURVE",
"646 -228 OFFCURVE",
"603 -228 CURVE SMOOTH",
"564 -228 OFFCURVE",
"527 -209 OFFCURVE",
"455 -146 CURVE SMOOTH",
"383 -83 OFFCURVE",
"325 -49 OFFCURVE",
"247 -49 CURVE SMOOTH",
"166 -49 OFFCURVE",
"97 -86 OFFCURVE",
"76 -165 CURVE",
"93 -165 LINE",
"131 -128 OFFCURVE",
"184 -106 OFFCURVE",
"239 -106 CURVE SMOOTH",
"291 -106 OFFCURVE",
"349 -126 OFFCURVE",
"414 -182 CURVE SMOOTH",
"480 -239 OFFCURVE",
"524 -293 OFFCURVE",
"599 -293 CURVE SMOOTH",
"672 -293 OFFCURVE",
"743 -244 OFFCURVE",
"743 -134 CURVE SMOOTH",
"743 -82 OFFCURVE",
"728 -49 OFFCURVE",
"689 -49 CURVE SMOOTH",
"657 -49 OFFCURVE",
"640 -73 OFFCURVE",
"640 -108 CURVE"
);
},
{
closed = 1;
nodes = (
"376 0 LINE",
"453 0 LINE",
"453 512 LINE SMOOTH",
"453 582 OFFCURVE",
"504 615 OFFCURVE",
"559 615 CURVE SMOOTH",
"614 615 OFFCURVE",
"666 582 OFFCURVE",
"666 512 CURVE SMOOTH",
"666 0 LINE",
"743 0 LINE",
"743 512 LINE SMOOTH",
"743 628 OFFCURVE",
"668 682 OFFCURVE",
"559 682 CURVE SMOOTH",
"451 682 OFFCURVE",
"376 628 OFFCURVE",
"376 512 CURVE SMOOTH"
);
},
{
closed = 1;
nodes = (
"143 305 LINE",
"143 499 LINE",
"118 526 OFFCURVE",
"104 547 OFFCURVE",
"104 558 CURVE SMOOTH",
"104 563 OFFCURVE",
"107 570 OFFCURVE",
"114 577 CURVE SMOOTH",
"120 583 OFFCURVE",
"128 588 OFFCURVE",
"134 588 CURVE SMOOTH",
"158 588 OFFCURVE",
"188 518 OFFCURVE",
"228 518 CURVE SMOOTH",
"268 518 OFFCURVE",
"296 591 OFFCURVE",
"327 591 CURVE SMOOTH",
"348 591 OFFCURVE",
"376 557 OFFCURVE",
"376 521 CURVE SMOOTH",
"376 0 LINE",
"453 0 LINE",
"453 521 LINE SMOOTH",
"453 598 OFFCURVE",
"393 682 OFFCURVE",
"340 682 CURVE SMOOTH",
"321 682 OFFCURVE",
"310 672 OFFCURVE",
"287 644 CURVE SMOOTH",
"267 619 OFFCURVE",
"253 602 OFFCURVE",
"247 602 CURVE SMOOTH",
"242 602 OFFCURVE",
"228 618 OFFCURVE",
"210 639 CURVE SMOOTH",
"185 669 OFFCURVE",
"167 682 OFFCURVE",
"154 682 CURVE SMOOTH",
"136 682 OFFCURVE",
"102 657 OFFCURVE",
"76 628 CURVE SMOOTH",
"45 595 OFFCURVE",
"23 558 OFFCURVE",
"23 543 CURVE SMOOTH",
"23 530 OFFCURVE",
"38 503 OFFCURVE",
"66 469 CURVE",
"66 305 LINE"
);
},
{
closed = 1;
nodes = (
"66 0 LINE",
"143 0 LINE",
"224 59 OFFCURVE",
"235 115 OFFCURVE",
"235 151 CURVE SMOOTH",
"235 211 OFFCURVE",
"205 250 OFFCURVE",
"143 246 CURVE",
"143 316 LINE",
"66 316 LINE"
);
},
{
closed = 1;
nodes = (
"162 181 OFFCURVE",
"176 175 OFFCURVE",
"176 150 CURVE SMOOTH",
"176 127 OFFCURVE",
"164 105 OFFCURVE",
"143 89 CURVE",
"143 181 LINE"
);
}
);
width = 821;
},
{
anchors = (
{
name = abvm;
position = "{581, 760}";
},
{
name = blwm;
position = "{581, -269}";
},
{
name = blwm_self;
position = "{428, 0}";
}
);
layerId = "1DC75306-0750-4696-AEC7-032F44743549";
paths = (
{
closed = 1;
nodes = (
"691 -82 OFFCURVE",
"706 -101 OFFCURVE",
"706 -143 CURVE SMOOTH",
"706 -190 OFFCURVE",
"667 -240 OFFCURVE",
"599 -240 CURVE SMOOTH",
"561 -240 OFFCURVE",
"518 -230 OFFCURVE",
"446 -167 CURVE SMOOTH",
"374 -104 OFFCURVE",
"324 -69 OFFCURVE",
"237 -69 CURVE SMOOTH",
"173 -69 OFFCURVE",
"114 -113 OFFCURVE",
"108 -166 CURVE",
"121 -166 LINE",
"140 -124 OFFCURVE",
"183 -95 OFFCURVE",
"235 -95 CURVE SMOOTH",
"291 -95 OFFCURVE",
"341 -109 OFFCURVE",
"406 -165 CURVE SMOOTH",
"471 -221 OFFCURVE",
"523 -266 OFFCURVE",
"594 -266 CURVE SMOOTH",
"656 -266 OFFCURVE",
"728 -225 OFFCURVE",
"728 -137 CURVE SMOOTH",
"728 -82 OFFCURVE",
"706 -49 OFFCURVE",
"682 -49 CURVE SMOOTH",
"669 -49 OFFCURVE",
"663 -61 OFFCURVE",
"664 -82 CURVE"
);
},
{
closed = 1;
nodes = (
"415 0 LINE",
"441 0 LINE",
"441 536 LINE SMOOTH",
"441 612 OFFCURVE",
"487 656 OFFCURVE",
"573 656 CURVE SMOOTH",
"667 656 OFFCURVE",
"705 604 OFFCURVE",
"705 536 CURVE SMOOTH",
"705 0 LINE",
"731 0 LINE",
"731 536 LINE SMOOTH",
"731 614 OFFCURVE",
"700 682 OFFCURVE",
"573 682 CURVE SMOOTH",
"440 682 OFFCURVE",
"415 607 OFFCURVE",
"415 536 CURVE SMOOTH"
);
},
{
closed = 1;
nodes = (
"131 302 LINE",
"131 479 LINE",
"105 516 OFFCURVE",
"87 542 OFFCURVE",
"87 551 CURVE SMOOTH",
"87 559 OFFCURVE",
"92 576 OFFCURVE",
"126 613 CURVE SMOOTH",
"153 643 OFFCURVE",
"169 655 OFFCURVE",
"174 655 CURVE SMOOTH",
"186 655 OFFCURVE",
"225 578 OFFCURVE",
"256 578 CURVE SMOOTH",
"287 578 OFFCURVE",
"317 656 OFFCURVE",
"348 656 CURVE SMOOTH",
"376 656 OFFCURVE",
"415 592 OFFCURVE",
"415 531 CURVE SMOOTH",
"415 0 LINE",
"441 0 LINE",
"441 531 LINE SMOOTH",
"441 604 OFFCURVE",
"392 682 OFFCURVE",
"346 682 CURVE SMOOTH",
"323 682 OFFCURVE",
"305 664 OFFCURVE",
"292 648 CURVE SMOOTH",
"277 629 OFFCURVE",
"260 607 OFFCURVE",
"255 607 CURVE SMOOTH",
"248 607 OFFCURVE",
"239 617 OFFCURVE",
"222 640 CURVE SMOOTH",
"203 666 OFFCURVE",
"193 681 OFFCURVE",
"173 681 CURVE SMOOTH",
"162 681 OFFCURVE",
"150 676 OFFCURVE",
"114 638 CURVE SMOOTH",
"60 581 OFFCURVE",
"60 554 OFFCURVE",
"60 549 CURVE SMOOTH",
"60 533 OFFCURVE",
"81 503 OFFCURVE",
"105 469 CURVE",
"105 302 LINE"
);
},
{
closed = 1;
nodes = (
"105 0 LINE",
"131 0 LINE",
"183 44 OFFCURVE",
"211 102 OFFCURVE",
"211 147 CURVE SMOOTH",
"211 194 OFFCURVE",
"179 227 OFFCURVE",
"131 225 CURVE",
"131 316 LINE",
"105 316 LINE"
);
},
{
closed = 1;
nodes = (
"159 202 OFFCURVE",
"185 190 OFFCURVE",
"185 147 CURVE SMOOTH",
"185 105 OFFCURVE",
"160 64 OFFCURVE",
"131 33 CURVE",
"131 199 LINE"
);
}
);
width = 854;
}
);
note = uni1789;
unicode = 1789;
},
{
glyphname = uni1789.a;
lastChange = "2017-12-14 20:43:12 +0000";
layers = (
{
anchors = (
{
name = abvm;
position = "{691, 760}";
},
{
name = blwm;
position = "{704, 0}";
},
{
name = blwm_self;
position = "{520, 0}";
}
);
layerId = "88BEB7F0-7448-46FF-842C-45A92B9492CE";
paths = (
{
closed = 1;
nodes = (
"475 0 LINE",
"567 0 LINE",
"567 512 LINE SMOOTH",
"567 582 OFFCURVE",
"629 615 OFFCURVE",
"695 615 CURVE SMOOTH",
"761 615 OFFCURVE",
"823 582 OFFCURVE",
"823 512 CURVE SMOOTH",
"823 0 LINE",
"915 0 LINE",
"915 512 LINE SMOOTH",
"915 628 OFFCURVE",
"825 682 OFFCURVE",
"695 682 CURVE SMOOTH",
"565 682 OFFCURVE",
"475 628 OFFCURVE",
"475 512 CURVE SMOOTH"
);
},
{
closed = 1;
nodes = (
"195 305 LINE",
"195 499 LINE",
"166 526 OFFCURVE",
"149 547 OFFCURVE",
"149 558 CURVE SMOOTH",
"149 563 OFFCURVE",
"153 570 OFFCURVE",
"161 577 CURVE SMOOTH",
"168 583 OFFCURVE",
"176 588 OFFCURVE",
"184 588 CURVE SMOOTH",
"213 588 OFFCURVE",
"249 518 OFFCURVE",
"297 518 CURVE SMOOTH",
"346 518 OFFCURVE",
"380 591 OFFCURVE",
"417 591 CURVE SMOOTH",
"442 591 OFFCURVE",
"475 557 OFFCURVE",
"475 521 CURVE SMOOTH",
"475 0 LINE",
"567 0 LINE",
"567 521 LINE SMOOTH",
"567 598 OFFCURVE",
"492 682 OFFCURVE",
"431 682 CURVE SMOOTH",
"409 682 OFFCURVE",
"393 667 OFFCURVE",
"368 644 CURVE SMOOTH",
"344 621 OFFCURVE",
"324 602 OFFCURVE",
"320 602 CURVE SMOOTH",
"318 602 OFFCURVE",
"300 618 OFFCURVE",
"276 639 CURVE SMOOTH",
"244 667 OFFCURVE",
"222 682 OFFCURVE",
"206 682 CURVE SMOOTH",
"185 682 OFFCURVE",
"148 657 OFFCURVE",
"117 629 CURVE SMOOTH",
"80 594 OFFCURVE",
"54 557 OFFCURVE",
"54 542 CURVE SMOOTH",
"54 529 OFFCURVE",
"70 503 OFFCURVE",
"103 469 CURVE",
"103 305 LINE"
);
},
{
closed = 1;
nodes = (
"103 0 LINE",
"195 0 LINE",
"293 59 OFFCURVE",
"306 115 OFFCURVE",
"306 151 CURVE SMOOTH",
"306 211 OFFCURVE",
"270 250 OFFCURVE",
"195 246 CURVE",
"195 316 LINE",
"103 316 LINE"
);
},
{
closed = 1;
nodes = (
"218 181 OFFCURVE",
"235 175 OFFCURVE",
"235 150 CURVE SMOOTH",
"235 127 OFFCURVE",
"221 105 OFFCURVE",
"195 89 CURVE",
"195 181 LINE"
);
}
);
width = 1005;
},
{
anchors = (
{
name = abvm;
position = "{680, 760}";
},
{
name = blwm;
position = "{693, 0}";
},
{
name = blwm_self;
position = "{505, 0}";
}
);
layerId = "37E1EBAF-DBB8-42B6-8B14-41DF5B276D12";
paths = (
{
closed = 1;
nodes = (
"492 0 LINE",
"518 0 LINE",
"518 536 LINE SMOOTH",
"518 612 OFFCURVE",
"590 656 OFFCURVE",
"680 656 CURVE SMOOTH",
"770 656 OFFCURVE",
"842 604 OFFCURVE",
"842 536 CURVE SMOOTH",
"842 0 LINE",
"868 0 LINE",
"868 536 LINE SMOOTH",
"868 614 OFFCURVE",
"810 682 OFFCURVE",
"680 682 CURVE SMOOTH",
"550 682 OFFCURVE",
"492 607 OFFCURVE",
"492 536 CURVE SMOOTH"
);
},
{
closed = 1;
nodes = (
"146 302 LINE",
"146 479 LINE",
"115 516 OFFCURVE",
"93 542 OFFCURVE",
"93 552 CURVE SMOOTH",
"93 560 OFFCURVE",
"103 572 OFFCURVE",
"144 610 CURVE SMOOTH",
"176 639 OFFCURVE",
"197 655 OFFCURVE",
"203 655 CURVE SMOOTH",
"217 655 OFFCURVE",
"268 578 OFFCURVE",
"298 578 CURVE SMOOTH",
"328 578 OFFCURVE",
"371 656 OFFCURVE",
"408 656 CURVE SMOOTH",
"442 656 OFFCURVE",
"492 592 OFFCURVE",
"492 531 CURVE SMOOTH",
"492 0 LINE",
"518 0 LINE",
"518 531 LINE SMOOTH",
"518 604 OFFCURVE",
"464 682 OFFCURVE",
"409 682 CURVE SMOOTH",
"382 682 OFFCURVE",
"360 663 OFFCURVE",
"348 651 CURVE SMOOTH",
"325 629 OFFCURVE",
"312 606 OFFCURVE",
"299 606 CURVE SMOOTH",
"291 606 OFFCURVE",
"282 615 OFFCURVE",
"256 643 CURVE SMOOTH",
"236 665 OFFCURVE",
"221 681 OFFCURVE",
"204 681 CURVE SMOOTH",
"191 681 OFFCURVE",
"172 672 OFFCURVE",
"123 626 CURVE SMOOTH",
"72 578 OFFCURVE",
"66 562 OFFCURVE",
"66 552 CURVE SMOOTH",
"66 532 OFFCURVE",
"91 503 OFFCURVE",
"120 469 CURVE",
"120 302 LINE"
);
},
{
closed = 1;
nodes = (
"120 0 LINE",
"146 0 LINE",
"213 63 OFFCURVE",
"237 101 OFFCURVE",
"237 149 CURVE SMOOTH",
"237 186 OFFCURVE",
"221 226 OFFCURVE",
"146 227 CURVE",
"146 316 LINE",
"120 316 LINE"
);
},
{
closed = 1;
nodes = (
"186 199 OFFCURVE",
"211 185 OFFCURVE",
"211 146 CURVE SMOOTH",
"211 106 OFFCURVE",
"184 72 OFFCURVE",
"146 35 CURVE",
"146 200 LINE"
);
}
);
width = 998;
},
{
anchors = (
{
name = abvm;
position = "{760, 760}";
},
{
name = blwm;
position = "{752, 0}";
},
{
name = blwm_self;
position = "{577, 0}";
}
);
layerId = "33F44B55-ADBD-4698-98EB-0F29A0B3A069";
paths = (
{
closed = 1;
nodes = (
"487 0 LINE",
"667 0 LINE",
"667 491 LINE SMOOTH",
"667 541 OFFCURVE",
"683 580 OFFCURVE",
"750 580 CURVE SMOOTH",
"817 580 OFFCURVE",
"833 541 OFFCURVE",
"833 491 CURVE SMOOTH",
"833 0 LINE",
"1013 0 LINE",
"1013 512 LINE SMOOTH",
"1013 590 OFFCURVE",
"950 682 OFFCURVE",
"750 682 CURVE SMOOTH",
"550 682 OFFCURVE",
"487 590 OFFCURVE",
"487 512 CURVE"
);
},
{
closed = 1;
nodes = (
"275 309 LINE",
"275 444 LINE",
"193 507 OFFCURVE",
"179 521 OFFCURVE",
"179 533 CURVE SMOOTH",
"179 538 OFFCURVE",
"181 541 OFFCURVE",
"184 544 CURVE SMOOTH",
"187 547 OFFCURVE",
"191 549 OFFCURVE",
"195 549 CURVE SMOOTH",
"218 549 OFFCURVE",
"267 479 OFFCURVE",
"321 479 CURVE SMOOTH",
"368 479 OFFCURVE",
"418 533 OFFCURVE",
"450 533 CURVE SMOOTH",
"465 533 OFFCURVE",
"487 521 OFFCURVE",
"487 464 CURVE SMOOTH",
"487 0 LINE",
"667 0 LINE",
"667 521 LINE SMOOTH",
"667 602 OFFCURVE",
"607 682 OFFCURVE",
"534 682 CURVE SMOOTH",
"501 682 OFFCURVE",
"457 664 OFFCURVE",
"424 643 CURVE SMOOTH",
"398 627 OFFCURVE",
"370 604 OFFCURVE",
"356 604 CURVE SMOOTH",
"343 604 OFFCURVE",
"317 626 OFFCURVE",
"292 647 CURVE SMOOTH",
"275 661 OFFCURVE",
"250 682 OFFCURVE",
"221 682 CURVE SMOOTH",
"194 682 OFFCURVE",
"163 665 OFFCURVE",
"122 630 CURVE SMOOTH",
"81 595 OFFCURVE",
"46 554 OFFCURVE",
"46 528 CURVE SMOOTH",
"46 510 OFFCURVE",
"62 484 OFFCURVE",
"95 450 CURVE",
"95 309 LINE"
);
},
{
closed = 1;
nodes = (
"95 0 LINE",
"275 0 LINE",
"357 46 OFFCURVE",
"409 95 OFFCURVE",
"409 167 CURVE SMOOTH",
"409 235 OFFCURVE",
"364 281 OFFCURVE",
"275 275 CURVE",
"275 317 LINE",
"95 317 LINE"
);
},
{
closed = 1;
nodes = (
"293 185 OFFCURVE",
"309 179 OFFCURVE",
"309 154 CURVE SMOOTH",
"309 138 OFFCURVE",
"302 118 OFFCURVE",
"275 102 CURVE",
"275 186 LINE"
);
}
);
width = 1095;
},
{
anchors = (
{
name = abvm;
position = "{634, 760}";
},
{
name = blwm;
position = "{636, 0}";
},
{
name = blwm_self;
position = "{493, 0}";
}
);
layerId = "2845A654-27C0-4D24-8E0C-7DAF9BC7668A";
paths = (
{
closed = 1;
nodes = (
"416 0 LINE",
"566 0 LINE",
"566 491 LINE SMOOTH",
"566 541 OFFCURVE",
"578 580 OFFCURVE",
"634 580 CURVE SMOOTH",
"690 580 OFFCURVE",
"704 541 OFFCURVE",
"704 491 CURVE SMOOTH",
"704 0 LINE",
"854 0 LINE",
"854 512 LINE SMOOTH",
"854 590 OFFCURVE",
"802 682 OFFCURVE",
"635 682 CURVE SMOOTH",
"468 682 OFFCURVE",
"416 590 OFFCURVE",
"416 512 CURVE"
);
},
{
closed = 1;
nodes = (
"239 309 LINE",
"239 444 LINE",
"171 507 OFFCURVE",
"159 521 OFFCURVE",
"159 533 CURVE SMOOTH",
"159 538 OFFCURVE",
"161 541 OFFCURVE",
"163 544 CURVE SMOOTH",
"165 548 OFFCURVE",
"169 549 OFFCURVE",
"172 549 CURVE SMOOTH",
"191 549 OFFCURVE",
"240 479 OFFCURVE",
"273 479 CURVE SMOOTH",
"302 479 OFFCURVE",
"358 533 OFFCURVE",
"385 533 CURVE SMOOTH",
"397 533 OFFCURVE",
"416 521 OFFCURVE",
"416 464 CURVE SMOOTH",
"416 0 LINE",
"566 0 LINE",
"566 521 LINE SMOOTH",
"566 602 OFFCURVE",
"507 682 OFFCURVE",
"453 682 CURVE SMOOTH",
"427 682 OFFCURVE",
"391 664 OFFCURVE",
"363 643 CURVE SMOOTH",
"341 627 OFFCURVE",
"318 604 OFFCURVE",
"306 604 CURVE SMOOTH",
"295 604 OFFCURVE",
"274 626 OFFCURVE",
"253 647 CURVE SMOOTH",
"239 661 OFFCURVE",
"218 682 OFFCURVE",
"201 682 CURVE SMOOTH",
"181 682 OFFCURVE",
"143 660 OFFCURVE",
"109 627 CURVE SMOOTH",
"75 594 OFFCURVE",
"48 554 OFFCURVE",
"48 528 CURVE SMOOTH",
"48 510 OFFCURVE",
"61 484 OFFCURVE",
"89 450 CURVE",
"89 309 LINE"
);
},
{
closed = 1;
nodes = (
"89 0 LINE",
"239 0 LINE",
"307 46 OFFCURVE",
"351 100 OFFCURVE",
"351 169 CURVE SMOOTH",
"351 240 OFFCURVE",
"309 280 OFFCURVE",
"239 275 CURVE",
"239 317 LINE",
"89 317 LINE"
);
},
{
closed = 1;
nodes = (
"254 185 OFFCURVE",
"267 179 OFFCURVE",
"267 154 CURVE SMOOTH",
"267 138 OFFCURVE",
"262 118 OFFCURVE",
"239 102 CURVE",
"239 186 LINE"
);
}
);
width = 954;
},
{
anchors = (
{
name = abvm;
position = "{548, 760}";
},
{
name = blwm;
position = "{567, 0}";
},
{
name = blwm_self;
position = "{414, 0}";
}
);
layerId = "BB318BD9-DEF5-4D27-998D-30B020A0DD4F";
paths = (
{
closed = 1;
nodes = (
"376 0 LINE",
"453 0 LINE",
"453 512 LINE SMOOTH",
"453 582 OFFCURVE",
"504 615 OFFCURVE",
"559 615 CURVE SMOOTH",
"614 615 OFFCURVE",
"666 582 OFFCURVE",
"666 512 CURVE SMOOTH",
"666 0 LINE",
"743 0 LINE",
"743 512 LINE SMOOTH",
"743 628 OFFCURVE",
"668 682 OFFCURVE",
"559 682 CURVE SMOOTH",
"451 682 OFFCURVE",
"376 628 OFFCURVE",
"376 512 CURVE SMOOTH"
);
},
{
closed = 1;
nodes = (
"143 305 LINE",
"143 499 LINE",
"118 526 OFFCURVE",
"104 547 OFFCURVE",
"104 558 CURVE SMOOTH",
"104 563 OFFCURVE",
"107 570 OFFCURVE",
"114 577 CURVE SMOOTH",
"120 583 OFFCURVE",
"128 588 OFFCURVE",
"134 588 CURVE SMOOTH",
"158 588 OFFCURVE",
"188 518 OFFCURVE",
"228 518 CURVE SMOOTH",
"268 518 OFFCURVE",
"296 591 OFFCURVE",
"327 591 CURVE SMOOTH",
"348 591 OFFCURVE",
"376 557 OFFCURVE",
"376 521 CURVE SMOOTH",
"376 0 LINE",
"453 0 LINE",
"453 521 LINE SMOOTH",
"453 598 OFFCURVE",
"393 682 OFFCURVE",
"340 682 CURVE SMOOTH",
"321 682 OFFCURVE",
"310 672 OFFCURVE",
"287 644 CURVE SMOOTH",
"267 619 OFFCURVE",
"253 602 OFFCURVE",
"247 602 CURVE SMOOTH",
"242 602 OFFCURVE",
"228 618 OFFCURVE",
"210 639 CURVE SMOOTH",
"185 669 OFFCURVE",
"167 682 OFFCURVE",
"154 682 CURVE SMOOTH",
"136 682 OFFCURVE",
"102 657 OFFCURVE",
"76 628 CURVE SMOOTH",
"45 595 OFFCURVE",
"23 558 OFFCURVE",
"23 543 CURVE SMOOTH",
"23 530 OFFCURVE",
"38 503 OFFCURVE",
"66 469 CURVE",
"66 305 LINE"
);
},
{
closed = 1;
nodes = (
"66 0 LINE",
"143 0 LINE",
"224 59 OFFCURVE",
"235 115 OFFCURVE",
"235 151 CURVE SMOOTH",
"235 211 OFFCURVE",
"205 250 OFFCURVE",
"143 246 CURVE",
"143 316 LINE",
"66 316 LINE"
);
},
{
closed = 1;
nodes = (
"162 181 OFFCURVE",
"176 175 OFFCURVE",
"176 150 CURVE SMOOTH",
"176 127 OFFCURVE",
"164 105 OFFCURVE",
"143 89 CURVE",
"143 181 LINE"
);
}
);
width = 823;
},
{
anchors = (
{
name = abvm;
position = "{581, 760}";
},
{
name = blwm;
position = "{581, 0}";
},
{
name = blwm_self;
position = "{428, 0}";
}
);
layerId = "1DC75306-0750-4696-AEC7-032F44743549";
paths = (
{
closed = 1;
nodes = (
"415 0 LINE",
"441 0 LINE",
"441 536 LINE SMOOTH",
"441 612 OFFCURVE",
"487 656 OFFCURVE",
"573 656 CURVE SMOOTH",
"667 656 OFFCURVE",
"705 604 OFFCURVE",
"705 536 CURVE SMOOTH",
"705 0 LINE",
"731 0 LINE",
"731 536 LINE SMOOTH",
"731 614 OFFCURVE",
"700 682 OFFCURVE",
"573 682 CURVE SMOOTH",
"440 682 OFFCURVE",
"415 607 OFFCURVE",
"415 536 CURVE SMOOTH"
);
},
{
closed = 1;
nodes = (
"131 302 LINE",
"131 479 LINE",
"105 516 OFFCURVE",
"87 542 OFFCURVE",
"87 551 CURVE SMOOTH",
"87 559 OFFCURVE",
"92 576 OFFCURVE",
"126 613 CURVE SMOOTH",
"153 643 OFFCURVE",
"169 655 OFFCURVE",
"174 655 CURVE SMOOTH",
"186 655 OFFCURVE",
"225 578 OFFCURVE",
"256 578 CURVE SMOOTH",
"287 578 OFFCURVE",
"317 656 OFFCURVE",
"348 656 CURVE SMOOTH",
"376 656 OFFCURVE",
"415 592 OFFCURVE",
"415 531 CURVE SMOOTH",
"415 0 LINE",
"441 0 LINE",
"441 531 LINE SMOOTH",
"441 604 OFFCURVE",
"392 682 OFFCURVE",
"346 682 CURVE SMOOTH",
"323 682 OFFCURVE",
"305 664 OFFCURVE",
"292 648 CURVE SMOOTH",
"277 629 OFFCURVE",
"260 607 OFFCURVE",
"255 607 CURVE SMOOTH",
"248 607 OFFCURVE",
"239 617 OFFCURVE",
"222 640 CURVE SMOOTH",
"203 666 OFFCURVE",
"193 681 OFFCURVE",
"173 681 CURVE SMOOTH",
"162 681 OFFCURVE",
"150 676 OFFCURVE",
"114 638 CURVE SMOOTH",
"60 581 OFFCURVE",
"60 554 OFFCURVE",
"60 549 CURVE SMOOTH",
"60 533 OFFCURVE",
"81 503 OFFCURVE",
"105 469 CURVE",
"105 302 LINE"
);
},
{
closed = 1;
nodes = (
"105 0 LINE",
"131 0 LINE",
"183 44 OFFCURVE",
"211 102 OFFCURVE",
"211 147 CURVE SMOOTH",
"211 194 OFFCURVE",
"179 227 OFFCURVE",
"131 225 CURVE",
"131 316 LINE",
"105 316 LINE"
);
},
{
closed = 1;
nodes = (
"159 202 OFFCURVE",
"185 190 OFFCURVE",
"185 147 CURVE SMOOTH",
"185 105 OFFCURVE",
"160 64 OFFCURVE",
"131 33 CURVE",
"131 199 LINE"
);
}
);
width = 855;
}
);
note = uni1789.a;
},
